<svg width="13" height="15" viewBox="0 0 13 15" fill="none" xmlns="http://www.w3.org/2000/svg">
<g clip-path="url(#clip0)">
<path d="M8.77519 0.917612C8.16576 0.680486 7.55634 0.522401 6.85985 0.443359H6.77279C6.51161 0.443359 6.16336 0.443359 5.90218 0.443359C5.641 0.522401 5.29275 0.522401 5.03157 0.601444C2.59386 1.0757 0.765585 2.81462 0.330281 5.0278C0.069098 6.21343 0.330281 7.32002 0.765585 8.42661C1.28795 9.69128 2.0715 10.7188 2.94211 11.7464C3.81272 12.6949 4.77039 13.6434 5.90218 14.4338C6.25042 14.6709 6.42455 14.6709 6.77279 14.4338C6.85985 14.3548 6.94691 14.3548 6.94691 14.2757C8.42695 13.1691 9.6458 11.9045 10.6905 10.4027C11.387 9.37511 11.9964 8.34757 12.2576 7.08289C12.9541 4.63259 11.4741 1.94516 8.77519 0.917612ZM6.33748 9.13799C4.42214 9.13799 2.85505 7.71523 2.85505 5.9763C2.85505 4.23738 4.42214 2.81462 6.33748 2.81462C8.25283 2.81462 9.81992 4.23738 9.81992 5.9763C9.81992 7.71523 8.25283 9.13799 6.33748 9.13799Z" fill="#5F5F5F"/>
</g>
<defs>
<clipPath id="clip0">
<rect width="12.2756" height="14.2276" fill="white" transform="translate(0.243652 0.443359)"/>
</clipPath>
</defs>
</svg>
