<svg width="35" height="35" viewBox="0 0 35 35" fill="none" xmlns="http://www.w3.org/2000/svg">
<g clip-path="url(#clip0)">
<path d="M17.008 32.1228C16.5238 32.1228 16.0569 31.9474 15.693 31.6287C14.3189 30.4271 12.994 29.2979 11.8251 28.3019L11.8192 28.2967C8.39216 25.3763 5.43283 22.8542 3.37379 20.3698C1.07209 17.5924 0 14.959 0 12.0822C0 9.28717 0.958415 6.70855 2.69851 4.82105C4.45937 2.91122 6.87552 1.85938 9.50266 1.85938C11.4662 1.85938 13.2644 2.48015 14.8473 3.70432C15.6461 4.32224 16.3701 5.07849 17.008 5.96061C17.6462 5.07849 18.37 4.32224 19.1691 3.70432C20.7519 2.48015 22.5501 1.85938 24.5137 1.85938C27.1406 1.85938 29.557 2.91122 31.3178 4.82105C33.0579 6.70855 34.0161 9.28717 34.0161 12.0822C34.0161 14.959 32.9442 17.5924 30.6425 20.3696C28.5835 22.8542 25.6244 25.376 22.198 28.2962C21.027 29.2938 19.7001 30.4248 18.3228 31.6292C17.9592 31.9474 17.492 32.1228 17.008 32.1228ZM9.50266 3.85199C7.43868 3.85199 5.54261 4.67571 4.16325 6.1716C2.76339 7.69007 1.99235 9.78908 1.99235 12.0822C1.99235 14.5018 2.89159 16.6657 4.90782 19.0984C6.85657 21.4499 9.75517 23.9201 13.1113 26.7803L13.1175 26.7855C14.2908 27.7854 15.6209 28.919 17.0052 30.1294C18.3978 28.9167 19.7299 27.7813 20.9055 26.7798C24.2614 23.9196 27.1598 21.4499 29.1085 19.0984C31.1245 16.6657 32.0237 14.5018 32.0237 12.0822C32.0237 9.78908 31.2527 7.69007 29.8528 6.1716C28.4737 4.67571 26.5774 3.85199 24.5137 3.85199C23.0017 3.85199 21.6135 4.33262 20.3878 5.2804C19.2955 6.12541 18.5345 7.1936 18.0884 7.94102C17.859 8.32538 17.4552 8.5548 17.008 8.5548C16.5609 8.5548 16.1571 8.32538 15.9276 7.94102C15.4818 7.1936 14.7209 6.12541 13.6283 5.2804C12.4026 4.33262 11.0144 3.85199 9.50266 3.85199Z" fill="black"/>
</g>
<defs>
<clipPath id="clip0">
<rect width="34.0161" height="34.0161" fill="white"/>
</clipPath>
</defs>
</svg>
