<svg width="27" height="28" viewBox="0 0 27 28" fill="none" xmlns="http://www.w3.org/2000/svg">
<path d="M21.6387 8.75C19.3134 8.75 17.4199 6.78766 17.4199 4.375C17.4199 1.96234 19.3134 0 21.6387 0C23.9641 0 25.8574 1.96234 25.8574 4.375C25.8574 6.78766 23.9641 8.75 21.6387 8.75ZM21.6387 1.75C20.2437 1.75 19.1074 2.92706 19.1074 4.375C19.1074 5.82294 20.2437 7 21.6387 7C23.0337 7 24.1699 5.82294 24.1699 4.375C24.1699 2.92706 23.0337 1.75 21.6387 1.75Z" fill="black"/>
<path d="M21.6387 28C19.3134 28 17.4199 26.0377 17.4199 23.625C17.4199 21.2123 19.3134 19.25 21.6387 19.25C23.9641 19.25 25.8574 21.2123 25.8574 23.625C25.8574 26.0377 23.9641 28 21.6387 28ZM21.6387 21C20.2437 21 19.1074 22.1771 19.1074 23.625C19.1074 25.0729 20.2437 26.25 21.6387 26.25C23.0337 26.25 24.1699 25.0729 24.1699 23.625C24.1699 22.1771 23.0337 21 21.6387 21Z" fill="black"/>
<path d="M5.32617 18.375C3.00071 18.375 1.10742 16.4127 1.10742 14C1.10742 11.5873 3.00071 9.625 5.32617 9.625C7.65163 9.625 9.54492 11.5873 9.54492 14C9.54492 16.4127 7.65163 18.375 5.32617 18.375ZM5.32617 11.375C3.93118 11.375 2.79492 12.5521 2.79492 14C2.79492 15.4479 3.93118 16.625 5.32617 16.625C6.72116 16.625 7.85742 15.4479 7.85742 14C7.85742 12.5521 6.72116 11.375 5.32617 11.375Z" fill="black"/>
<path d="M8.26342 13.149C7.96968 13.149 7.68396 12.9903 7.52988 12.7081C7.29917 12.2881 7.43986 11.7536 7.84484 11.5146L18.2838 5.34278C18.6875 5.10138 19.2039 5.24835 19.4334 5.66962C19.6641 6.0896 19.5234 6.62387 19.1185 6.86313L8.67953 13.0347C8.5479 13.1116 8.40515 13.149 8.26342 13.149Z" fill="black"/>
<path d="M18.7015 22.7726C18.5597 22.7726 18.4168 22.7352 18.2852 22.6573L7.84622 16.4855C7.44123 16.2465 7.30075 15.712 7.53125 15.292C7.76073 14.8709 8.27613 14.725 8.68111 14.9654L19.1198 21.1369C19.5248 21.3762 19.6655 21.9104 19.435 22.3304C19.2797 22.6139 18.994 22.7726 18.7015 22.7726Z" fill="black"/>
</svg>
