<svg width="18" height="16" viewBox="0 0 18 16" fill="none" xmlns="http://www.w3.org/2000/svg">
<path fill-rule="evenodd" clip-rule="evenodd" d="M14.7635 0.544922H2.68672C1.38614 0.544922 0.364258 1.54213 0.364258 2.81131V12.7834C0.364258 14.0526 1.38614 15.0498 2.68672 15.0498H14.7635C16.0641 15.0498 17.086 14.0526 17.086 12.7834V2.81131C17.086 1.54213 16.0641 0.544922 14.7635 0.544922ZM14.7635 14.1432H2.68672C1.94353 14.1432 1.29324 13.5087 1.29324 12.7834V5.07769H16.157V12.7834C16.157 13.5087 15.5067 14.1432 14.7635 14.1432ZM4.9162 6.9801C4.7304 6.88945 4.35881 6.88945 4.17301 6.9801C3.98721 7.07076 4.08011 7.52404 4.17301 7.70535L6.21678 9.60912L4.26591 11.5129C4.08011 11.6942 4.08011 11.9662 4.26591 12.1475C4.26591 12.3288 4.45171 12.3288 4.5446 12.3288C4.6375 12.3288 4.8233 12.3288 4.9162 12.2381L7.23866 9.97175C7.42445 9.79043 7.42445 9.51847 7.23866 9.33715L4.9162 6.9801ZM9.18958 11.4238H12.9055C13.1842 11.4238 13.37 11.6051 13.37 11.8771C13.37 12.1491 13.1842 12.3304 12.9055 12.3304H9.18958C8.91088 12.3304 8.72509 12.1491 8.72509 11.8771C8.72509 11.6051 8.91088 11.4238 9.18958 11.4238Z" fill="#5F5F5F"/>
</svg>
