<svg width="40" height="40" viewBox="0 0 40 40" fill="none" xmlns="http://www.w3.org/2000/svg">
<g clip-path="url(#clip0)">
<path d="M38.7916 34.7951C40.9947 31.0281 40.0984 26.2649 36.6666 23.5028V18.2135H37.5C37.9602 18.2135 38.3334 17.8503 38.3334 17.4022V14.9685H39.1667C39.627 14.9675 39.9991 14.6034 39.998 14.1554C39.9974 13.891 39.8645 13.6434 39.6416 13.4921L20.475 0.512386C20.1894 0.319439 19.8106 0.319439 19.525 0.512386L0.358359 13.4921C-0.0190625 13.7486 -0.111406 14.2543 0.151953 14.6217C0.307422 14.8385 0.561719 14.9679 0.833359 14.9685H1.66672V17.4022C1.66672 17.8503 2.03984 18.2135 2.50008 18.2135H3.33344V31.1933H2.5C2.03977 31.1933 1.66664 31.5565 1.66664 32.0045V34.5842C0.670234 34.9272 0.00296875 35.843 0 36.8718V38.4943C0 38.9423 0.373125 39.3055 0.833359 39.3055H39.1667C39.627 39.3055 40.0001 38.9423 40.0001 38.4943V36.8718C39.9975 36.0216 39.5395 35.2343 38.7916 34.7951ZM36.6666 16.5911H30V14.9686H36.6666V16.5911ZM35 18.2135V22.44C33.9613 21.9207 32.8296 21.6011 31.6666 21.499V18.2135H35ZM20 2.1673L36.5084 13.3461H3.49164L20 2.1673ZM10.8334 31.1933H10V18.2135H10.8334C11.2936 18.2135 11.6667 17.8503 11.6667 17.4022V14.9685H15V17.4022C15 17.8503 15.3731 18.2135 15.8334 18.2135H16.6667V31.1933H15.8334C15.3731 31.1933 15 31.5565 15 32.0045V34.4382H11.6666V32.0045C11.6666 31.5564 11.2936 31.1933 10.8334 31.1933ZM16.6666 32.8157H22.025C22.1891 33.3763 22.4095 33.9198 22.6834 34.4381H16.6667V32.8157H16.6666ZM18.3334 31.1933V18.2135H21.6667V31.1933H18.3334ZM22.5 16.5911H16.6666V14.9686H23.3333V16.5911H22.5ZM23.3334 18.2135H24.1667C24.627 18.2135 25.0001 17.8503 25.0001 17.4022V14.9685H28.3334V17.4022C28.3334 17.8503 28.7066 18.2135 29.1668 18.2135H30V21.499C27.3176 21.7392 24.8795 23.1158 23.3334 25.2631V18.2135ZM3.33336 14.9685H10V16.591H3.33336V14.9685ZM8.33336 18.2135V31.1933H5V18.2135H8.33336ZM3.33336 32.8157H10V34.4381H3.33336V32.8157ZM1.66664 37.6831V36.8718C1.66664 36.4238 2.03977 36.0606 2.5 36.0606H23.7666C24.2925 36.6774 24.9006 37.223 25.575 37.683H1.66664V37.6831ZM38.3334 37.6831H36.0834C36.7325 37.2418 37.3207 36.721 37.8334 36.1337C38.1352 36.2619 38.3312 36.5513 38.3334 36.8719V37.6831ZM30.8334 37.6831C26.6912 37.6831 23.3334 34.4142 23.3334 30.382C23.3334 26.3497 26.6912 23.0809 30.8334 23.0809C34.9755 23.0809 38.3334 26.3497 38.3334 30.382C38.3334 34.4142 34.9755 37.6831 30.8334 37.6831Z" fill="#01579B"/>
<path d="M29.7004 10.254L20.5337 3.76416L19.5087 5.07836L26.6004 10.0999H11.667V11.7224H29.167C29.5427 11.7402 29.8842 11.5109 30.0004 11.1626C30.1133 10.8284 29.9922 10.4615 29.7004 10.254Z" fill="#01579B"/>
<path d="M32.5 26.3241H31.6666V24.7017H30V26.3241H29.1666C28.2462 26.3241 27.5 27.0505 27.5 27.9465V29.569C27.5 30.465 28.2462 31.1914 29.1666 31.1914H32.5V32.8139H29.1666V32.0026H27.5V32.8139C27.5 33.7099 28.2462 34.4363 29.1666 34.4363H30V36.0587H31.6666V34.4363H32.5C33.4205 34.4363 34.1666 33.7099 34.1666 32.8139V31.1914C34.1666 30.2954 33.4205 29.569 32.5 29.569H29.1666V27.9465H32.5V28.7578H34.1666V27.9465C34.1666 27.0505 33.4205 26.3241 32.5 26.3241Z" fill="#01579B"/>
</g>
<defs>
<clipPath id="clip0">
<rect width="40" height="38.9392" fill="white" transform="translate(0 0.365234)"/>
</clipPath>
</defs>
</svg>
