<svg width="66" height="66" viewBox="0 0 66 66" fill="none" xmlns="http://www.w3.org/2000/svg">
<path d="M33 66C26.4732 66 20.093 64.0646 14.6662 60.4385C9.23937 56.8124 5.00968 51.6585 2.51199 45.6286C0.0142983 39.5986 -0.639211 32.9634 0.6341 26.562C1.90741 20.1607 5.05036 14.2806 9.66549 9.66549C14.2806 5.05036 20.1607 1.90741 26.562 0.6341C32.9634 -0.639211 39.5986 0.0142983 45.6286 2.51199C51.6585 5.00968 56.8124 9.23937 60.4385 14.6662C64.0646 20.093 66 26.4732 66 33C65.9899 41.7491 62.5099 50.1369 56.3234 56.3234C50.1369 62.5099 41.7491 65.9899 33 66ZM33 2.72166C27.0115 2.72166 21.1575 4.49746 16.1783 7.82448C11.199 11.1515 7.31816 15.8803 5.02647 21.413C2.73477 26.9456 2.13516 33.0336 3.30345 38.907C4.47175 44.7804 7.35548 50.1755 11.59 54.41C15.8245 58.6445 21.2196 61.5283 27.093 62.6966C32.9664 63.8649 39.0544 63.2652 44.587 60.9736C50.1197 58.6819 54.8485 54.801 58.1755 49.8218C61.5026 44.8425 63.2784 38.9885 63.2784 33C63.2693 24.9725 60.0764 17.2763 54.4001 11.5999C48.7237 5.92359 41.0276 2.73067 33 2.72166Z" fill="#151A6A"/>
<path d="M33.3851 16.3302C33.6031 16.3285 33.8191 16.3703 34.0208 16.4529C34.2225 16.5356 34.4057 16.6575 34.5598 16.8116C34.7139 16.9657 34.8358 17.1489 34.9185 17.3506C35.0011 17.5523 35.0429 17.7684 35.0412 17.9863V18.8327C37.1663 19.0766 39.2074 19.8032 41.0085 20.957C41.3543 21.1264 41.6457 21.3893 41.8497 21.716C42.0537 22.0426 42.162 22.4199 42.1624 22.805C42.1612 23.0855 42.1043 23.363 41.9951 23.6213C41.8859 23.8797 41.7265 24.1138 41.5261 24.3101C41.3257 24.5064 41.0884 24.6611 40.8278 24.765C40.5673 24.8689 40.2887 24.9201 40.0082 24.9156C39.5984 24.9091 39.1985 24.789 38.8529 24.5686C37.6266 23.8024 36.2889 23.2309 34.8875 22.8744V30.2664C40.739 31.7306 43.2429 34.0767 43.2429 38.1973C43.2429 42.4322 39.9307 45.2423 35.0426 45.7049V48.0183C35.0437 48.236 35.0015 48.4518 34.9185 48.6531C34.8356 48.8544 34.7134 49.0372 34.5592 49.1909C34.405 49.3446 34.2218 49.4661 34.0203 49.5484C33.8187 49.6307 33.6028 49.6722 33.3851 49.6704C32.9412 49.6751 32.5135 49.5035 32.1958 49.1933C31.8782 48.8831 31.6966 48.4596 31.6909 48.0156V45.6287C28.8459 45.3214 26.1278 44.2871 23.7981 42.6254C23.4778 42.4358 23.213 42.1652 23.0305 41.8408C22.848 41.5164 22.7541 41.1496 22.7584 40.7774C22.7588 40.3842 22.8686 39.999 23.0754 39.6646C23.2823 39.3303 23.5781 39.0601 23.9297 38.8843C24.2813 38.7085 24.6749 38.634 25.0665 38.6691C25.4581 38.7042 25.8322 38.8476 26.1469 39.0832C27.8205 40.3742 29.7709 41.2593 31.8447 41.6687V34.0781C26.2245 32.6165 23.6062 30.4977 23.6062 26.1472C23.6062 22.0279 26.8722 19.1784 31.6909 18.7987V17.9904C31.693 17.7701 31.7386 17.5524 31.8249 17.3497C31.9112 17.147 32.0366 16.9633 32.1939 16.8092C32.3513 16.655 32.5375 16.5333 32.7419 16.4511C32.9463 16.3689 33.1648 16.3278 33.3851 16.3302ZM31.8433 29.4594V22.6444C29.3802 22.8744 28.1473 24.1849 28.1473 25.8777C28.1487 27.4889 28.8808 28.4973 31.8433 29.4594ZM34.8847 34.8102V41.8171C37.3478 41.5449 38.6951 40.3202 38.6951 38.4667C38.6978 36.7738 37.8513 35.7328 34.8861 34.8102H34.8847Z" fill="#151A6A"/>
<path d="M33 10.8857C33.7515 10.8857 34.3608 10.2764 34.3608 9.52489C34.3608 8.77332 33.7515 8.16406 33 8.16406C32.2484 8.16406 31.6392 8.77332 31.6392 9.52489C31.6392 10.2764 32.2484 10.8857 33 10.8857Z" fill="#151A6A"/>
<path d="M33 57.8349C33.7515 57.8349 34.3608 57.2257 34.3608 56.4741C34.3608 55.7225 33.7515 55.1133 33 55.1133C32.2484 55.1133 31.6392 55.7225 31.6392 56.4741C31.6392 57.2257 32.2484 57.8349 33 57.8349Z" fill="#151A6A"/>
<path d="M21.2629 14.0302C22.0145 14.0302 22.6237 13.421 22.6237 12.6694C22.6237 11.9179 22.0145 11.3086 21.2629 11.3086C20.5114 11.3086 19.9021 11.9179 19.9021 12.6694C19.9021 13.421 20.5114 14.0302 21.2629 14.0302Z" fill="#151A6A"/>
<path d="M44.737 54.6904C45.4886 54.6904 46.0979 54.0811 46.0979 53.3296C46.0979 52.578 45.4886 51.9688 44.737 51.9688C43.9855 51.9688 43.3762 52.578 43.3762 53.3296C43.3762 54.0811 43.9855 54.6904 44.737 54.6904Z" fill="#151A6A"/>
<path d="M12.6706 22.624C13.4222 22.624 14.0315 22.0147 14.0315 21.2632C14.0315 20.5116 13.4222 19.9023 12.6706 19.9023C11.9191 19.9023 11.3098 20.5116 11.3098 21.2632C11.3098 22.0147 11.9191 22.624 12.6706 22.624Z" fill="#151A6A"/>
<path d="M53.3293 46.0986C54.0809 46.0986 54.6902 45.4893 54.6902 44.7378C54.6902 43.9862 54.0809 43.377 53.3293 43.377C52.5778 43.377 51.9685 43.9862 51.9685 44.7378C51.9685 45.4893 52.5778 46.0986 53.3293 46.0986Z" fill="#151A6A"/>
<path d="M9.52586 34.3603C10.2774 34.3603 10.8867 33.7511 10.8867 32.9995C10.8867 32.2479 10.2774 31.6387 9.52586 31.6387C8.7743 31.6387 8.16504 32.2479 8.16504 32.9995C8.16504 33.7511 8.7743 34.3603 9.52586 34.3603Z" fill="#151A6A"/>
<path d="M56.4741 34.3603C57.2257 34.3603 57.8349 33.7511 57.8349 32.9995C57.8349 32.2479 57.2257 31.6387 56.4741 31.6387C55.7225 31.6387 55.1133 32.2479 55.1133 32.9995C55.1133 33.7511 55.7225 34.3603 56.4741 34.3603Z" fill="#151A6A"/>
<path d="M12.6706 46.0986C13.4222 46.0986 14.0315 45.4893 14.0315 44.7378C14.0315 43.9862 13.4222 43.377 12.6706 43.377C11.9191 43.377 11.3098 43.9862 11.3098 44.7378C11.3098 45.4893 11.9191 46.0986 12.6706 46.0986Z" fill="#151A6A"/>
<path d="M53.3293 22.624C54.0809 22.624 54.6902 22.0147 54.6902 21.2632C54.6902 20.5116 54.0809 19.9023 53.3293 19.9023C52.5778 19.9023 51.9685 20.5116 51.9685 21.2632C51.9685 22.0147 52.5778 22.624 53.3293 22.624Z" fill="#151A6A"/>
<path d="M21.2629 54.6904C22.0145 54.6904 22.6237 54.0811 22.6237 53.3296C22.6237 52.578 22.0145 51.9688 21.2629 51.9688C20.5114 51.9688 19.9021 52.578 19.9021 53.3296C19.9021 54.0811 20.5114 54.6904 21.2629 54.6904Z" fill="#151A6A"/>
<path d="M44.737 14.0302C45.4886 14.0302 46.0979 13.421 46.0979 12.6694C46.0979 11.9179 45.4886 11.3086 44.737 11.3086C43.9855 11.3086 43.3762 11.9179 43.3762 12.6694C43.3762 13.421 43.9855 14.0302 44.737 14.0302Z" fill="#151A6A"/>
</svg>
