<svg width="75" height="75" viewBox="0 0 75 75" fill="none" xmlns="http://www.w3.org/2000/svg">
<g clip-path="url(#clip0)">
<path d="M71.4844 18.1641H35.7422C34.8098 18.1641 33.9156 18.5345 33.2563 19.1938C32.597 19.8531 32.2266 20.7473 32.2266 21.6797V71.4844C32.2266 72.4168 32.597 73.311 33.2563 73.9703C33.9156 74.6296 34.8098 75 35.7422 75H71.4844C72.4168 75 73.311 74.6296 73.9703 73.9703C74.6296 73.311 75 72.4168 75 71.4844V21.6797C75 20.7473 74.6296 19.8531 73.9703 19.1938C73.311 18.5345 72.4168 18.1641 71.4844 18.1641ZM48.3094 67.9688H42.1465C41.8357 67.9688 41.5376 67.8453 41.3178 67.6255C41.0981 67.4057 40.9746 67.1077 40.9746 66.7969C40.9746 66.4861 41.0981 66.188 41.3178 65.9682C41.5376 65.7485 41.8357 65.625 42.1465 65.625H48.3094C48.6202 65.625 48.9182 65.7485 49.138 65.9682C49.3578 66.188 49.4812 66.4861 49.4812 66.7969C49.4812 67.1077 49.3578 67.4057 49.138 67.6255C48.9182 67.8453 48.6202 67.9688 48.3094 67.9688ZM48.3094 60.9375H42.1465C41.8357 60.9375 41.5376 60.814 41.3178 60.5943C41.0981 60.3745 40.9746 60.0764 40.9746 59.7656C40.9746 59.4548 41.0981 59.1568 41.3178 58.937C41.5376 58.7172 41.8357 58.5938 42.1465 58.5938H48.3094C48.6202 58.5938 48.9182 58.7172 49.138 58.937C49.3578 59.1568 49.4812 59.4548 49.4812 59.7656C49.4812 60.0764 49.3578 60.3745 49.138 60.5943C48.9182 60.814 48.6202 60.9375 48.3094 60.9375ZM48.3094 53.9062H42.1465C41.8357 53.9062 41.5376 53.7828 41.3178 53.563C41.0981 53.3432 40.9746 53.0452 40.9746 52.7344C40.9746 52.4236 41.0981 52.1255 41.3178 51.9057C41.5376 51.686 41.8357 51.5625 42.1465 51.5625H48.3094C48.6202 51.5625 48.9182 51.686 49.138 51.9057C49.3578 52.1255 49.4812 52.4236 49.4812 52.7344C49.4812 53.0452 49.3578 53.3432 49.138 53.563C48.9182 53.7828 48.6202 53.9062 48.3094 53.9062ZM60.634 67.9688H54.4711C54.1603 67.9688 53.8622 67.8453 53.6425 67.6255C53.4227 67.4057 53.2992 67.1077 53.2992 66.7969C53.2992 66.4861 53.4227 66.188 53.6425 65.9682C53.8622 65.7485 54.1603 65.625 54.4711 65.625H60.634C60.9448 65.625 61.2429 65.7485 61.4626 65.9682C61.6824 66.188 61.8059 66.4861 61.8059 66.7969C61.8059 67.1077 61.6824 67.4057 61.4626 67.6255C61.2429 67.8453 60.9448 67.9688 60.634 67.9688ZM60.634 60.9375H54.4711C54.1603 60.9375 53.8622 60.814 53.6425 60.5943C53.4227 60.3745 53.2992 60.0764 53.2992 59.7656C53.2992 59.4548 53.4227 59.1568 53.6425 58.937C53.8622 58.7172 54.1603 58.5938 54.4711 58.5938H60.634C60.9448 58.5938 61.2429 58.7172 61.4626 58.937C61.6824 59.1568 61.8059 59.4548 61.8059 59.7656C61.8059 60.0764 61.6824 60.3745 61.4626 60.5943C61.2429 60.814 60.9448 60.9375 60.634 60.9375ZM60.634 53.9062H54.4711C54.1603 53.9062 53.8622 53.7828 53.6425 53.563C53.4227 53.3432 53.2992 53.0452 53.2992 52.7344C53.2992 52.4236 53.4227 52.1255 53.6425 51.9057C53.8622 51.686 54.1603 51.5625 54.4711 51.5625H60.634C60.9448 51.5625 61.2429 51.686 61.4626 51.9057C61.6824 52.1255 61.8059 52.4236 61.8059 52.7344C61.8059 53.0452 61.6824 53.3432 61.4626 53.563C61.2429 53.7828 60.9448 53.9062 60.634 53.9062ZM67.9688 66.7969C67.9688 67.1077 67.8453 67.4057 67.6255 67.6255C67.4057 67.8453 67.1077 67.9688 66.7969 67.9688C66.4861 67.9688 66.188 67.8453 65.9682 67.6255C65.7485 67.4057 65.625 67.1077 65.625 66.7969V52.7344C65.625 52.4236 65.7485 52.1255 65.9682 51.9057C66.188 51.686 66.4861 51.5625 66.7969 51.5625C67.1077 51.5625 67.4057 51.686 67.6255 51.9057C67.8453 52.1255 67.9688 52.4236 67.9688 52.7344V66.7969ZM67.9688 43.3594C67.9688 44.2918 67.5984 45.186 66.939 45.8453C66.2797 46.5046 65.3855 46.875 64.4531 46.875H42.7734C41.841 46.875 40.9468 46.5046 40.2875 45.8453C39.6282 45.186 39.2578 44.2918 39.2578 43.3594V28.7109C39.2578 27.7785 39.6282 26.8843 40.2875 26.225C40.9468 25.5657 41.841 25.1953 42.7734 25.1953H64.4531C65.3855 25.1953 66.2797 25.5657 66.939 26.225C67.5984 26.8843 67.9688 27.7785 67.9688 28.7109V43.3594Z" fill="#4CB5EF"/>
<path d="M28.418 56.836C22.7974 56.836 17.3031 55.1693 12.6298 52.0467C7.95649 48.9241 4.31409 44.4858 2.1632 39.2931C0.012313 34.1004 -0.550457 28.3865 0.546056 22.8739C1.64257 17.3614 4.34912 12.2978 8.32344 8.32344C12.2978 4.34912 17.3614 1.64257 22.8739 0.546056C28.3865 -0.550457 34.1004 0.012313 39.2931 2.1632C44.4858 4.31409 48.9241 7.95649 52.0467 12.6298C55.1693 17.3031 56.836 22.7974 56.836 28.418C56.8273 35.9522 53.8305 43.1754 48.5029 48.5029C43.1754 53.8305 35.9522 56.8273 28.418 56.836ZM28.418 2.34376C23.261 2.34376 18.2198 3.87299 13.9319 6.73806C9.64404 9.60313 6.30204 13.6754 4.32854 18.4398C2.35505 23.2043 1.83869 28.4469 2.84477 33.5048C3.85085 38.5627 6.33418 43.2087 9.98072 46.8552C13.6273 50.5018 18.2733 52.9851 23.3312 53.9912C28.3891 54.9973 33.6317 54.4809 38.3962 52.5074C43.1606 50.5339 47.2328 47.1919 50.0979 42.904C52.963 38.6162 54.4922 33.575 54.4922 28.418C54.4844 21.505 51.7349 14.8775 46.8467 9.98929C41.9585 5.1011 35.3309 2.35152 28.418 2.34376Z" fill="#151A6A"/>
<path d="M28.7494 14.0626C28.9371 14.0612 29.1232 14.0971 29.2969 14.1683C29.4705 14.2395 29.6283 14.3445 29.761 14.4772C29.8937 14.6099 29.9987 14.7677 30.0699 14.9413C30.1411 15.115 30.177 15.3011 30.1756 15.4888V16.2177C32.0056 16.4277 33.7633 17.0534 35.3143 18.047C35.6121 18.1928 35.8631 18.4193 36.0387 18.7006C36.2144 18.9818 36.3077 19.3067 36.308 19.6384C36.307 19.8799 36.258 20.1189 36.1639 20.3414C36.0699 20.5639 35.9326 20.7655 35.76 20.9345C35.5875 21.1036 35.3831 21.2367 35.1587 21.3262C34.9344 21.4157 34.6945 21.4598 34.453 21.4559C34.1 21.4503 33.7556 21.3469 33.458 21.1571C32.402 20.4973 31.25 20.0051 30.0432 19.6981V26.0638C35.0822 27.3247 37.2385 29.345 37.2385 32.8934C37.2385 36.5403 34.3862 38.9602 30.1768 39.3587V41.3509C30.1777 41.5383 30.1414 41.7242 30.0699 41.8975C29.9985 42.0708 29.8933 42.2282 29.7605 42.3606C29.6277 42.4929 29.47 42.5976 29.2964 42.6685C29.1228 42.7394 28.9369 42.7751 28.7494 42.7735C28.3671 42.7776 27.9988 42.6298 27.7253 42.3627C27.4518 42.0956 27.2954 41.7308 27.2905 41.3485V39.2931C24.8405 39.0284 22.4998 38.1377 20.4936 36.7067C20.2177 36.5435 19.9897 36.3104 19.8325 36.0311C19.6754 35.7517 19.5946 35.4359 19.5983 35.1153C19.5986 34.7768 19.6931 34.445 19.8712 34.1571C20.0494 33.8692 20.3041 33.6365 20.6069 33.4851C20.9097 33.3337 21.2487 33.2695 21.5859 33.2998C21.9231 33.33 22.2452 33.4535 22.5162 33.6563C23.9575 34.7682 25.6371 35.5303 27.4229 35.8829V29.3462C22.583 28.0876 20.3283 26.263 20.3283 22.5165C20.3283 18.9692 23.1408 16.5153 27.2905 16.1884V15.4923C27.2923 15.3026 27.3315 15.1151 27.4058 14.9406C27.4802 14.766 27.5882 14.6078 27.7237 14.4751C27.8592 14.3423 28.0195 14.2375 28.1955 14.1667C28.3715 14.096 28.5597 14.0606 28.7494 14.0626ZM27.4217 25.3688V19.5001C25.3006 19.6981 24.2389 20.8266 24.2389 22.2845C24.2401 23.672 24.8705 24.5403 27.4217 25.3688ZM30.0408 29.9766V36.0106C32.1619 35.7763 33.3221 34.7216 33.3221 33.1255C33.3244 31.6677 32.5955 30.7712 30.042 29.9766H30.0408Z" fill="#151A6A"/>
<path d="M28.418 9.375C29.0652 9.375 29.5898 8.85033 29.5898 8.20312C29.5898 7.55592 29.0652 7.03125 28.418 7.03125C27.7708 7.03125 27.2461 7.55592 27.2461 8.20312C27.2461 8.85033 27.7708 9.375 28.418 9.375Z" fill="#151A6A"/>
<path d="M28.418 49.8047C29.0652 49.8047 29.5898 49.28 29.5898 48.6328C29.5898 47.9856 29.0652 47.4609 28.418 47.4609C27.7708 47.4609 27.2461 47.9856 27.2461 48.6328C27.2461 49.28 27.7708 49.8047 28.418 49.8047Z" fill="#151A6A"/>
<path d="M18.3105 12.084C18.9578 12.084 19.4824 11.5593 19.4824 10.9121C19.4824 10.2649 18.9578 9.74023 18.3105 9.74023C17.6633 9.74023 17.1387 10.2649 17.1387 10.9121C17.1387 11.5593 17.6633 12.084 18.3105 12.084Z" fill="#151A6A"/>
<path d="M38.5254 47.0957C39.1726 47.0957 39.6973 46.571 39.6973 45.9238C39.6973 45.2766 39.1726 44.752 38.5254 44.752C37.8782 44.752 37.3535 45.2766 37.3535 45.9238C37.3535 46.571 37.8782 47.0957 38.5254 47.0957Z" fill="#151A6A"/>
<path d="M10.9111 19.4824C11.5583 19.4824 12.083 18.9578 12.083 18.3105C12.083 17.6633 11.5583 17.1387 10.9111 17.1387C10.2639 17.1387 9.73926 17.6633 9.73926 18.3105C9.73926 18.9578 10.2639 19.4824 10.9111 19.4824Z" fill="#151A6A"/>
<path d="M45.9248 39.6973C46.572 39.6973 47.0967 39.1726 47.0967 38.5254C47.0967 37.8782 46.572 37.3535 45.9248 37.3535C45.2776 37.3535 44.7529 37.8782 44.7529 38.5254C44.7529 39.1726 45.2776 39.6973 45.9248 39.6973Z" fill="#151A6A"/>
<path d="M8.20312 29.5898C8.85033 29.5898 9.375 29.0652 9.375 28.418C9.375 27.7708 8.85033 27.2461 8.20312 27.2461C7.55592 27.2461 7.03125 27.7708 7.03125 28.418C7.03125 29.0652 7.55592 29.5898 8.20312 29.5898Z" fill="#151A6A"/>
<path d="M48.6328 29.5898C49.28 29.5898 49.8047 29.0652 49.8047 28.418C49.8047 27.7708 49.28 27.2461 48.6328 27.2461C47.9856 27.2461 47.4609 27.7708 47.4609 28.418C47.4609 29.0652 47.9856 29.5898 48.6328 29.5898Z" fill="#151A6A"/>
<path d="M10.9111 39.6973C11.5583 39.6973 12.083 39.1726 12.083 38.5254C12.083 37.8782 11.5583 37.3535 10.9111 37.3535C10.2639 37.3535 9.73926 37.8782 9.73926 38.5254C9.73926 39.1726 10.2639 39.6973 10.9111 39.6973Z" fill="#151A6A"/>
<path d="M45.9248 19.4824C46.572 19.4824 47.0967 18.9578 47.0967 18.3105C47.0967 17.6633 46.572 17.1387 45.9248 17.1387C45.2776 17.1387 44.7529 17.6633 44.7529 18.3105C44.7529 18.9578 45.2776 19.4824 45.9248 19.4824Z" fill="#151A6A"/>
<path d="M18.3105 47.0957C18.9578 47.0957 19.4824 46.571 19.4824 45.9238C19.4824 45.2766 18.9578 44.752 18.3105 44.752C17.6633 44.752 17.1387 45.2766 17.1387 45.9238C17.1387 46.571 17.6633 47.0957 18.3105 47.0957Z" fill="#151A6A"/>
<path d="M38.5254 12.084C39.1726 12.084 39.6973 11.5593 39.6973 10.9121C39.6973 10.2649 39.1726 9.74023 38.5254 9.74023C37.8782 9.74023 37.3535 10.2649 37.3535 10.9121C37.3535 11.5593 37.8782 12.084 38.5254 12.084Z" fill="#151A6A"/>
</g>
<defs>
<clipPath id="clip0">
<rect width="75" height="75" fill="white"/>
</clipPath>
</defs>
</svg>
