<svg width="105" height="105" viewBox="0 0 105 105" fill="none" xmlns="http://www.w3.org/2000/svg">
<g clip-path="url(#clip0)">
<path d="M68.2513 91.6597V89.5043C68.2513 88.912 68.5251 88.353 68.9931 87.99C69.9821 87.2227 69.9821 85.7288 68.9931 84.9615C68.5251 84.5985 68.2513 84.0395 68.2513 83.4472V81.2918C68.2513 80.5381 68.8623 79.9272 69.6159 79.9272C70.3696 79.9272 70.9805 79.3162 70.9805 78.5625V77.0142C70.9805 76.2605 70.3694 75.6494 69.6159 75.6494C68.8621 75.6494 68.2513 75.0384 68.2513 74.2848V70.1668C68.2513 69.413 68.8623 68.802 69.6159 68.802C70.3696 68.802 70.9805 68.1909 70.9805 67.4374V60.4814H55.5469V95.6192C55.5469 97.0118 56.0573 98.356 56.9813 99.3978L61.0816 104.02C62.2422 105.328 64.2854 105.328 65.4459 104.02L69.5463 99.3978C70.4705 98.356 70.9807 97.0118 70.9807 95.6192V94.389C70.9807 93.6353 70.3696 93.0242 69.6161 93.0242C68.8623 93.0245 68.2513 92.4134 68.2513 91.6597Z" fill="url(#paint0_linear)"/>
<path d="M65.7256 60.4824V96.9473C65.7256 98.3069 64.6234 99.4092 63.2637 99.4092C61.9041 99.4092 60.8018 98.3069 60.8018 96.9473V60.4824H65.7256Z" fill="url(#paint1_linear)"/>
<path d="M70.9807 77.0152C70.9807 76.2614 70.3696 75.6504 69.6159 75.6504C68.8621 75.6504 68.2513 75.0393 68.2513 74.2858V70.1677C68.2513 69.414 68.8623 68.8032 69.6159 68.8032C70.3696 68.8032 70.9807 68.1921 70.9807 67.4384V60.4824H55.5469V64.1228L70.7488 79.3248C70.8952 79.1074 70.9809 78.8455 70.9809 78.5636V77.0152H70.9807Z" fill="url(#paint2_linear)"/>
<path d="M63.2638 21.2744C50.9654 21.2744 40.9951 31.2445 40.9951 43.5431C40.9951 55.8416 50.9652 65.8117 63.2638 65.8117C75.5624 65.8117 85.5324 55.8416 85.5324 43.5431C85.5324 31.2445 75.5624 21.2744 63.2638 21.2744ZM63.2638 41.3986C59.7771 41.3986 56.9498 38.5735 56.9498 35.0846C56.9498 31.598 59.7771 28.7731 63.2638 28.7731C66.7504 28.7731 69.5778 31.5982 69.5778 35.0846C69.5778 38.5735 66.7504 41.3986 63.2638 41.3986Z" fill="url(#paint3_linear)"/>
<path d="M63.2637 25.167C53.1146 25.167 44.8877 33.3938 44.8877 43.543C44.8877 53.6922 53.1146 61.9191 63.2637 61.9191C73.4129 61.9191 81.6398 53.6922 81.6398 43.543C81.6398 33.3938 73.4129 25.167 63.2637 25.167ZM63.2637 41.3986C59.7771 41.3986 56.9497 38.5734 56.9497 35.0846C56.9497 31.5979 59.7771 28.773 63.2637 28.773C66.7504 28.773 69.5777 31.5981 69.5777 35.0846C69.5777 38.5734 66.7504 41.3986 63.2637 41.3986Z" fill="url(#paint4_linear)"/>
<path d="M63.2638 21.2744C50.9654 21.2744 40.9951 31.2445 40.9951 43.5431C40.9951 55.8416 50.9652 65.8117 63.2638 65.8117C75.5624 65.8117 85.5324 55.8416 85.5324 43.5431C85.5324 31.2445 75.5624 21.2744 63.2638 21.2744ZM63.2638 41.3986C59.7771 41.3986 56.9498 38.5735 56.9498 35.0846C56.9498 31.598 59.7771 28.7731 63.2638 28.7731C66.7504 28.7731 69.5778 31.5982 69.5778 35.0846C69.5778 38.5735 66.7504 41.3986 63.2638 41.3986Z" fill="url(#paint5_linear)"/>
<path d="M26.8466 78.7122L28.3705 77.1883C28.7893 76.7695 29.3781 76.568 29.9657 76.6421C31.2076 76.799 32.264 75.7426 32.1071 74.5007C32.033 73.9131 32.2345 73.3243 32.6533 72.9055L34.1772 71.3816C34.7103 70.8486 35.5743 70.8486 36.1072 71.3816C36.6402 71.9146 37.5043 71.9146 38.0371 71.3816L39.1318 70.2869C39.6648 69.7539 39.6648 68.8898 39.1318 68.357C38.5988 67.824 38.5988 66.9599 39.1318 66.427L42.0438 63.515C42.5768 62.982 43.4409 62.982 43.9737 63.515C44.5068 64.0481 45.3708 64.0481 45.9037 63.515L50.8222 58.5965L39.9088 47.6831L15.0633 72.5286C14.0786 73.5133 13.4889 74.8246 13.4058 76.2147L13.0368 82.3825C12.9324 84.1282 14.3771 85.5729 16.1228 85.4685L22.2906 85.0995C23.6807 85.0164 24.992 84.4267 25.9767 83.442L26.8466 82.5721C27.3796 82.0391 27.3796 81.1752 26.8466 80.6422C26.3136 80.1092 26.3136 79.2453 26.8466 78.7122Z" fill="url(#paint6_linear)"/>
<path d="M47.1069 54.8801L21.3224 80.6646C20.3609 81.6261 18.8022 81.6261 17.8407 80.6646C16.8793 79.7031 16.8793 78.1444 17.8407 77.1829L43.6252 51.3984L47.1069 54.8801Z" fill="url(#paint7_linear)"/>
<path d="M73.0893 25.4162C64.3931 16.72 50.2932 16.72 41.5967 25.4162C32.9003 34.1125 32.9005 48.2124 41.5967 56.9088C50.293 65.6053 64.3929 65.6051 73.0893 56.9088C81.7858 48.2126 81.7858 34.1125 73.0893 25.4162ZM58.8596 39.646C56.3941 37.1806 56.3925 33.1838 58.8596 30.7167C61.325 28.2512 65.3218 28.2531 67.7872 30.7183C70.2527 33.1838 70.2543 37.1806 67.7889 39.646C65.3218 42.1131 61.3248 42.1114 58.8596 39.646Z" fill="url(#paint8_linear)"/>
<path d="M70.337 28.1681C63.1603 20.9915 51.5259 20.9915 44.3493 28.1681C37.1726 35.3448 37.1726 46.9792 44.3493 54.1558C51.5259 61.3325 63.1603 61.3325 70.337 54.1558C77.5136 46.9792 77.5136 35.3446 70.337 28.1681ZM58.8597 39.6455C56.3942 37.18 56.3926 33.1832 58.8597 30.7161C61.3251 28.2507 65.3219 28.2525 67.7873 30.7178C70.2528 33.1832 70.2544 37.18 67.789 39.6455C65.3219 42.1125 61.3249 42.1109 58.8597 39.6455Z" fill="url(#paint9_linear)"/>
<path d="M67.262 40.1167L82.2805 55.1352C84.3434 51.7583 85.5326 47.7897 85.5326 43.543C85.5326 40.5861 84.9549 37.7645 83.9084 35.1831C81.9657 37.0338 77.0694 40.3868 67.262 40.1167Z" fill="url(#paint10_linear)"/>
<path d="M71.6698 0C60.6796 0 51.6996 8.78397 51.3823 19.7023C54.3359 18.8852 57.4223 18.6871 60.4409 19.1102C61.0353 13.4396 65.8437 9.00468 71.6698 9.00468C77.8987 9.00468 82.9639 14.0721 82.9639 20.2988C82.9639 24.6727 80.4628 28.475 76.8183 30.3502C75.2739 31.1449 73.5225 31.5929 71.6698 31.5929C70.4046 31.5929 69.1889 31.3835 68.0522 30.9985H68.0499C66.7173 30.5459 65.4972 29.8505 64.4392 28.9679C62.4761 28.6144 60.3781 29.1974 58.8608 30.7148C57.832 31.7436 57.2333 33.0379 57.0643 34.3752C59.7792 37.1982 63.3068 39.2354 67.262 40.1156C68.6826 40.4308 70.1571 40.5973 71.6698 40.5973C74.4477 40.5973 77.0972 40.0367 79.5106 39.0215C86.8223 35.9487 91.9685 28.7134 91.9685 20.2986C91.9685 9.10597 82.8626 0 71.6698 0V0Z" fill="url(#paint11_linear)"/>
<path d="M87.2883 20.2996C87.2883 11.6768 80.2982 4.68652 71.6752 4.68652C63.5144 4.68652 56.8202 10.9486 56.1257 18.9293C57.5651 18.851 59.0106 18.9103 60.4408 19.1108C61.0352 13.4402 65.8436 9.00532 71.6696 9.00532C77.8986 9.00532 82.9637 14.0727 82.9637 20.2994C82.9637 24.6734 80.4627 28.4756 76.8181 30.3508C75.2738 31.1455 73.5224 31.5935 71.6696 31.5935C70.4045 31.5935 69.1888 31.3841 68.0521 30.9991H68.0498C66.7171 30.5466 65.4971 29.8511 64.4391 28.9685C62.7562 28.6654 60.9751 29.0529 59.5448 30.1251C62.4074 33.6548 66.7771 35.9123 71.6754 35.9123C80.2982 35.9127 87.2883 28.9226 87.2883 20.2996Z" fill="url(#paint12_linear)"/>
</g>
<defs>
<linearGradient id="paint0_linear" x1="56.5061" y1="82.7415" x2="68.8401" y2="82.7415" gradientUnits="userSpaceOnUse">
<stop stop-color="#FFDA2D"/>
<stop offset="1" stop-color="#FDBF00"/>
</linearGradient>
<linearGradient id="paint1_linear" x1="68.3953" y1="79.9457" x2="60.5893" y2="79.9457" gradientUnits="userSpaceOnUse">
<stop stop-color="#FFDA2D"/>
<stop offset="1" stop-color="#FDBF00"/>
</linearGradient>
<linearGradient id="paint2_linear" x1="67.8053" y1="73.7275" x2="63.0029" y2="61.6463" gradientUnits="userSpaceOnUse">
<stop stop-color="#FF9100" stop-opacity="0"/>
<stop offset="1" stop-color="#FF9100"/>
</linearGradient>
<linearGradient id="paint3_linear" x1="53.2511" y1="53.5557" x2="98.2899" y2="8.51692" gradientUnits="userSpaceOnUse">
<stop stop-color="#FFDA2D"/>
<stop offset="1" stop-color="#FDBF00"/>
</linearGradient>
<linearGradient id="paint4_linear" x1="72.0944" y1="34.7123" x2="29.4741" y2="77.3327" gradientUnits="userSpaceOnUse">
<stop stop-color="#FFDA2D"/>
<stop offset="1" stop-color="#FDBF00"/>
</linearGradient>
<linearGradient id="paint5_linear" x1="80.044" y1="60.3233" x2="64.9419" y2="45.2212" gradientUnits="userSpaceOnUse">
<stop stop-color="#FF9100" stop-opacity="0"/>
<stop offset="1" stop-color="#FF9100"/>
</linearGradient>
<linearGradient id="paint6_linear" x1="24.8191" y1="64.1197" x2="33.5391" y2="72.8397" gradientUnits="userSpaceOnUse">
<stop stop-color="#FFDA2D"/>
<stop offset="1" stop-color="#FDBF00"/>
</linearGradient>
<linearGradient id="paint7_linear" x1="35.2019" y1="70.5482" x2="29.6831" y2="65.0293" gradientUnits="userSpaceOnUse">
<stop stop-color="#FFDA2D"/>
<stop offset="1" stop-color="#FDBF00"/>
</linearGradient>
<linearGradient id="paint8_linear" x1="43.1519" y1="41.1847" x2="106.837" y2="41.1847" gradientUnits="userSpaceOnUse">
<stop stop-color="#FFDA2D"/>
<stop offset="1" stop-color="#FDBF00"/>
</linearGradient>
<linearGradient id="paint9_linear" x1="69.7963" y1="41.1841" x2="9.53142" y2="41.1841" gradientUnits="userSpaceOnUse">
<stop stop-color="#FFDA2D"/>
<stop offset="1" stop-color="#FDBF00"/>
</linearGradient>
<linearGradient id="paint10_linear" x1="79.0306" y1="48.1438" x2="75.879" y2="38.4638" gradientUnits="userSpaceOnUse">
<stop stop-color="#FF9100" stop-opacity="0"/>
<stop offset="1" stop-color="#FF9100"/>
</linearGradient>
<linearGradient id="paint11_linear" x1="51.3823" y1="20.2988" x2="91.9685" y2="20.2988" gradientUnits="userSpaceOnUse">
<stop stop-color="#0B799D"/>
<stop offset="1" stop-color="#07485E"/>
</linearGradient>
<linearGradient id="paint12_linear" x1="91.8078" y1="40.4304" x2="56.8193" y2="5.44193" gradientUnits="userSpaceOnUse">
<stop stop-color="#0B799D"/>
<stop offset="1" stop-color="#07485E"/>
</linearGradient>
<clipPath id="clip0">
<rect width="105" height="105" fill="white"/>
</clipPath>
</defs>
</svg>
