<svg width="203" height="203" viewBox="0 0 203 203" fill="none" xmlns="http://www.w3.org/2000/svg">
<path d="M101.5 196.656C154.053 196.656 196.656 154.053 196.656 101.5C196.656 48.9467 154.053 6.34375 101.5 6.34375C48.9467 6.34375 6.34375 48.9467 6.34375 101.5C6.34375 154.053 48.9467 196.656 101.5 196.656Z" fill="#382B73"/>
<path d="M101.5 182.779C146.389 182.779 182.779 146.389 182.779 101.5C182.779 56.6107 146.389 20.2207 101.5 20.2207C56.6107 20.2207 20.2207 56.6107 20.2207 101.5C20.2207 146.389 56.6107 182.779 101.5 182.779Z" fill="#473080"/>
<path d="M132.927 86.1707L142.597 88.0548H142.599L142.767 88.0873C145.207 88.5623 147.571 87.0271 148.15 84.6348C148.157 84.6102 148.162 84.5856 148.168 84.561C148.17 84.5499 148.172 84.5396 148.175 84.5285C148.181 84.4999 148.187 84.4714 148.193 84.4429C148.194 84.4381 148.195 84.4333 148.196 84.4286C148.197 84.4246 148.198 84.4199 148.199 84.4159C148.205 84.3842 148.211 84.3525 148.216 84.3207C148.218 84.308 148.22 84.2954 148.222 84.2819C148.226 84.2629 148.229 84.243 148.231 84.224C148.596 81.788 146.979 79.4749 144.538 78.9999L122.87 74.7782L103.285 70.9624C103.681 70.558 104.159 70.2265 104.596 69.8054C105.68 68.7611 106.75 67.6494 107.877 66.6169C107.877 66.6169 107.877 66.6161 107.878 66.6161C107.962 66.5392 108.044 66.4615 108.124 66.3822C108.332 66.1768 108.529 65.9627 108.714 65.7407C108.759 65.6868 108.803 65.632 108.847 65.5765C109.052 65.318 109.242 65.05 109.415 64.7741C109.445 64.7273 109.473 64.6805 109.502 64.6337C109.548 64.5568 109.593 64.4799 109.637 64.4022C109.664 64.3546 109.69 64.3062 109.717 64.2578C109.847 64.0168 109.966 63.7702 110.073 63.5188C110.094 63.4688 110.115 63.4181 110.135 63.3673C110.197 63.2159 110.254 63.0628 110.307 62.9082C110.325 62.8567 110.342 62.8051 110.359 62.7528C110.962 60.8877 110.953 58.8347 110.254 56.9118C110.253 56.9078 110.251 56.9038 110.25 56.8999C110.239 56.8713 110.228 56.8436 110.217 56.8158C110.213 56.8055 110.208 56.7944 110.204 56.7841C110.193 56.7603 110.183 56.7373 110.172 56.7135C110.168 56.7056 110.165 56.6969 110.161 56.6882C110.146 56.658 110.132 56.6287 110.117 56.6001C110.112 56.5922 110.108 56.5835 110.104 56.5748C110.092 56.5526 110.079 56.5304 110.066 56.5082C110.062 56.4994 110.057 56.4907 110.051 56.4828C110.035 56.4542 110.017 56.4265 110 56.3995C109.997 56.3948 109.993 56.39 109.99 56.3852C109.974 56.3622 109.959 56.3385 109.943 56.3155C109.937 56.3083 109.932 56.3004 109.927 56.2933C109.908 56.2679 109.889 56.2417 109.87 56.2171C109.869 56.2163 109.868 56.2155 109.867 56.2148C109.847 56.1886 109.826 56.164 109.805 56.1394C109.799 56.1331 109.793 56.1259 109.787 56.1196C109.77 56.099 109.752 56.0792 109.733 56.0593C109.729 56.0546 109.725 56.0506 109.72 56.0459C109.697 56.0221 109.674 55.9983 109.65 55.9761C109.647 55.9729 109.643 55.9689 109.639 55.9658C109.618 55.9459 109.597 55.9261 109.576 55.9071C109.571 55.9031 109.566 55.8992 109.561 55.8944C109.536 55.8722 109.51 55.8508 109.485 55.8302C109.484 55.8294 109.483 55.8286 109.482 55.8278C109.457 55.8088 109.433 55.7897 109.408 55.7715C109.403 55.7675 109.397 55.7628 109.392 55.7588C109.338 55.7199 109.284 55.6835 109.228 55.6494C109.223 55.6462 109.219 55.6438 109.214 55.6406C109.187 55.624 109.16 55.6089 109.133 55.5939C109.131 55.5931 109.13 55.5923 109.129 55.5915C109.099 55.5748 109.069 55.559 109.039 55.5439C109.036 55.5423 109.034 55.5415 109.032 55.5407C109.004 55.5265 108.975 55.513 108.946 55.5003C108.943 55.4995 108.94 55.4979 108.937 55.4963C108.875 55.4686 108.812 55.444 108.748 55.4218C108.745 55.421 108.743 55.4202 108.741 55.4194C108.676 55.3972 108.61 55.3774 108.545 55.3607C108.542 55.3607 108.541 55.3599 108.538 55.3591C108.438 55.3338 108.335 55.3139 108.232 55.3013C108.231 55.3013 108.231 55.3013 108.229 55.3013C108.159 55.2925 108.089 55.287 108.02 55.2846H108.019C107.387 55.26 106.739 55.4749 106.224 55.9642C99.8268 62.0439 90.2453 62.1192 83.6922 67.827C82.8152 68.5914 82.0238 69.4851 81.4116 70.4755L80.5449 70.3066L80.8629 68.6755C81.0786 67.5677 80.3554 66.4948 79.2476 66.2791L70.8913 64.6511L54.9495 61.5451C54.1399 61.3873 53.3548 61.9154 53.197 62.7258L45.7447 100.978C45.7114 101.151 45.709 101.323 45.7336 101.488C45.7487 101.588 45.7741 101.686 45.8081 101.78C45.8169 101.802 45.8256 101.825 45.8351 101.847C45.9533 102.126 46.1555 102.366 46.4156 102.529C46.4322 102.539 46.4489 102.549 46.4655 102.559C46.4885 102.572 46.5115 102.584 46.5353 102.596C46.6558 102.657 46.7859 102.703 46.9254 102.73L60.8619 105.445C61.589 105.587 62.3003 105.324 62.765 104.814C62.8094 104.766 62.8514 104.714 62.8911 104.662C62.9109 104.636 62.9299 104.609 62.949 104.581C63.0972 104.361 63.2051 104.108 63.259 103.831L63.761 101.255L72.118 102.883C72.3258 102.923 72.532 102.93 72.7318 102.909C72.7984 102.902 72.8642 102.891 72.9293 102.877C73.1568 102.829 73.3725 102.743 73.5676 102.624C73.6231 102.59 73.6778 102.553 73.7302 102.515C73.7603 102.492 73.7896 102.469 73.8182 102.445C71.8595 105.273 70.0579 108.18 69.1753 111.563C68.916 112.558 68.7686 113.6 68.7749 114.631L68.0969 114.923L67.4395 113.397C66.9931 112.36 65.791 111.882 64.7545 112.328L56.9351 115.696L69.1206 143.99L56.9351 115.696L42.0178 122.121C41.2597 122.447 40.91 123.326 41.2367 124.084L56.652 159.876C56.744 160.09 56.8796 160.27 57.0437 160.413C57.0802 160.445 57.1183 160.475 57.1571 160.503C57.4117 160.684 57.7193 160.782 58.0349 160.78H58.0373C58.0833 160.78 58.1293 160.777 58.1753 160.773C58.3236 160.758 58.4719 160.721 58.6162 160.658L71.6565 155.042C72.2069 154.805 72.6002 154.354 72.781 153.828C72.8127 153.736 72.8381 153.64 72.8563 153.544C72.8626 153.512 72.8674 153.479 72.8722 153.446C72.9221 153.089 72.8777 152.713 72.7247 152.356L71.6867 149.945L79.5061 146.578C79.8622 146.424 80.1524 146.181 80.3625 145.887C80.61 145.539 80.7448 145.118 80.7424 144.686C80.7424 144.651 80.7408 144.615 80.7384 144.579C80.7289 144.415 80.6988 144.251 80.648 144.088C80.6274 144.023 80.6028 143.957 80.5751 143.893L79.8138 142.125L81.3807 141.45C81.5092 141.395 81.6392 141.342 81.7693 141.291C81.8827 141.246 81.9961 141.205 82.1102 141.165C82.2791 141.105 82.4481 141.05 82.6193 140.998C82.8501 140.928 83.0824 140.866 83.3164 140.81C83.3473 140.802 83.379 140.796 83.4107 140.788C83.586 140.748 83.762 140.712 83.9396 140.68C84.0205 140.666 84.1014 140.652 84.1831 140.639C84.3107 140.618 84.4392 140.601 84.5677 140.585C84.8515 140.549 85.137 140.525 85.4241 140.51C85.7016 140.495 85.9791 140.491 86.2575 140.497C86.8133 140.508 87.37 140.56 87.9227 140.651C88.4754 140.742 89.0321 140.793 89.5879 140.805C90.4221 140.822 91.2548 140.75 92.0723 140.591C92.3451 140.537 92.6155 140.475 92.8835 140.402C92.9509 140.384 93.0175 140.365 93.0841 140.346C93.2618 140.294 93.4386 140.238 93.6146 140.178C93.728 140.139 93.8406 140.099 93.9524 140.057C94.1237 139.993 94.2942 139.924 94.4623 139.852L111.988 132.303L130.186 124.465L132.263 123.57C132.336 123.539 132.408 123.505 132.48 123.47C132.599 123.412 132.714 123.348 132.825 123.282C132.865 123.257 132.905 123.233 132.944 123.208C133.011 123.165 133.076 123.121 133.139 123.075C133.162 123.059 133.185 123.042 133.207 123.026C133.284 122.968 133.358 122.908 133.431 122.847C133.468 122.816 133.503 122.785 133.538 122.754C133.591 122.706 133.643 122.657 133.694 122.607L133.696 122.604C133.947 122.355 134.165 122.08 134.35 121.785C134.374 121.747 134.398 121.708 134.421 121.67C134.56 121.432 134.679 121.184 134.774 120.927C134.813 120.823 134.847 120.718 134.878 120.611C134.897 120.547 134.914 120.482 134.93 120.417C134.94 120.374 134.951 120.331 134.96 120.287C135.023 119.997 135.057 119.7 135.062 119.4C135.073 118.763 134.953 118.112 134.684 117.489C134.679 117.479 134.675 117.468 134.67 117.457C134.66 117.436 134.652 117.415 134.642 117.395C134.632 117.372 134.621 117.35 134.611 117.328C134.608 117.321 134.604 117.313 134.601 117.306C133.53 115.086 130.888 114.085 128.603 115.069L119.047 119.184L124.586 116.798L131.346 113.887C133.101 113.131 134.149 111.42 134.145 109.624C134.425 107.243 132.825 105.012 130.432 104.545L129.881 104.438L133.365 105.117C135.805 105.592 138.169 104.057 138.748 101.665C138.754 101.637 138.761 101.61 138.767 101.582C138.769 101.575 138.77 101.567 138.772 101.56C138.778 101.531 138.785 101.501 138.79 101.472C138.791 101.467 138.792 101.463 138.793 101.458C138.794 101.454 138.795 101.45 138.796 101.446C138.802 101.414 138.808 101.381 138.813 101.349C138.815 101.338 138.817 101.326 138.819 101.315C138.822 101.294 138.825 101.274 138.828 101.254C139.192 98.8194 137.578 96.5071 135.138 96.0305L138.068 96.6014C138.812 96.7466 139.551 96.7045 140.232 96.5071C140.304 96.4865 140.375 96.4635 140.446 96.4397C140.516 96.4159 140.586 96.3897 140.655 96.362C140.724 96.3342 140.792 96.3057 140.86 96.2747C140.928 96.2438 140.995 96.2121 141.061 96.178C141.127 96.1439 141.192 96.109 141.256 96.0717C141.416 95.9798 141.572 95.8775 141.72 95.7672C142.017 95.546 142.288 95.2891 142.525 95.0012C142.549 94.9727 142.572 94.9433 142.596 94.914C143.034 94.3558 143.35 93.6873 143.496 92.9427C143.5 92.9237 143.502 92.9046 143.506 92.8856C143.508 92.8713 143.511 92.857 143.514 92.842C143.519 92.8158 143.522 92.7896 143.526 92.7643C143.527 92.7579 143.529 92.7516 143.53 92.7444C143.898 90.3069 142.281 87.9898 139.838 87.514L123.759 84.3818L132.927 86.1707ZM74.5104 101.269L74.8784 99.38L75.841 99.5679C75.3724 100.236 74.8982 100.902 74.428 101.569C74.4629 101.473 74.4898 101.372 74.5104 101.269Z" fill="#382B73"/>
<path d="M119.016 63.2795C119.097 63.3944 119.188 63.5023 119.286 63.603C119.301 63.6188 119.316 63.6339 119.332 63.649C119.371 63.6862 119.41 63.7227 119.451 63.7584C119.468 63.7727 119.484 63.7862 119.501 63.8004C119.546 63.8377 119.593 63.8742 119.641 63.9083C119.681 63.9368 119.722 63.9646 119.764 63.9915C119.782 64.0034 119.8 64.0145 119.819 64.0264C119.875 64.0605 119.932 64.0922 119.99 64.1216C120.009 64.1311 120.028 64.1414 120.048 64.1509C120.088 64.17 120.127 64.1882 120.168 64.2048C120.269 64.2477 120.373 64.2841 120.48 64.3143C120.522 64.3262 120.565 64.3373 120.609 64.3476C120.805 64.3928 121.008 64.4166 121.218 64.4166C121.334 64.4166 121.449 64.4094 121.561 64.3952C121.606 64.3896 121.651 64.3825 121.695 64.3745C121.717 64.3706 121.74 64.3666 121.761 64.3619C121.805 64.3531 121.848 64.3428 121.892 64.3317C121.978 64.3095 122.062 64.2833 122.146 64.2532C122.269 64.208 122.389 64.1533 122.504 64.0914C122.523 64.0811 122.542 64.0708 122.561 64.0597C122.611 64.0312 122.66 64.0003 122.708 63.9685C122.75 63.9408 122.792 63.9114 122.832 63.8813C122.927 63.8099 123.018 63.733 123.103 63.6498C123.119 63.6347 123.134 63.6196 123.149 63.6038C123.217 63.534 123.281 63.461 123.341 63.3849C123.355 63.3683 123.368 63.3508 123.381 63.3334C123.717 62.883 123.917 62.3247 123.917 61.7189V57.984V57.988V56.0182C123.917 54.5282 122.709 53.3206 121.219 53.3206C119.729 53.3206 118.522 54.5282 118.522 56.0182V57.988C118.522 57.9864 118.522 57.9848 118.522 57.984V61.7189C118.522 62.2621 118.683 62.768 118.959 63.1914C118.975 63.2208 118.994 63.2509 119.016 63.2795Z" fill="#382B73"/>
<path d="M123.913 137.915C123.913 136.425 122.705 135.217 121.216 135.217C119.726 135.217 118.518 136.425 118.518 137.915V140.009C118.518 140.008 118.518 140.007 118.518 140.005V143.616C118.518 144.175 118.688 144.693 118.979 145.124C118.99 145.142 119.003 145.16 119.016 145.177C119.097 145.292 119.188 145.4 119.286 145.501L119.332 145.546C119.371 145.584 119.41 145.62 119.451 145.656C119.468 145.67 119.484 145.684 119.501 145.698C119.625 145.8 119.758 145.891 119.899 145.971C119.917 145.98 119.933 145.99 119.951 145.999C120.132 146.096 120.326 146.172 120.529 146.226C120.538 146.228 120.546 146.231 120.555 146.232C120.767 146.286 120.988 146.314 121.216 146.314C121.72 146.314 122.191 146.176 122.594 145.936C122.613 145.925 122.632 145.914 122.65 145.903C122.734 145.849 122.815 145.792 122.892 145.731C122.965 145.673 123.035 145.612 123.1 145.547C123.116 145.532 123.131 145.517 123.146 145.501C123.215 145.432 123.279 145.359 123.339 145.282C123.353 145.266 123.365 145.248 123.379 145.231C123.715 144.78 123.915 144.222 123.915 143.616V140.006V140.01V137.915H123.913Z" fill="#382B73"/>
<path d="M167.713 99.8169C167.713 99.7892 167.712 99.7606 167.711 99.7337C167.711 99.7258 167.71 99.7178 167.71 99.7107C167.71 99.6909 167.709 99.671 167.707 99.6512C167.706 99.6417 167.706 99.633 167.706 99.6243C167.704 99.5997 167.702 99.5759 167.699 99.5513C167.699 99.5489 167.699 99.5457 167.699 99.5434C167.696 99.5164 167.693 99.4902 167.689 99.4633C167.688 99.4553 167.687 99.4466 167.686 99.4379C167.684 99.4189 167.68 99.399 167.677 99.38C167.676 99.3721 167.675 99.3642 167.673 99.3562C167.669 99.3324 167.664 99.3087 167.66 99.2849C167.659 99.2825 167.659 99.2801 167.658 99.2777C167.653 99.2508 167.647 99.2246 167.641 99.1984C167.639 99.1913 167.638 99.1842 167.636 99.1778C167.631 99.1596 167.627 99.1405 167.622 99.1223C167.619 99.1136 167.617 99.1049 167.615 99.0953C167.609 99.0755 167.603 99.0549 167.597 99.0351C167.595 99.0303 167.594 99.0248 167.592 99.0192C167.584 98.9938 167.576 98.9685 167.567 98.9431C167.565 98.9391 167.564 98.9352 167.563 98.9312C167.556 98.9106 167.549 98.89 167.541 98.8693C167.538 98.8622 167.535 98.8551 167.533 98.8479C167.525 98.8281 167.517 98.8083 167.509 98.7893C167.507 98.7845 167.505 98.7797 167.503 98.7742C167.492 98.7496 167.481 98.725 167.471 98.7012C167.469 98.6981 167.468 98.6949 167.466 98.6917C167.457 98.6703 167.446 98.6489 167.436 98.6275C167.434 98.6235 167.432 98.6188 167.43 98.6148C167.419 98.5942 167.408 98.5728 167.397 98.5522C167.396 98.549 167.393 98.545 167.392 98.5418C166.937 97.6958 166.043 97.1208 165.014 97.1208H159.314C158.315 97.1208 157.443 97.6632 156.977 98.4697C156.511 99.2761 156.977 98.4705 156.976 98.4705C156.963 98.4943 156.949 98.5173 156.936 98.5418C156.934 98.5458 156.932 98.549 156.931 98.5529C156.921 98.5728 156.91 98.5926 156.9 98.6132C156.897 98.6188 156.894 98.6251 156.891 98.6307C156.881 98.6513 156.871 98.6719 156.862 98.6925C156.86 98.6957 156.859 98.6989 156.857 98.7028C156.846 98.7274 156.835 98.7512 156.825 98.7758C156.822 98.7805 156.821 98.7853 156.818 98.7908C156.81 98.8107 156.802 98.8297 156.794 98.8495C156.792 98.8567 156.789 98.8638 156.787 98.8709C156.779 98.8915 156.771 98.9122 156.764 98.9328C156.763 98.9367 156.761 98.9407 156.76 98.9447C156.752 98.9701 156.744 98.9954 156.736 99.0208C156.734 99.0264 156.733 99.0311 156.731 99.0367C156.725 99.0565 156.719 99.0771 156.714 99.0969C156.711 99.1057 156.709 99.1152 156.706 99.1239C156.702 99.1405 156.698 99.158 156.694 99.1746C156.691 99.1834 156.689 99.1929 156.687 99.2016C156.682 99.227 156.676 99.2516 156.671 99.2769C156.67 99.2825 156.668 99.288 156.668 99.2936C156.664 99.3142 156.66 99.334 156.656 99.3554C156.655 99.3649 156.653 99.3753 156.652 99.3848C156.649 99.4014 156.646 99.4181 156.645 99.4347C156.643 99.445 156.641 99.4553 156.64 99.4657C156.637 99.491 156.633 99.5164 156.631 99.5418C156.63 99.5481 156.63 99.5553 156.63 99.5616C156.628 99.5814 156.626 99.602 156.625 99.6219C156.624 99.633 156.623 99.6441 156.622 99.6552C156.622 99.6726 156.621 99.6893 156.62 99.7067C156.619 99.717 156.619 99.7265 156.619 99.7361C156.618 99.7599 156.618 99.7828 156.618 99.8066V99.8177C156.618 100.585 156.939 101.278 157.453 101.769C157.536 101.849 157.624 101.921 157.716 101.99C157.753 102.017 157.79 102.044 157.829 102.069C158.256 102.351 158.767 102.515 159.316 102.515H165.017C165.832 102.515 166.562 102.155 167.056 101.584C167.071 101.567 167.084 101.55 167.098 101.534C167.222 101.384 167.33 101.22 167.419 101.046C167.429 101.027 167.439 101.007 167.449 100.987C167.618 100.633 167.713 100.236 167.713 99.8169Z" fill="#382B73"/>
<path d="M153.999 66.8484C153.996 66.8452 153.993 66.8428 153.99 66.8397C153.958 66.8111 153.926 66.7842 153.894 66.7572C153.89 66.754 153.886 66.7509 153.882 66.7477C153.851 66.7223 153.819 66.6985 153.787 66.6747C153.785 66.6724 153.782 66.6708 153.78 66.6692C153.749 66.6462 153.717 66.6248 153.685 66.6034C153.676 66.597 153.667 66.5907 153.657 66.5851C153.628 66.5661 153.598 66.5471 153.568 66.5296C153.556 66.5225 153.544 66.5153 153.532 66.509C153.511 66.4971 153.491 66.4852 153.469 66.4741C153.45 66.4638 153.431 66.4535 153.411 66.4432C153.39 66.4329 153.37 66.4226 153.348 66.4123C153.331 66.4035 153.312 66.3956 153.294 66.3869C153.278 66.3797 153.262 66.3726 153.246 66.3655C153.217 66.3536 153.188 66.3417 153.159 66.3306C153.146 66.325 153.132 66.3203 153.12 66.3155C153.087 66.3036 153.054 66.2917 153.021 66.2814C153.01 66.2782 152.998 66.2743 152.987 66.2711C152.062 65.9841 151.012 66.2069 150.279 66.9396L146.248 70.9702C145.478 71.7402 145.272 72.8591 145.627 73.817C145.63 73.8257 145.633 73.8345 145.637 73.844C145.651 73.8796 145.666 73.9153 145.681 73.951C145.686 73.9621 145.69 73.9732 145.695 73.9843C145.704 74.0034 145.713 74.0232 145.722 74.0422C145.73 74.0589 145.739 74.0755 145.747 74.0922C145.759 74.1167 145.772 74.1413 145.786 74.1659C145.795 74.1834 145.805 74.2016 145.815 74.219C145.823 74.2333 145.831 74.2476 145.84 74.2619C145.856 74.2896 145.874 74.3182 145.892 74.3459C145.9 74.3578 145.907 74.3689 145.915 74.3808C145.935 74.4101 145.955 74.4403 145.976 74.4688C145.98 74.4744 145.985 74.4807 145.989 74.4863C146.01 74.514 146.031 74.541 146.053 74.5687C146.058 74.5751 146.063 74.5822 146.069 74.5886C146.094 74.6195 146.119 74.6496 146.146 74.679C146.151 74.6845 146.156 74.6893 146.161 74.6948C146.189 74.7257 146.218 74.7567 146.248 74.7868C147.302 75.8407 149.009 75.8407 150.063 74.7868L154.094 70.7553C154.391 70.4588 154.603 70.1107 154.733 69.7403C154.791 69.5754 154.833 69.4065 154.857 69.2352C154.863 69.1892 154.869 69.1432 154.873 69.0973C154.944 68.3265 154.685 67.5303 154.094 66.9404C154.063 66.9079 154.031 66.8777 153.999 66.8484Z" fill="#382B73"/>
<path d="M154.095 128.879L150.063 124.848C149.339 124.124 148.306 123.897 147.388 124.168C147.349 124.18 147.311 124.192 147.273 124.206C147.267 124.208 147.262 124.21 147.256 124.212C147.219 124.225 147.181 124.239 147.145 124.254C147.14 124.256 147.136 124.258 147.131 124.26C147.097 124.274 147.063 124.288 147.03 124.304C147.025 124.306 147.02 124.308 147.016 124.31C146.981 124.326 146.946 124.344 146.912 124.362C146.904 124.366 146.897 124.37 146.89 124.374C146.855 124.392 146.82 124.412 146.786 124.432C146.752 124.452 146.718 124.474 146.684 124.495C146.677 124.5 146.671 124.504 146.664 124.509C146.631 124.53 146.599 124.553 146.567 124.576C146.561 124.58 146.556 124.584 146.551 124.588C146.522 124.609 146.493 124.631 146.465 124.654C146.461 124.658 146.455 124.662 146.45 124.666C146.419 124.692 146.389 124.718 146.359 124.745C146.353 124.75 146.346 124.756 146.341 124.762C146.31 124.789 146.28 124.818 146.25 124.848C146.053 125.045 145.892 125.266 145.769 125.501C145.749 125.54 145.729 125.58 145.71 125.62C145.655 125.74 145.608 125.863 145.572 125.988C145.534 126.114 145.507 126.24 145.488 126.369C145.47 126.497 145.461 126.627 145.461 126.756C145.461 127.231 145.585 127.705 145.834 128.127C145.857 128.165 145.881 128.203 145.906 128.24C146.004 128.39 146.12 128.532 146.251 128.664L148.267 130.679L150.283 132.695C150.349 132.761 150.417 132.823 150.487 132.88C150.664 133.024 150.854 133.142 151.054 133.235C151.214 133.31 151.379 133.367 151.548 133.408C151.59 133.418 151.632 133.428 151.675 133.436C152.008 133.5 152.351 133.501 152.684 133.44C152.734 133.43 152.783 133.42 152.833 133.408C153.002 133.367 153.167 133.309 153.326 133.235C153.366 133.217 153.405 133.197 153.445 133.177C153.68 133.053 153.9 132.893 154.098 132.695C154.129 132.665 154.157 132.634 154.186 132.603C154.19 132.598 154.195 132.592 154.201 132.587C154.228 132.556 154.255 132.526 154.28 132.494C154.284 132.489 154.288 132.484 154.292 132.48C154.315 132.45 154.338 132.421 154.36 132.391C154.363 132.387 154.367 132.383 154.37 132.378C154.393 132.346 154.416 132.314 154.438 132.281C154.443 132.274 154.447 132.267 154.452 132.259C154.474 132.227 154.494 132.193 154.514 132.16C154.515 132.159 154.515 132.158 154.516 132.158C154.535 132.123 154.554 132.09 154.573 132.055C154.577 132.047 154.581 132.039 154.585 132.032C154.602 131.998 154.619 131.964 154.635 131.93C154.638 131.924 154.641 131.917 154.644 131.91C154.658 131.878 154.672 131.847 154.685 131.815C154.688 131.809 154.69 131.803 154.692 131.798C154.707 131.762 154.72 131.726 154.733 131.691C154.735 131.683 154.738 131.675 154.741 131.667C154.753 131.63 154.765 131.594 154.776 131.556V131.556C154.776 131.556 154.776 131.556 154.776 131.555C155.045 130.637 154.819 129.603 154.095 128.879Z" fill="#382B73"/>
<path d="M79.2453 60.7317L70.889 59.1038L63.7578 95.7064L72.1149 97.3344C73.2227 97.5501 74.2956 96.8269 74.5113 95.7199L80.8606 63.1289C81.0755 62.0203 80.3523 60.9474 79.2453 60.7317Z" fill="#009ADD"/>
<path d="M75.7563 89.321C75.5407 90.4288 74.2751 91.148 73.1673 90.9324L64.9966 89.3409L63.7563 95.706L72.1134 97.334C73.2212 97.5497 74.2941 96.8265 74.5098 95.7195L75.7563 89.321Z" fill="#136DA0"/>
<path d="M46.9224 97.1832L60.8589 99.8983C61.9666 100.114 63.0395 99.3908 63.2552 98.2839L70.8883 59.1049L54.9465 55.9988C54.1369 55.841 53.3518 56.3699 53.194 57.1795L45.7417 95.4315C45.5839 96.2404 46.1128 97.0254 46.9224 97.1832Z" fill="#1CAEE4"/>
<path d="M64.7151 90.7911C64.4994 91.8989 63.2584 92.5721 62.1506 92.3565L48.2142 89.6413C47.6488 89.5311 47.2262 89.1124 47.0731 88.5962L45.7417 95.4292C45.5839 96.2388 46.1128 97.0231 46.9224 97.1809L60.8589 99.896C61.9666 100.112 63.0395 99.3885 63.2552 98.2807L64.7151 90.7911Z" fill="#009ADD"/>
<path d="M144.536 73.4514L122.867 69.2297L95.3386 63.8668C93.1381 63.4378 90.8615 63.6495 88.7776 64.4758C86.6937 65.3021 84.417 65.5138 82.2165 65.0848L80.5418 64.7589L74.8784 93.8299L76.5532 94.1558C78.7537 94.5848 80.7844 95.6355 82.4061 97.1834C84.0269 98.7321 86.0585 99.7827 88.2582 100.211L118.444 106.092L128.657 108.081C131.166 108.57 133.596 106.932 134.085 104.423C134.574 101.914 132.936 99.4838 130.427 98.9953L120.215 97.0058L133.36 99.5671C135.869 100.056 138.299 98.418 138.789 95.9091C139.278 93.4001 137.64 90.9697 135.131 90.4804L121.986 87.9191L138.063 91.0514C140.572 91.5398 143.002 89.9023 143.492 87.3934C143.98 84.8844 142.343 82.454 139.834 81.9647L123.755 78.8325L142.766 82.5365C145.275 83.0249 147.705 81.3875 148.195 78.8785C148.683 76.3703 147.045 73.9399 144.536 73.4514Z" fill="white"/>
<path d="M144.536 73.4514L122.867 69.2297L95.3386 63.8668C93.1381 63.4378 90.8615 63.6495 88.7776 64.4758C86.6937 65.3021 84.417 65.5138 82.2165 65.0848L80.5418 64.7589L74.8784 93.8299L76.5532 94.1558C78.7537 94.5848 80.7844 95.6355 82.4061 97.1834C84.0269 98.7321 86.0585 99.7827 88.2582 100.211L118.444 106.092L128.657 108.081C131.166 108.57 133.596 106.932 134.085 104.423C134.574 101.914 132.936 99.4838 130.427 98.9953L120.215 97.0058L133.36 99.5671C135.869 100.056 138.299 98.418 138.789 95.9091C139.278 93.4001 137.64 90.9697 135.131 90.4804L121.986 87.9191L138.063 91.0514C140.572 91.5398 143.002 89.9023 143.492 87.3934C143.98 84.8844 142.343 82.454 139.834 81.9647L123.755 78.8325L142.766 82.5365C145.275 83.0249 147.705 81.3875 148.195 78.8785C148.683 76.3703 147.045 73.9399 144.536 73.4514Z" fill="#D1D3D4"/>
<path d="M82.9771 94.2526C81.3562 92.704 79.3247 91.6533 77.1242 91.2251L75.4494 90.8992L74.8777 93.8324L76.5524 94.1583C78.7529 94.5873 80.7837 95.638 82.4053 97.1858C84.0262 98.7345 86.0578 99.7852 88.2582 100.213L118.444 106.094L119.016 103.161L88.83 97.2802C86.6295 96.852 84.5987 95.8013 82.9771 94.2526Z" fill="#BCBEC0"/>
<path d="M143.337 79.6057L123.135 75.6702C122.325 75.5124 121.541 76.0413 121.382 76.8509C121.224 77.6605 121.753 78.4456 122.563 78.6034L142.596 82.5064C144.748 82.9258 146.986 81.8791 147.878 79.8761C148.253 79.0316 148.343 78.1744 148.232 77.3671C147.274 79.0355 145.333 79.9942 143.337 79.6057Z" fill="#BCBEC0"/>
<path d="M138.634 88.1214L118.431 84.1851C117.622 84.0273 116.837 84.5562 116.679 85.3658C116.521 86.1754 117.05 86.9605 117.86 87.1183L138.062 91.0546C140.571 91.543 143.002 89.9055 143.491 87.3966C143.591 86.8827 143.597 86.3737 143.53 85.882C142.572 87.5512 140.63 88.5099 138.634 88.1214Z" fill="#BCBEC0"/>
<path d="M133.932 96.6358L113.729 92.6995C112.92 92.5417 112.135 93.0706 111.978 93.8802C111.82 94.6898 112.349 95.4749 113.158 95.6327L133.191 99.5357C135.343 99.9551 137.582 98.9084 138.474 96.9054C138.85 96.0609 138.939 95.2037 138.828 94.3964C137.869 96.0656 135.927 97.0243 133.932 96.6358Z" fill="#BCBEC0"/>
<path d="M129.228 105.15L107.56 100.928L106.988 103.861L128.657 108.083C131.166 108.572 133.596 106.934 134.085 104.425C134.185 103.911 134.192 103.402 134.124 102.911C133.166 104.58 131.224 105.539 129.228 105.15Z" fill="#BCBEC0"/>
<path d="M110.252 51.3644C109.642 49.688 107.513 49.1869 106.22 50.416C99.8236 56.4957 90.2421 56.571 83.689 62.2788C81.9057 63.8314 80.4767 65.9201 80.1928 68.2673C79.9098 70.6153 80.9763 73.198 83.0872 74.2637C84.8 75.1281 86.8355 74.9037 88.7387 74.6586C91.2651 74.3327 93.839 73.9941 96.1474 72.9173C99.5659 71.3218 100.086 68.2015 102.589 65.909C104.351 64.2953 106.113 62.6816 107.875 61.0679C110.556 58.6121 111.495 54.7821 110.252 51.3644Z" fill="#D1D3D4"/>
<path d="M97.4994 72.0665C97.1196 70.8374 96.7081 69.6512 97.0482 68.3166C98.0981 64.2058 102.145 62.1148 105.088 59.4195C107.755 56.9771 108.697 53.1764 107.485 49.7738C108.611 49.5732 109.817 50.1711 110.252 51.3661C111.495 54.7838 110.556 58.6138 107.875 61.0696C106.748 62.1021 105.678 63.2138 104.593 64.2582C103.813 65.0099 102.899 65.4746 102.566 66.5863C102.302 67.4649 102.38 68.1659 102.459 69.0953C102.6 70.7637 103.223 72.4139 103.13 74.1782C103.035 75.96 102.364 77.9218 101.397 79.384C99.8942 81.6543 94.6455 84.8024 92.9216 81.0223C94.0167 80.4554 95.3941 80.0493 96.3274 79.2453C97.8293 77.9512 98.1862 75.7055 97.9276 73.8277C97.8452 73.2179 97.6755 72.6375 97.4994 72.0665Z" fill="#BCBEC0"/>
<path d="M64.7506 106.78L56.9312 110.147L71.682 144.397L79.5014 141.029C80.5378 140.582 81.016 139.38 80.5696 138.344L67.4356 107.848C66.9892 106.812 65.787 106.333 64.7506 106.78Z" fill="#009ADD"/>
<path d="M77.9915 132.359C78.438 133.396 77.7989 134.703 76.7624 135.15L69.1174 138.442L71.6827 144.398L79.5022 141.03C80.5386 140.584 81.0167 139.382 80.5703 138.345L77.9915 132.359Z" fill="#136DA0"/>
<path d="M58.6115 155.11L71.6518 149.493C72.6883 149.046 73.1664 147.844 72.72 146.808L56.9312 110.148L42.0138 116.573C41.2558 116.9 40.9061 117.778 41.2328 118.535L56.6481 154.328C56.9748 155.087 57.8542 155.436 58.6115 155.11Z" fill="#1CAEE4"/>
<path d="M69.702 139.798C70.1484 140.835 69.5038 142.091 68.4674 142.537L55.427 148.154C54.8981 148.381 54.3129 148.274 53.8958 147.934L56.6497 154.328C56.9756 155.086 57.855 155.435 58.6131 155.109L71.6535 149.492C72.6899 149.046 73.1681 147.844 72.7216 146.807L69.702 139.798Z" fill="#009ADD"/>
<path d="M125.844 80.4675L105.569 89.1997L79.8099 100.293C77.7514 101.18 75.9902 102.639 74.7349 104.496C73.4797 106.354 71.7185 107.812 69.6599 108.699L68.093 109.374L79.8083 136.576L81.3752 135.901C83.4338 135.014 85.7041 134.737 87.9156 135.101C90.1272 135.465 92.3975 135.188 94.456 134.301L122.702 122.136L132.258 118.021C134.606 117.01 135.689 114.287 134.678 111.939C133.667 109.591 130.944 108.508 128.596 109.519L119.04 113.634L131.339 108.337C133.687 107.326 134.771 104.603 133.76 102.255C132.749 99.9072 130.025 98.824 127.677 99.835L115.378 105.133L130.422 98.6535C132.77 97.6425 133.853 94.9194 132.842 92.5714C131.831 90.2234 129.108 89.1402 126.76 90.1513L111.716 96.6306L129.504 88.969C131.852 87.9579 132.936 85.2349 131.925 82.8869C130.915 80.5397 128.192 79.4565 125.844 80.4675Z" fill="white"/>
<path d="M86.735 132.357C84.5234 131.992 82.2531 132.27 80.1946 133.156L78.6277 133.831L79.81 136.576L81.3769 135.901C83.4355 135.014 85.7057 134.737 87.9173 135.102C90.1289 135.466 92.3992 135.189 94.4585 134.301L122.704 122.137L121.523 119.392L93.277 131.557C91.2169 132.444 88.9466 132.722 86.735 132.357Z" fill="#D1D3D4"/>
<path d="M128.324 86.2241L109.42 94.3655C108.662 94.6922 108.312 95.5708 108.639 96.3289C108.966 97.087 109.844 97.4367 110.602 97.11L129.347 89.0368C131.362 88.1692 132.62 86.0433 132.227 83.8856C132.061 82.9761 131.652 82.218 131.105 81.6138C131.254 83.5335 130.191 85.42 128.324 86.2241Z" fill="#E6E7E8"/>
<path d="M129.242 95.9087L110.339 104.05C109.58 104.377 109.231 105.255 109.557 106.013C109.883 106.772 110.763 107.121 111.52 106.795L130.424 98.6531C132.772 97.6421 133.855 94.919 132.844 92.5711C132.637 92.0905 132.355 91.6655 132.022 91.2983C132.172 93.2173 131.109 95.1046 129.242 95.9087Z" fill="#E6E7E8"/>
<path d="M130.16 105.593L111.256 113.734C110.498 114.061 110.148 114.939 110.475 115.697C110.802 116.455 111.68 116.804 112.438 116.478L131.183 108.404C133.197 107.537 134.456 105.411 134.063 103.253C133.897 102.344 133.488 101.586 132.941 100.981C133.09 102.902 132.026 104.788 130.16 105.593Z" fill="#E6E7E8"/>
<path d="M131.077 115.277L110.802 124.009L111.983 126.753L132.258 118.021C134.606 117.01 135.69 114.287 134.679 111.939C134.472 111.458 134.189 111.033 133.857 110.666C134.007 112.586 132.944 114.473 131.077 115.277Z" fill="#D1D3D4"/>
<path d="M84.9538 82.0225C83.5051 80.9814 81.4648 81.7688 81.0897 83.5125C79.235 92.1408 71.3647 97.606 69.1714 106.015C68.5743 108.302 68.5719 110.833 69.6614 112.932C70.751 115.03 73.0894 116.562 75.4335 116.251C77.335 115.999 78.89 114.666 80.3237 113.391C82.2268 111.697 84.1609 109.966 85.4606 107.775C87.3843 104.53 86.0537 101.66 86.8284 98.3545C87.3732 96.0288 87.918 93.7022 88.4635 91.3764C89.2922 87.8358 87.9077 84.1437 84.9538 82.0225Z" fill="white"/>
<path d="M87.114 97.1341C87.5636 95.2152 88.0132 93.2954 88.4628 91.3764C89.2922 87.8358 87.9077 84.1437 84.9539 82.0225C83.9215 81.2803 82.5877 81.4674 81.7717 82.2676C84.6906 84.3951 86.0561 88.0649 85.2307 91.5857C84.6859 93.9123 84.1411 96.2381 83.5956 98.5639C83.5884 98.5956 83.5813 98.6273 83.5741 98.659L87.114 97.1341Z" fill="#E6E7E8"/>
<path d="M123.913 50.4677C123.913 48.9777 122.705 47.77 121.216 47.77C119.726 47.77 118.518 48.9777 118.518 50.4677V56.1684C118.518 57.6583 119.726 58.866 121.216 58.866C122.705 58.866 123.913 57.6583 123.913 56.1684V50.4677Z" fill="#FEDE3A"/>
<path d="M121.216 55.1313C119.726 55.1313 118.518 53.9236 118.518 52.4336V56.1685C118.518 57.6585 119.726 58.8662 121.216 58.8662C122.705 58.8662 123.913 57.6585 123.913 56.1685V52.4336C123.913 53.9236 122.705 55.1313 121.216 55.1313Z" fill="#E7AD27"/>
<path d="M123.913 132.364C123.913 130.874 122.705 129.667 121.216 129.667C119.726 129.667 118.518 130.874 118.518 132.364V138.066C118.518 139.556 119.726 140.764 121.216 140.764C122.705 140.764 123.913 139.556 123.913 138.066V132.364Z" fill="#FEDE3A"/>
<path d="M121.216 137.153C119.726 137.153 118.518 135.946 118.518 134.456V138.066C118.518 139.556 119.726 140.764 121.216 140.764C122.705 140.764 123.913 139.556 123.913 138.066V134.456C123.913 135.946 122.705 137.153 121.216 137.153Z" fill="#E7AD27"/>
<path d="M165.015 96.9635C166.505 96.9635 167.713 95.7558 167.713 94.2658C167.713 92.7758 166.505 91.5681 165.015 91.5681H159.315C157.825 91.5681 156.617 92.7758 156.617 94.2658C156.617 95.7558 157.825 96.9635 159.315 96.9635H165.015Z" fill="#FEDE3A"/>
<path d="M165.015 94.2658H159.315C158.316 94.2658 157.444 93.7234 156.978 92.917C156.748 93.3135 156.617 93.7742 156.617 94.2658C156.617 95.7558 157.825 96.9635 159.315 96.9635H165.015C166.505 96.9635 167.713 95.7558 167.713 94.2658C167.713 93.7742 167.581 93.3135 167.352 92.917C166.886 93.7234 166.014 94.2658 165.015 94.2658Z" fill="#E7AD27"/>
<path d="M154.094 65.203C155.148 64.1492 155.148 62.4419 154.094 61.388C153.04 60.3342 151.333 60.3342 150.279 61.388L146.248 65.4195C145.194 66.4734 145.194 68.1814 146.248 69.2345C147.302 70.2883 149.009 70.2883 150.063 69.2345L154.094 65.203Z" fill="#FEDE3A"/>
<path d="M154.094 61.3872C153.774 61.0669 153.393 60.844 152.987 60.7188C153.274 61.6449 153.052 62.694 152.319 63.4275L148.287 67.459C147.555 68.1917 146.505 68.4145 145.579 68.1275C145.704 68.5319 145.927 68.9133 146.247 69.2344C147.301 70.2883 149.008 70.2883 150.062 69.2344L154.094 65.203C155.147 64.1483 155.147 62.4411 154.094 61.3872Z" fill="#E7AD27"/>
<path d="M150.279 127.144C151.333 128.198 153.04 128.198 154.094 127.144C155.147 126.09 155.147 124.383 154.094 123.329L150.062 119.297C149.008 118.243 147.301 118.243 146.247 119.297C145.193 120.351 145.193 122.058 146.247 123.112L150.279 127.144Z" fill="#FEDE3A"/>
<path d="M152.099 125.326L148.067 121.294C147.343 120.57 147.116 119.536 147.387 118.619C146.97 118.743 146.577 118.969 146.247 119.298C145.193 120.352 145.193 122.06 146.247 123.113L150.279 127.145C151.333 128.199 153.04 128.199 154.094 127.145C154.423 126.816 154.649 126.422 154.773 126.005C153.856 126.277 152.822 126.05 152.099 125.326Z" fill="#E7AD27"/>
</svg>
