<svg width="27" height="27" viewBox="0 0 27 27" fill="none" xmlns="http://www.w3.org/2000/svg">
<path d="M26.9508 6.4453L25.0222 0.659594C24.891 0.265612 24.5224 -0.000112966 24.1071 3.60275e-08H2.89286C2.47763 -0.000112966 2.10896 0.265612 1.97776 0.659594L0.0491559 6.4453C0.0194364 6.53537 0.00282505 6.62921 0 6.72397C0 6.73363 0 6.74035 0 6.75001V7.71432C0.00350307 9.22516 0.717959 10.6463 1.92855 11.5502C1.92855 11.558 1.92855 11.5637 1.92855 11.5714V24.1071C1.92855 25.7048 3.22373 27 4.82141 27H22.1785C23.7762 27 25.0714 25.7048 25.0714 24.1071V11.5714C25.0714 11.5637 25.0714 11.5579 25.0714 11.5502C26.282 10.6463 26.9965 9.22516 26.9999 7.71432V6.75001C26.9999 6.74035 26.9999 6.73363 26.9999 6.72397C26.9971 6.62916 26.9806 6.53531 26.9508 6.4453ZM20.25 1.92855H23.4119L24.6983 5.78571H20.25V1.92855ZM14.4643 1.92855H18.3214V5.78571H14.4643V1.92855ZM8.67857 1.92855H12.5357V5.78571H8.67857V1.92855ZM3.5881 1.92855H6.75001V5.78571H2.30174L3.5881 1.92855ZM15.4286 25.0714H11.5714V17.3571H15.4286V25.0714ZM23.1428 24.1071C23.1428 24.6397 22.7111 25.0714 22.1785 25.0714H17.3571V16.3929C17.3571 15.8603 16.9254 15.4286 16.3928 15.4286H10.6071C10.0745 15.4286 9.64281 15.8603 9.64281 16.3929V25.0714H4.82141C4.28883 25.0714 3.8571 24.6397 3.8571 24.1071V12.4393C5.21036 12.7171 6.61758 12.3941 7.71426 11.5541C9.43562 12.8183 11.7786 12.8183 13.5 11.5541C15.2213 12.8183 17.5643 12.8183 19.2857 11.5541C20.3824 12.3942 21.7896 12.7171 23.1428 12.4393V24.1071ZM22.1785 10.6071C21.3446 10.6066 20.5528 10.2408 20.0118 9.6062C19.6614 9.20521 19.0522 9.16419 18.6512 9.51461C18.6186 9.54303 18.588 9.57366 18.5596 9.6062C17.4874 10.8029 15.6481 10.9037 14.4514 9.83158C14.3723 9.76062 14.297 9.68541 14.2261 9.6062C13.8487 9.20521 13.2177 9.186 12.8166 9.56343C12.802 9.57727 12.7877 9.59151 12.7739 9.6062C11.7017 10.8029 9.86243 10.9037 8.66574 9.83158C8.58652 9.76062 8.51132 9.68541 8.44036 9.6062C8.06299 9.20521 7.43193 9.186 7.03094 9.56343C7.01625 9.57727 7.00195 9.59151 6.98817 9.6062C6.44717 10.2408 5.65536 10.6066 4.82141 10.6071C3.22373 10.6071 1.92855 9.31194 1.92855 7.71426H25.0714C25.0714 9.31194 23.7762 10.6071 22.1785 10.6071Z" fill="whitesmoke"/>
</svg>
