<svg width="27" height="27" viewBox="0 0 27 27" fill="none" xmlns="http://www.w3.org/2000/svg">
<path d="M13.5 25.4979C13.1156 25.4979 12.745 25.3586 12.4562 25.1057C11.3655 24.1519 10.3139 23.2557 9.38608 22.465L9.38135 22.4609C6.6612 20.1429 4.31226 18.141 2.67791 16.1691C0.850958 13.9645 0 11.8743 0 9.59086C0 7.37231 0.760733 5.32555 2.14192 3.82736C3.53958 2.31145 5.45738 1.47656 7.54265 1.47656C9.10119 1.47656 10.5285 1.9693 11.7849 2.94097C12.4189 3.43144 12.9936 4.03171 13.5 4.73188C14.0065 4.03171 14.581 3.43144 15.2153 2.94097C16.4716 1.9693 17.899 1.47656 19.4575 1.47656C21.5426 1.47656 23.4606 2.31145 24.8582 3.82736C26.2394 5.32555 27 7.37231 27 9.59086C27 11.8743 26.1492 13.9645 24.3222 16.1689C22.6879 18.141 20.3392 20.1427 17.6194 22.4605C16.69 23.2524 15.6367 24.1501 14.5435 25.1061C14.2549 25.3586 13.8842 25.4979 13.5 25.4979ZM7.54265 3.05818C5.90439 3.05818 4.3994 3.71201 3.30454 4.89935C2.19342 6.10462 1.58141 7.7707 1.58141 9.59086C1.58141 11.5113 2.29518 13.2289 3.89554 15.1599C5.44234 17.0264 7.74308 18.9871 10.407 21.2573L10.4119 21.2614C11.3432 22.0551 12.3989 22.9549 13.4977 23.9157C14.6031 22.953 15.6604 22.0518 16.5936 21.2569C19.2573 18.9866 21.5578 17.0264 23.1046 15.1599C24.7048 13.2289 25.4185 11.5113 25.4185 9.59086C25.4185 7.7707 24.8065 6.10462 23.6954 4.89935C22.6008 3.71201 21.0956 3.05818 19.4575 3.05818C18.2574 3.05818 17.1555 3.43968 16.1826 4.19197C15.3156 4.86269 14.7116 5.71056 14.3575 6.30382C14.1754 6.60889 13.8549 6.79099 13.5 6.79099C13.145 6.79099 12.8245 6.60889 12.6424 6.30382C12.2885 5.71056 11.6846 4.86269 10.8173 4.19197C9.84442 3.43968 8.74256 3.05818 7.54265 3.05818Z" fill="white"/>
</svg>
