<svg width="30" height="24" viewBox="0 0 24 24" fill="none" xmlns="http://www.w3.org/2000/svg">
<path d="M21.4286 0H2.57143C1.15127 0 0 1.15127 0 2.57143V21.4286C0 22.8487 1.15127 24 2.57143 24H21.4286C22.8487 24 24 22.8487 24 21.4286V2.57143C24 1.15127 22.8487 0 21.4286 0ZM22.2857 21.4286C22.2857 21.902 21.9019 22.2857 21.4285 22.2857H2.57143C2.09802 22.2857 1.71427 21.902 1.71427 21.4286V2.57143C1.71427 2.09802 2.09802 1.71427 2.57143 1.71427H21.4286C21.902 1.71427 22.2857 2.09802 22.2857 2.57143V21.4286H22.2857Z" fill="white"/>
<path d="M7.71374 5.14258H5.14231C4.66891 5.14258 4.28516 5.52633 4.28516 5.99974C4.28516 6.47314 4.66891 6.8569 5.14231 6.8569H7.71374C8.18714 6.8569 8.5709 6.47314 8.5709 5.99974C8.5709 5.52633 8.18714 5.14258 7.71374 5.14258Z" fill="white"/>
<path d="M18.8566 5.14258H11.1423C10.6689 5.14258 10.2852 5.52633 10.2852 5.99974C10.2852 6.47314 10.6689 6.8569 11.1423 6.8569H18.8566C19.33 6.8569 19.7138 6.47314 19.7138 5.99974C19.7138 5.52633 19.33 5.14258 18.8566 5.14258Z" fill="white"/>
<path d="M7.71374 11.1426H5.14231C4.66891 11.1426 4.28516 11.5263 4.28516 11.9997C4.28516 12.4731 4.66891 12.8568 5.14231 12.8568H7.71374C8.18714 12.8568 8.5709 12.4731 8.5709 11.9997C8.5709 11.5263 8.18714 11.1426 7.71374 11.1426Z" fill="white"/>
<path d="M18.8566 11.1426H11.1423C10.6689 11.1426 10.2852 11.5263 10.2852 11.9997C10.2852 12.4731 10.6689 12.8568 11.1423 12.8568H18.8566C19.33 12.8568 19.7138 12.4731 19.7138 11.9997C19.7138 11.5263 19.33 11.1426 18.8566 11.1426Z" fill="white"/>
<path d="M7.71374 17.1426H5.14231C4.66891 17.1426 4.28516 17.5263 4.28516 17.9997C4.28516 18.4731 4.66891 18.8569 5.14231 18.8569H7.71374C8.18714 18.8569 8.5709 18.4731 8.5709 17.9997C8.5709 17.5263 8.18714 17.1426 7.71374 17.1426Z" fill="white"/>
<path d="M18.8566 17.1426H11.1423C10.6689 17.1426 10.2852 17.5263 10.2852 17.9997C10.2852 18.4731 10.6689 18.8569 11.1423 18.8569H18.8566C19.33 18.8569 19.7138 18.4731 19.7138 17.9997C19.7138 17.5263 19.33 17.1426 18.8566 17.1426Z" fill="white"/>
</svg>
