<svg width="28" height="28" viewBox="0 0 28 28" fill="none" xmlns="http://www.w3.org/2000/svg">
<g clip-path="url(#clip0)">
<path d="M13.9535 25.6283H3.48835C2.84648 25.6283 2.32559 25.1074 2.32559 24.4656V3.53528C2.32559 2.89341 2.84654 2.37252 3.48835 2.37252H13.9535C14.5965 2.37252 15.1163 1.85277 15.1163 1.20975C15.1163 0.566734 14.5965 0.046875 13.9535 0.046875H3.48835C1.5651 0.046875 0 1.61203 0 3.53528V24.4655C0 26.3888 1.5651 27.9538 3.48835 27.9538H13.9535C14.5965 27.9538 15.1163 27.4341 15.1163 26.7911C15.1163 26.1481 14.5965 25.6283 13.9535 25.6283Z" fill="white"/>
<path d="M27.6539 13.1719L20.5841 6.19511C20.1283 5.74394 19.3911 5.74979 18.9399 6.20676C18.4888 6.66373 18.4934 7.39977 18.9516 7.85094L24.0039 12.837H10.4655C9.82248 12.837 9.30273 13.3567 9.30273 13.9997C9.30273 14.6427 9.82248 15.1625 10.4655 15.1625H24.0039L18.9516 20.1486C18.4935 20.5997 18.49 21.3358 18.9399 21.7928C19.1678 22.023 19.4678 22.1393 19.7678 22.1393C20.0632 22.1393 20.3585 22.0276 20.5841 21.8043L27.6539 14.8276C27.8748 14.609 28.0004 14.3113 28.0004 13.9997C28.0004 13.6882 27.876 13.3917 27.6539 13.1719Z" fill="white"/>
</g>
<defs>
<clipPath id="clip0">
<rect width="28" height="28" fill="white"/>
</clipPath>
</defs>
</svg>
