<svg width="100" height="97" viewBox="0 0 100 97" fill="none" xmlns="http://www.w3.org/2000/svg">
<g clip-path="url(#clip0)">
<path d="M96.9791 85.7689C102.487 76.385 100.246 64.5194 91.6666 57.6388V44.4629H93.75C94.9006 44.4629 95.8334 43.5581 95.8334 42.4421V36.3795H97.9168C99.0674 36.3769 99.9979 35.47 99.9951 34.3539C99.9936 33.6952 99.6611 33.0785 99.1041 32.7017L51.1875 0.368295C50.4734 -0.112348 49.5266 -0.112348 48.8125 0.368295L0.895898 32.7017C-0.0476562 33.3405 -0.278516 34.6002 0.379883 35.5155C0.768555 36.0556 1.4043 36.378 2.0834 36.3795H4.1668V42.4421C4.1668 43.5581 5.09961 44.4629 6.2502 44.4629H8.33359V76.7964H6.25C5.09941 76.7964 4.1666 77.7012 4.1666 78.8172V85.2435C1.67559 86.0977 0.00742187 88.3791 0 90.9421V94.9837C0 96.0997 0.932813 97.0046 2.0834 97.0046H97.9168C99.0674 97.0046 100 96.0997 100 94.9837V90.9421C99.9937 88.8242 98.8486 86.8629 96.9791 85.7689ZM91.6666 40.4213H75V36.3797H91.6666V40.4213ZM87.5 44.4629V54.9914C84.9033 53.6978 82.074 52.9018 79.1666 52.6473V44.4629H87.5ZM50 4.4908L91.2709 32.3379H8.7291L50 4.4908ZM27.0834 76.7964H25V44.4629H27.0834C28.234 44.4629 29.1668 43.5581 29.1668 42.4421V36.3795H37.5V42.4421C37.5 43.5581 38.4328 44.4629 39.5834 44.4629H41.6668V76.7964H39.5834C38.4328 76.7964 37.5 77.7012 37.5 78.8172V84.8798H29.1666V78.8172C29.1666 77.701 28.234 76.7964 27.0834 76.7964ZM41.6666 80.838H55.0625C55.4727 82.2344 56.0238 83.5882 56.7084 84.8796H41.6668V80.838H41.6666ZM45.8334 76.7964V44.4629H54.1668V76.7964H45.8334ZM56.25 40.4213H41.6666V36.3797H58.3332V40.4213H56.25ZM58.3334 44.4629H60.4168C61.5674 44.4629 62.5002 43.5581 62.5002 42.4421V36.3795H70.8336V42.4421C70.8336 43.5581 71.7664 44.4629 72.917 44.4629H75V52.6473C68.2939 53.2456 62.1986 56.6749 58.3334 62.0239V44.4629ZM8.3334 36.3795H25V40.4212H8.3334V36.3795ZM20.8334 44.4629V76.7964H12.5V44.4629H20.8334ZM8.3334 80.838H25V84.8796H8.3334V80.838ZM4.1666 92.963V90.9421C4.1666 89.826 5.09941 88.9212 6.25 88.9212H59.4166C60.7313 90.4576 62.2516 91.817 63.9375 92.9628H4.1666V92.963ZM95.8334 92.963H90.2084C91.8313 91.8636 93.3018 90.5664 94.5834 89.1032C95.3381 89.4226 95.8279 90.1435 95.8334 90.9423V92.963ZM77.0834 92.963C66.7281 92.963 58.3334 84.8201 58.3334 74.7755C58.3334 64.7308 66.7281 56.588 77.0834 56.588C87.4387 56.588 95.8334 64.7308 95.8334 74.7755C95.8334 84.8201 87.4387 92.963 77.0834 92.963Z" fill="#01579B"/>
<path d="M74.2514 24.6354L51.3348 8.46875L48.7723 11.7425L66.5014 24.2515H29.168V28.2931H72.918C73.8572 28.3376 74.7109 27.7664 75.0014 26.8988C75.2838 26.0663 74.9809 25.1522 74.2514 24.6354Z" fill="#01579B"/>
<path d="M81.25 64.6666H79.1666V60.625H75V64.6666H72.9166C70.6154 64.6666 68.75 66.4761 68.75 68.7082V72.7498C68.75 74.9819 70.6154 76.7914 72.9166 76.7914H81.25V80.833H72.9166V78.8121H68.75V80.833C68.75 83.0652 70.6154 84.8746 72.9166 84.8746H75V88.9162H79.1666V84.8746H81.25C83.5512 84.8746 85.4166 83.0652 85.4166 80.833V76.7914C85.4166 74.5593 83.5512 72.7498 81.25 72.7498H72.9166V68.7082H81.25V70.7291H85.4166V68.7082C85.4166 66.4761 83.5512 64.6666 81.25 64.6666Z" fill="#01579B"/>
</g>
<defs>
<clipPath id="clip0">
<rect width="100" height="97" fill="white"/>
</clipPath>
</defs>
</svg>
