<svg width="29" height="29" viewBox="0 0 29 29" fill="none" xmlns="http://www.w3.org/2000/svg">
<g clip-path="url(#clip0)">
<path d="M24.9766 4.46399C22.2395 1.60703 18.4524 -0.0053023 14.4958 0.00197767C6.50011 -0.00809295 0.0100821 6.46556 1.14787e-05 14.4613C-0.00496317 18.415 1.60719 22.1986 4.46203 24.9338C4.47034 24.942 4.47343 24.9544 4.48168 24.9617C4.56552 25.0425 4.65664 25.1108 4.74158 25.1885C4.97454 25.3955 5.2075 25.6099 5.45289 25.8097C5.58435 25.9133 5.72104 26.0168 5.85566 26.112C6.08758 26.2849 6.31951 26.4578 6.56175 26.6173C6.7264 26.7209 6.89621 26.8244 7.06492 26.9279C7.28854 27.0625 7.51118 27.1981 7.74208 27.3213C7.93779 27.4249 8.13756 27.5139 8.33636 27.6081C8.55379 27.7117 8.76813 27.8152 8.99071 27.9083C9.2133 28.0015 9.43697 28.074 9.66265 28.1548C9.88833 28.2355 10.083 28.3101 10.2994 28.3763C10.5438 28.4499 10.7943 28.5068 11.0428 28.5678C11.2499 28.6186 11.4507 28.6766 11.664 28.718C11.9498 28.775 12.2397 28.8112 12.5296 28.8506C12.7088 28.8754 12.8837 28.9106 13.0649 28.9282C13.5391 28.9748 14.0174 29.0007 14.4999 29.0007C14.9824 29.0007 15.4607 28.9748 15.9349 28.9282C16.1161 28.9106 16.2911 28.8754 16.4702 28.8506C16.7601 28.8112 17.0499 28.775 17.3357 28.718C17.5428 28.6766 17.7499 28.6144 17.957 28.5678C18.2055 28.5068 18.456 28.4498 18.7004 28.3763C18.9168 28.3101 19.1259 28.2293 19.3371 28.1548C19.5484 28.0802 19.7885 27.9995 20.0091 27.9083C20.2296 27.8172 20.446 27.7106 20.6634 27.6081C20.8622 27.5139 21.0621 27.4248 21.2577 27.3213C21.4886 27.1981 21.7112 27.0625 21.9349 26.9279C22.1036 26.8244 22.2734 26.7301 22.438 26.6173C22.6803 26.4579 22.9123 26.285 23.1441 26.112C23.2787 26.0085 23.4154 25.9153 23.5469 25.8097C23.7923 25.613 24.0252 25.4039 24.2582 25.1885C24.3431 25.1108 24.4342 25.0425 24.5181 24.9617C24.5264 24.9545 24.5295 24.9421 24.5378 24.9338C30.3116 19.4023 30.508 10.2377 24.9766 4.46399ZM22.6495 23.8497C22.461 24.0154 22.2663 24.1728 22.0697 24.325C21.9537 24.414 21.8377 24.502 21.7186 24.5869C21.5312 24.7226 21.3408 24.8509 21.1471 24.9742C21.0063 25.0642 20.8624 25.1512 20.7174 25.2361C20.5352 25.3397 20.3498 25.4432 20.1624 25.5467C19.9968 25.6316 19.828 25.7114 19.6582 25.7901C19.4885 25.8687 19.301 25.9526 19.1178 26.0261C18.9345 26.0996 18.7399 26.169 18.5483 26.2332C18.3733 26.2932 18.1984 26.3553 18.0213 26.4081C17.8142 26.4702 17.5978 26.521 17.3835 26.5728C17.2157 26.6121 17.0501 26.6566 16.8803 26.6898C16.6349 26.7374 16.3844 26.7705 16.1328 26.8047C15.9899 26.8233 15.8481 26.8492 15.7041 26.8637C15.3065 26.902 14.9037 26.9248 14.4969 26.9248C14.09 26.9248 13.6872 26.9021 13.2896 26.8637C13.1457 26.8492 13.0039 26.8233 12.8609 26.8047C12.6093 26.7705 12.3588 26.7374 12.1134 26.6898C11.9436 26.6567 11.7779 26.6121 11.6102 26.5728C11.3959 26.521 11.1826 26.4692 10.9724 26.4081C10.7954 26.3553 10.6204 26.2932 10.4454 26.2332C10.2539 26.1669 10.0623 26.0996 9.87596 26.0261C9.68959 25.9526 9.5136 25.8718 9.33548 25.7901C9.15736 25.7083 8.9969 25.6317 8.83128 25.5467C8.64388 25.4494 8.45855 25.3469 8.27631 25.2361C8.13137 25.1512 7.98741 25.0642 7.8466 24.9742C7.65302 24.8509 7.46247 24.7226 7.27507 24.5869C7.15598 24.502 7.04005 24.414 6.92405 24.325C6.72731 24.1728 6.53269 24.0143 6.34426 23.8497C6.2987 23.8155 6.25727 23.772 6.2128 23.7327C6.25909 20.2106 8.52176 17.1006 11.8587 15.9725C13.5272 16.7662 15.4644 16.7662 17.1329 15.9725C20.4698 17.1006 22.7325 20.2105 22.7789 23.7327C22.7354 23.772 22.6939 23.8114 22.6495 23.8497ZM10.8854 8.30345C12.0064 6.30971 14.5314 5.60228 16.5252 6.72333C18.5189 7.84439 19.2264 10.3694 18.1053 12.3631C17.7333 13.0246 17.1867 13.5712 16.5252 13.9432C16.52 13.9432 16.5138 13.9432 16.5076 13.9494C16.233 14.1022 15.9428 14.2252 15.642 14.316C15.5882 14.3315 15.5384 14.3522 15.4815 14.3657C15.378 14.3926 15.2693 14.4112 15.1626 14.4298C14.9618 14.465 14.7586 14.4854 14.5549 14.4909H14.4368C14.233 14.4854 14.0298 14.465 13.829 14.4298C13.7255 14.4112 13.6157 14.3926 13.5102 14.3657C13.4553 14.3522 13.4066 14.3315 13.3497 14.316C13.0489 14.2252 12.7587 14.1023 12.4841 13.9494L12.4655 13.9432C10.4718 12.8222 9.76433 10.2972 10.8854 8.30345ZM24.6156 21.6796C23.9512 18.5806 21.9105 15.9533 19.0722 14.5428C21.3924 12.0154 21.2243 8.08559 18.6969 5.76541C16.1695 3.44522 12.2397 3.61327 9.91952 6.14069C7.73832 8.51675 7.73832 12.1668 9.91952 14.5428C7.08124 15.9534 5.04054 18.5806 4.37612 21.6796C0.40587 16.0872 1.72088 8.33512 7.31329 4.36486C12.9057 0.394611 20.6578 1.70962 24.628 7.30203C26.1205 9.4043 26.9216 11.919 26.9204 14.4972C26.9204 17.0731 26.1145 19.5845 24.6156 21.6796Z" fill="white"/>
</g>
<defs>
<clipPath id="clip0">
<rect width="29" height="29" fill="white"/>
</clipPath>
</defs>
</svg>
