<svg width="249" height="210" viewBox="0 0 249 210" fill="none" xmlns="http://www.w3.org/2000/svg">
<path d="M113.746 183.771H22.5801C9.96508 183.771 -8.72796 165.423 4.57773 146.679C17.884 127.935 34.7448 117.59 29.8031 94.5749C24.8608 71.5597 15.3952 48.5578 31.0197 32.1518C51.4097 10.7423 103.548 41.9486 126.527 30.7739C149.506 19.5998 190.883 0.945541 215.593 17.6729C240.304 34.3996 223.688 88.4916 228.63 102.409C233.572 116.328 243.49 116.056 247.366 138.614C251.064 160.151 240.795 181.832 223.688 181.832C209.621 181.832 113.746 183.771 113.746 183.771Z" fill="#DBF1FE"/>
<path d="M112.501 183.771H23.3988C15.5961 183.771 -4.09631 164.987 8.90825 146.668C21.9128 128.347 35.289 119.088 30.4588 96.5938C25.6281 74.0999 18.4467 54.5821 33.7175 38.5484C53.6456 17.6232 104.069 41.6954 126.527 30.7739C148.986 19.8524 187.891 5.08446 212.042 21.4332C236.194 37.782 219.954 90.6487 224.784 104.251C229.614 117.855 239.309 117.589 243.095 139.637C246.711 160.686 236.673 181.876 219.954 181.876C206.206 181.876 112.501 183.771 112.501 183.771Z" fill="#A4D9F7"/>
<path d="M194.3 98.9611C194.3 106.191 188.439 112.052 181.21 112.052C173.98 112.052 168.119 106.191 168.119 98.9611C168.119 91.7311 173.98 85.8704 181.21 85.8704C188.439 85.8704 194.3 91.7311 194.3 98.9611Z" fill="#FF6110"/>
<path d="M192.678 98.961C192.678 105.295 187.543 110.429 181.21 110.429C174.876 110.429 169.742 105.295 169.742 98.961C169.742 92.6275 174.876 87.4933 181.21 87.4933C187.543 87.4933 192.678 92.6275 192.678 98.961Z" fill="#FFD36B"/>
<path d="M180.51 107.546V105.465C179.316 105.444 178.079 105.074 177.357 104.558L177.852 103.178C178.594 103.672 179.666 104.064 180.82 104.064C182.282 104.064 183.271 103.219 183.271 102.045C183.271 100.911 182.469 100.211 180.943 99.5923C178.841 98.7681 177.543 97.8208 177.543 96.0279C177.543 94.3177 178.76 93.0195 180.654 92.7103V90.629H181.932V92.6277C183.168 92.6693 184.013 92.9993 184.61 93.349L184.096 94.709C183.663 94.4622 182.818 94.0084 181.499 94.0084C179.913 94.0084 179.316 94.9563 179.316 95.7805C179.316 96.8521 180.078 97.3879 181.871 98.1294C183.993 98.9953 185.064 100.067 185.064 101.9C185.064 103.528 183.931 105.053 181.808 105.403V107.546H180.51Z" fill="#FF6110"/>
<path d="M211.729 76.424C211.729 82.6286 206.699 87.6582 200.495 87.6582C194.289 87.6582 189.26 82.6286 189.26 76.424C189.26 70.2194 194.289 65.1898 200.495 65.1898C206.699 65.1898 211.729 70.2194 211.729 76.424Z" fill="#FF6110"/>
<path d="M210.336 76.4238C210.336 81.8591 205.93 86.2656 200.495 86.2656C195.059 86.2656 190.652 81.8591 190.652 76.4238C190.652 70.9885 195.059 66.5819 200.495 66.5819C205.93 66.5819 210.336 70.9885 210.336 76.4238Z" fill="#FFD36B"/>
<path d="M199.894 83.792V82.006C198.868 81.9881 197.807 81.6702 197.188 81.2275L197.612 80.0432C198.249 80.4675 199.168 80.8038 200.158 80.8038C201.414 80.8038 202.263 80.0785 202.263 79.0711C202.263 78.0977 201.573 77.4966 200.265 76.966C198.461 76.2586 197.347 75.446 197.347 73.9068C197.347 72.4393 198.39 71.325 200.017 71.0602V69.2737H201.114V70.9892C202.174 71.025 202.899 71.3076 203.412 71.6082L202.97 72.7751C202.599 72.563 201.874 72.174 200.742 72.174C199.38 72.174 198.868 72.9872 198.868 73.6947C198.868 74.6142 199.522 75.0743 201.061 75.7107C202.882 76.4534 203.801 77.3729 203.801 78.9468C203.801 80.3438 202.829 81.6523 201.008 81.9529V83.792H199.894Z" fill="#FF6110"/>
<path d="M193.278 49.7143C193.278 55.0283 188.97 59.3359 183.657 59.3359C178.343 59.3359 174.035 55.0283 174.035 49.7143C174.035 44.4004 178.343 40.0927 183.657 40.0927C188.97 40.0927 193.278 44.4004 193.278 49.7143Z" fill="#FF6110"/>
<path d="M192.086 49.7139C192.086 54.3689 188.312 58.1426 183.657 58.1426C179.002 58.1426 175.229 54.3689 175.229 49.7139C175.229 45.0588 179.002 41.2852 183.657 41.2852C188.312 41.2852 192.086 45.0588 192.086 49.7139Z" fill="#FFD36B"/>
<path d="M183.142 56.0244V54.4951C182.263 54.4795 181.354 54.2072 180.824 53.8287L181.188 52.8137C181.733 53.1773 182.521 53.4651 183.369 53.4651C184.445 53.4651 185.171 52.8444 185.171 51.9809C185.171 51.148 184.581 50.633 183.46 50.1787C181.915 49.5724 180.961 48.8765 180.961 47.5587C180.961 46.3016 181.854 45.3474 183.248 45.1202V43.5909H184.187V45.0596C185.095 45.0902 185.716 45.3324 186.156 45.5896L185.778 46.5895C185.46 46.408 184.838 46.0745 183.868 46.0745C182.703 46.0745 182.263 46.771 182.263 47.3773C182.263 48.1645 182.824 48.5581 184.141 49.1031C185.701 49.7395 186.489 50.5272 186.489 51.8751C186.489 53.0715 185.656 54.1922 184.096 54.4494V56.0244H183.142Z" fill="#FF6110"/>
<path d="M116.249 95.9396L116.123 124.274L116.092 132.37L115.967 160.698C115.967 175.979 109.439 188.438 101.263 189.008C101.069 189.02 100.874 189.027 100.68 189.027H52.75V189.02C56.782 188.858 60.425 185.805 63.1086 180.932C65.9424 175.791 67.6983 168.623 67.6983 160.698L67.7295 104.329L67.7359 95.9396C67.7359 80.2954 77.7997 67.6105 90.221 67.6105C96.347 67.6105 101.896 70.7015 105.959 75.7057C110.123 80.8474 112.706 88.0143 112.706 95.9396H116.249Z" fill="#0496BE"/>
<path d="M67.7316 104.329L67.7252 118.575L67.7194 122.174V130.237L67.7131 134.702V142.759L67.7067 146.365V154.422L67.7004 158.886V160.698C67.7004 161.3 67.6877 161.896 67.6692 162.485C67.6189 164.009 67.5062 165.495 67.3241 166.943C67.1796 168.179 66.9854 169.383 66.7536 170.549C66.4404 172.104 66.0578 173.596 65.6064 175.007C65.211 176.274 64.7533 177.478 64.2516 178.606C63.9007 179.421 63.5181 180.199 63.1106 180.932C62.6968 181.691 62.2518 182.406 61.794 183.07C60.797 184.506 59.7057 185.722 58.533 186.67C56.7586 188.105 54.8022 188.939 52.7521 189.02C52.6394 189.027 52.5261 189.027 52.414 189.027C43.9673 189.027 37.127 176.342 37.127 160.698V104.329H67.7316Z" fill="#DBF1FE"/>
<path d="M67.7265 118.576L67.7202 122.175H44.627V118.576H67.7265Z" fill="#05609A"/>
<path d="M67.7202 130.238H44.627V126.639H67.7202V130.238Z" fill="#05609A"/>
<path d="M67.7138 138.302H44.627V134.702H67.7138V138.302Z" fill="#05609A"/>
<path d="M67.7138 142.76L67.7074 146.365H44.627V142.76H67.7138Z" fill="#05609A"/>
<path d="M67.708 154.422H44.627V150.822H67.708V154.422Z" fill="#05609A"/>
<path d="M67.7011 158.887V160.699C67.7011 161.301 67.6889 161.897 67.6699 162.486H44.627V158.887H67.7011Z" fill="#05609A"/>
<path d="M67.3256 166.943C67.1811 168.179 66.9869 169.383 66.7551 170.549H45.5802C45.3421 169.383 45.1479 168.179 45.0098 166.943H67.3256Z" fill="#05609A"/>
<path d="M65.6068 175.007C65.2114 176.273 64.7537 177.477 64.2526 178.606H48.0691C47.5674 177.477 47.1155 176.273 46.7207 175.007H65.6068Z" fill="#05609A"/>
<path d="M61.7941 183.07C60.7971 184.506 59.7064 185.723 58.5337 186.67H53.7994C52.6273 185.723 51.5297 184.506 50.5391 183.07H61.7941Z" fill="#05609A"/>
<path d="M161.218 95.9395H112.705C112.705 88.0142 110.122 80.8472 105.959 75.7055C101.896 70.7014 96.3467 67.6103 90.2207 67.6103H138.733C151.155 67.6103 161.218 80.2953 161.218 95.9395Z" fill="#DBF1FE"/>
<path d="M148.237 72.7275H106.495C104.784 71.2103 102.89 69.9937 100.871 69.1221H142.624C144.637 69.9937 146.525 71.2103 148.237 72.7275Z" fill="#05609A"/>
<path d="M154.348 80.7852H112.601C111.968 79.5119 111.247 78.3085 110.457 77.1861H152.204C152.994 78.3085 153.709 79.5119 154.348 80.7852Z" fill="#05609A"/>
<path d="M169.32 91.5121V205.345H99.9608C99.4851 205.345 99.0147 205.311 98.5557 205.249C98.1708 205.197 97.7911 205.124 97.4171 205.033C92.88 203.895 89.515 199.788 89.515 194.899V146.375C80.2927 140.354 74.2031 129.941 74.2031 118.102C74.2031 101.726 85.8616 88.0679 101.337 84.9861C102.697 84.7145 104.085 84.5278 105.495 84.4255C106.317 84.363 107.138 84.3347 107.97 84.3347H162.143C166.108 84.3347 169.32 87.5466 169.32 91.5121Z" fill="#05609A"/>
<path d="M170.051 207.08H105.723C104.355 207.08 103.246 205.971 103.246 204.603V91.8424C103.246 90.4743 104.355 89.3652 105.723 89.3652H170.051C171.418 89.3652 172.527 90.4743 172.527 91.8424V204.603C172.527 205.971 171.418 207.08 170.051 207.08Z" fill="#051445"/>
<path d="M169.32 195.228H106.453V95.9427H169.32V195.228Z" fill="#02CDCD"/>
<path d="M141.757 201.154C141.757 203.469 139.881 205.345 137.566 205.345C135.251 205.345 133.375 203.469 133.375 201.154C133.375 198.84 135.251 196.963 137.566 196.963C139.881 196.963 141.757 198.84 141.757 201.154Z" fill="#05609A"/>
<path d="M144.976 93.8359H130.796C130.283 93.8359 129.867 93.4198 129.867 92.9071V92.3592C129.867 91.846 130.283 91.4304 130.796 91.4304H144.976C145.489 91.4304 145.904 91.846 145.904 92.3592V92.9071C145.904 93.4198 145.489 93.8359 144.976 93.8359Z" fill="#05609A"/>
<path d="M161.371 130H161.068C160.079 130 159.277 130.802 159.277 131.791V190.463C159.277 191.452 160.079 192.254 161.068 192.254H161.371C162.36 192.254 163.162 191.452 163.162 190.463V131.791C163.162 130.802 162.36 130 161.371 130Z" fill="#05609A"/>
<path d="M151.568 174.221H124.205L127.088 150.177H148.686L151.568 174.221Z" fill="#ECF0FB"/>
<path d="M143.281 150.177H142.529C142.529 146.763 140.452 144.001 137.885 144.001C135.319 144.001 133.242 146.763 133.242 150.177H132.482C132.482 146.212 134.902 143 137.885 143C140.869 143 143.281 146.212 143.281 150.177Z" fill="#051445"/>
<path d="M124.203 174.221L137.884 171.223L151.566 174.221H124.203Z" fill="#BDD2FF"/>
<path d="M156.024 121.461C156.257 121.809 156.665 122.059 157.189 122.059H159.925C160.216 122.059 160.449 121.76 160.333 121.51L157.48 116.626C157.363 116.377 157.363 116.127 157.538 115.878L162.895 109H159.343C158.935 109 158.528 109.199 158.295 109.498L153.229 115.928C153.055 116.127 153.055 116.427 153.171 116.676L156.024 121.461Z" fill="#01579B"/>
<path d="M153.752 112.54C153.519 112.191 153.111 111.941 152.587 111.941H149.85C149.559 111.941 149.326 112.24 149.443 112.49L152.296 117.374C152.412 117.623 152.412 117.873 152.238 118.122L146.881 125H150.433C150.84 125 151.248 124.801 151.481 124.502L156.488 118.072C156.663 117.873 156.663 117.574 156.546 117.324L153.752 112.54Z" fill="#0288D1"/>
<path fill-rule="evenodd" clip-rule="evenodd" d="M141.35 117.423L143.62 117.623C144.319 117.672 144.901 118.121 145.076 118.719C145.134 119.118 145.134 119.467 145.076 119.866V119.965C144.96 120.563 144.377 121.012 143.62 121.062H143.562C142.747 121.112 141.874 121.112 141 121.062C140.243 121.012 139.661 120.513 139.545 119.866V119.766V119.018H140.593C140.709 119.018 140.767 119.068 140.767 119.168V119.267C140.767 119.417 140.767 119.517 140.825 119.666C140.884 119.915 141.117 120.065 141.408 120.115H141.524C142.048 120.165 142.572 120.165 143.096 120.115C143.387 120.065 143.62 119.866 143.679 119.616V119.566C143.737 119.367 143.737 119.118 143.679 118.919C143.62 118.719 143.446 118.619 143.213 118.57L140.651 118.271C140.069 118.221 139.603 117.822 139.486 117.324C139.37 116.875 139.37 116.426 139.486 115.978C139.603 115.479 140.069 115.081 140.651 115.031H140.709C141.641 114.931 142.63 114.931 143.62 115.031C144.261 115.081 144.727 115.479 144.843 116.028V116.177V116.775H143.737C143.679 116.775 143.62 116.725 143.62 116.676C143.62 116.576 143.62 116.426 143.562 116.277C143.504 116.028 143.271 115.878 142.98 115.828H142.863C142.398 115.778 141.932 115.778 141.466 115.828C141.175 115.878 140.942 116.078 140.884 116.327C140.825 116.526 140.825 116.775 140.884 116.975V117.074C140.942 117.274 141.117 117.423 141.35 117.423ZM133.37 115.03H132.497C132.322 115.03 132.205 115.13 132.147 115.23L130.284 119.865L128.421 115.18C128.362 115.08 128.246 114.981 128.071 114.981H127.198C127.082 114.981 127.023 115.08 127.023 115.18L129.236 120.762C129.294 120.862 129.411 120.962 129.585 120.962H129.876H130.75H131.099C131.157 120.962 131.216 120.912 131.274 120.862L133.486 115.18C133.545 115.13 133.486 115.03 133.37 115.03ZM118 120.713V115.181C118 115.081 118.058 115.031 118.175 115.031H119.397V120.863C119.397 120.962 119.339 121.012 119.223 121.012H118.349C118.175 121.012 118 120.863 118 120.713ZM135.293 115.031H138.845C138.903 115.031 139.019 115.081 138.961 115.181V115.928H135.235V117.424H138.553V118.321H135.235V120.115H138.961V120.863C138.961 120.962 138.903 121.012 138.786 121.012H135.235H135.06H134.186C134.012 121.012 133.837 120.863 133.837 120.713V115.181C133.837 115.081 133.895 115.031 134.012 115.031H135.118H135.293ZM145.075 115.181V115.629C145.075 115.779 145.25 115.928 145.425 115.928H146.939V120.713C146.939 120.863 147.113 121.012 147.288 121.012H148.161C148.278 121.012 148.336 120.962 148.336 120.863V115.928H150.025C150.141 115.928 150.199 115.878 150.199 115.779V115.031H145.25C145.134 115.031 145.075 115.081 145.075 115.181ZM125.338 119.617V115.181C125.338 115.081 125.396 115.031 125.512 115.031H126.735V120.863C126.735 120.962 126.677 121.012 126.56 121.012H126.328H125.396H125.163C125.047 121.012 124.93 120.962 124.872 120.863L121.844 116.427V121.012H120.796C120.621 121.012 120.447 120.863 120.447 120.713V115.181C120.447 115.081 120.505 115.031 120.621 115.031H120.854H121.786H122.019C122.135 115.031 122.252 115.081 122.31 115.181L125.338 119.617Z" fill="black"/>
<path d="M146.891 141.569V180.9C146.891 183.424 148.937 185.47 151.46 185.47H220.1C222.624 185.47 224.669 183.424 224.669 180.9V141.569C224.669 139.046 222.624 137 220.1 137H151.46C148.937 137 146.891 139.046 146.891 141.569Z" fill="#303449"/>
<path d="M205.002 169.607H221.974V165.038H205.002V169.607Z" fill="white"/>
<path d="M186.529 169.607H203.501V165.038H186.529V169.607Z" fill="white"/>
<path d="M168.057 169.607H185.028V165.038H168.057V169.607Z" fill="white"/>
<path d="M149.586 169.607H166.558V165.038H149.586V169.607Z" fill="white"/>
<path d="M216.288 152.693H205.251C204.122 152.693 203.207 151.778 203.207 150.65V145.006C203.207 143.877 204.122 142.962 205.251 142.962H216.288C217.416 142.962 218.331 143.877 218.331 145.006V150.65C218.331 151.778 217.416 152.693 216.288 152.693Z" fill="#FEB313"/>
<path d="M105.496 84.4257C104.086 84.528 102.698 84.7147 101.338 84.9869C98.9646 86.7145 97.418 89.5183 97.418 92.6741V205.033C97.7919 205.125 98.1717 205.198 98.5566 205.249C98.5508 205.209 98.5508 205.176 98.5508 205.136V92.6741C98.5508 88.5438 101.559 85.1002 105.496 84.4257Z" fill="#051445"/>
<path d="M64.1176 73.5503C64.1176 79.1867 59.5481 83.7568 53.9111 83.7568C48.2746 83.7568 43.7051 79.1867 43.7051 73.5503C43.7051 67.9132 48.2746 63.3437 53.9111 63.3437C59.5481 63.3437 64.1176 67.9132 64.1176 73.5503Z" fill="#0496BE"/>
<path d="M53.5491 78.3291L48.1484 72.1285L50.4372 70.1351L53.8173 74.0162L63.9383 64.961L65.9618 67.2232L53.5491 78.3291Z" fill="#DBF1FE"/>
<path d="M64.1176 43.5903C64.1176 49.2274 59.5481 53.7969 53.9111 53.7969C48.2746 53.7969 43.7051 49.2274 43.7051 43.5903C43.7051 37.9539 48.2746 33.3838 53.9111 33.3838C59.5481 33.3838 64.1176 37.9539 64.1176 43.5903Z" fill="#0496BE"/>
<path d="M53.5491 48.3691L48.1484 42.1686L50.4372 40.1751L53.8173 44.0563L63.9383 35.001L65.9618 37.2633L53.5491 48.3691Z" fill="#DBF1FE"/>
</svg>
