<svg width="73" height="73" viewBox="0 0 73 73" fill="none" xmlns="http://www.w3.org/2000/svg">
<path d="M66.0042 6.58984H14.9211C11.0683 6.60674 7.94213 9.7329 7.94213 13.6026V13.6871H6.99583C3.14306 13.6871 0.0168981 16.7963 0 20.6491V59.3965C0.0168981 63.2493 3.12616 66.3924 6.99583 66.4093H58.0789C61.9317 66.3924 65.0579 63.2662 65.0579 59.3965V59.3121H66.0042C69.8569 59.3121 72.9831 56.2028 73 52.35V13.6026C72.9831 9.7329 69.8738 6.60674 66.0042 6.58984ZM58.0789 63.0296H6.99583C5.00185 63.0127 3.39653 61.3905 3.37963 59.3965V20.6491C3.39653 18.672 5.00185 17.0667 6.99583 17.0667H58.0789C60.056 17.0667 61.6782 18.6551 61.6782 20.6491V30.3148C61.3741 30.3824 61.0699 30.4162 60.7826 30.4162H51.0324C45.7264 30.4162 41.4174 34.7253 41.4174 40.0313C41.4174 45.3373 45.7264 49.6463 51.0324 49.6632H60.7657C61.0699 49.6463 61.3741 49.6125 61.6613 49.5787L61.6782 59.3965C61.6782 61.3905 60.0729 63.0127 58.0789 63.0296ZM69.6204 52.35C69.6035 54.3271 67.9981 55.9324 66.0042 55.9324H65.0579V48.3621C65.7845 47.872 66.4435 47.2637 67.0012 46.5878L69.6204 43.2081V52.35ZM64.3313 44.5431C63.4863 45.6415 62.1683 46.2836 60.7826 46.3005H51.0324C47.5852 46.2836 44.797 43.4954 44.797 40.0482C44.797 36.6009 47.5852 33.8128 51.0324 33.7959H60.7657C61.9317 33.7959 63.0808 33.5424 64.1285 33.0354C65.2438 32.5116 66.2238 31.7174 66.9843 30.7373L69.6035 27.3577L69.6204 37.6824L64.3313 44.5431ZM69.6204 21.832L65.0579 27.7125V20.6491C65.0579 16.7963 61.9317 13.6871 58.0789 13.6871H11.3218V13.6026C11.3218 11.6086 12.9271 9.98637 14.9211 9.96947H66.0042C67.9981 9.98637 69.6035 11.6086 69.6204 13.6026V21.832Z" fill="#A5A5A5"/>
<path d="M54.8176 38.3584H50.7621C49.8327 38.3584 49.0723 39.1188 49.0723 40.0482C49.0723 40.9776 49.8327 41.738 50.7621 41.738H54.8176C55.747 41.738 56.5074 40.9776 56.5074 40.0482C56.5074 39.1188 55.747 38.3584 54.8176 38.3584Z" fill="#4CB5EF"/>
</svg>
