<svg width="504" height="410" viewBox="0 0 504 410" fill="none" xmlns="http://www.w3.org/2000/svg"> <g opacity="0.220001"> <g opacity="0.220001"> <path opacity="0.220001" d="M270.766 45.6008C218.58 62.2621 53.2855 -19.8952 66.2215 92.3261C68.2429 109.013 78.9909 132.582 69.9135 148.161C63.3375 159.827 51.2815 166.663 39.6362 171.199C9.21754 183.566 -2.1078 206.775 5.59486 239.901C26.2002 329.161 138.37 307.993 197.255 281.526C239.132 261.83 288.522 258.447 331.886 275.109C365.858 288.675 387.035 317.135 426.907 308.798C462.268 301.702 467.604 268.318 457.279 237.241C451.412 218.014 447.2 209.89 458.836 191.331C468.64 172.899 485.899 158.933 487.227 137.339C487.516 113.951 476.77 90.3835 455.971 81.5248C438.955 74.2782 423.53 77.2035 406.696 72.7475C369.252 62.2248 345.19 4.04749 298.739 24.0555C287.158 29.5222 280.64 42.1208 268.02 45.7902" fill="#84DCF2"/> </g> </g> <g opacity="0.300003"> <g opacity="0.300003"> <path opacity="0.300003" d="M251.843 37.5898C256.572 37.5898 256.572 30.2565 251.843 30.2565C247.114 30.2565 247.114 37.5898 251.843 37.5898Z" fill="#84DCF2"/> </g> <g opacity="0.300003"> <path opacity="0.300003" d="M34.593 150.336C44.0517 150.336 44.0517 135.669 34.593 135.669C25.1344 135.669 25.1344 150.336 34.593 150.336Z" fill="#84DCF2"/> </g> <g opacity="0.300003"> <path opacity="0.300003" d="M475.51 208.82C484.969 208.82 484.969 194.154 475.51 194.154C466.051 194.154 466.051 208.82 475.51 208.82Z" fill="#84DCF2"/> </g> <g opacity="0.300003"> <path opacity="0.300003" d="M227.093 33.9219C236.552 33.9219 236.552 19.2552 227.093 19.2552C217.634 19.2552 217.634 33.9219 227.093 33.9219Z" fill="#84DCF2"/> </g> <g opacity="0.300003"> <path opacity="0.300003" d="M490.177 185.539C502.473 185.539 502.473 166.472 490.177 166.472C477.881 166.472 477.881 185.539 490.177 185.539Z" fill="#84DCF2"/> </g> <g opacity="0.300003"> <path opacity="0.300003" d="M9.84407 174.539C22.1401 174.539 22.1401 155.472 9.84407 155.472C-2.45193 155.472 -2.45193 174.539 9.84407 174.539Z" fill="#84DCF2"/> </g> <g opacity="0.300003"> <path opacity="0.300003" d="M416.843 59.9531C429.139 59.9531 429.139 40.8865 416.843 40.8865C404.547 40.8865 404.547 59.9531 416.843 59.9531Z" fill="#84DCF2"/> </g> <g opacity="0.300003"> <path opacity="0.300003" d="M248.177 22.0039C262.365 22.0039 262.365 0.00390625 248.177 0.00390625C233.99 0.00390625 233.99 22.0039 248.177 22.0039Z" fill="#84DCF2"/> </g> <g opacity="0.300003"> <path opacity="0.300003" d="M498.061 202.77C505.155 202.77 505.155 191.77 498.061 191.77C490.968 191.77 490.968 202.77 498.061 202.77Z" fill="#84DCF2"/> </g> <g opacity="0.300003"> <path opacity="0.300003" d="M7.27703 143.922C14.3704 143.922 14.3704 132.922 7.27703 132.922C0.183698 132.922 0.183698 143.922 7.27703 143.922Z" fill="#84DCF2"/> </g> <g opacity="0.300003"> <path opacity="0.300003" d="M439.76 70.5859C446.854 70.5859 446.854 59.5859 439.76 59.5859C432.667 59.5859 432.667 70.5859 439.76 70.5859Z" fill="#84DCF2"/> </g> <g opacity="0.300003"> <path opacity="0.300003" d="M437.927 50.4219C442.656 50.4219 442.656 43.0885 437.927 43.0885C433.198 43.0885 433.198 50.4219 437.927 50.4219Z" fill="#84DCF2"/> </g> <g opacity="0.300003"> <path opacity="0.300003" d="M66.4944 37.7695C75.9531 37.7695 75.9531 23.1029 66.4944 23.1029C57.0357 23.1029 57.0357 37.7695 66.4944 37.7695Z" fill="#84DCF2"/> </g> <g opacity="0.300003"> <path opacity="0.300003" d="M483.76 290.59C493.219 290.59 493.219 275.923 483.76 275.923C474.301 275.923 474.301 290.59 483.76 290.59Z" fill="#84DCF2"/> </g> <g opacity="0.300003"> <path opacity="0.300003" d="M7.094 297.004C16.5527 297.004 16.5527 282.337 7.094 282.337C-2.36467 282.337 -2.36467 297.004 7.094 297.004Z" fill="#84DCF2"/> </g> <g opacity="0.300003"> <path opacity="0.300003" d="M88.4943 26.7695C93.2236 26.7695 93.2236 19.4362 88.4943 19.4362C83.7649 19.4362 83.7649 26.7695 88.4943 26.7695Z" fill="#84DCF2"/> </g> <g opacity="0.300003"> <path opacity="0.300003" d="M484.677 261.254C489.406 261.254 489.406 253.921 484.677 253.921C479.948 253.921 479.948 261.254 484.677 261.254Z" fill="#84DCF2"/> </g> <g opacity="0.300003"> <path opacity="0.300003" d="M29.0929 306.172C33.8222 306.172 33.8222 298.839 29.0929 298.839C24.3636 298.839 24.3636 306.172 29.0929 306.172Z" fill="#84DCF2"/> </g> </g> <path d="M384.947 276.039C384.947 279.887 356.142 281.004 353.028 281.004H137.459C134.35 281.004 105.539 279.887 105.539 276.039L131.826 236.636C131.826 232.788 134.35 229.669 137.459 229.669H353.028C356.142 229.669 358.662 232.788 358.662 236.636L384.947 276.039Z" fill="#B4B4B4"/> <path d="M200.912 267.262H145.51L155.204 243.795H205.314L200.912 267.262Z" fill="#3C3C3A"/> <path d="M289.575 267.262H344.978L335.28 243.795H285.174L289.575 267.262Z" fill="#3C3C3A"/> <path d="M351.135 267.262H370.644L354.68 243.795H339.963L351.135 267.262Z" fill="#3C3C3A"/> <path d="M139.355 267.262H119.845L135.81 243.795H150.525L139.355 267.262Z" fill="#3C3C3A"/> <path d="M284.702 267.262H205.784L210.184 243.795H280.302L284.702 267.262Z" fill="#3C3C3A"/> <path d="M365.83 251.672H124.659V248.08H365.83V251.672Z" fill="#B4B4B4"/> <path d="M368.445 260.473H122.045V256.881H368.445V260.473Z" fill="#B4B4B4"/> <path d="M386.423 285.165C386.423 288.276 385.779 290.797 382.671 290.797H107.819C104.706 290.797 104.064 288.276 104.064 285.165V280.336C104.064 277.225 104.706 274.704 107.819 274.704H382.671C385.779 274.704 386.423 277.225 386.423 280.336V285.165Z" fill="#3C3C3A"/> <path d="M296.76 282.887C296.76 284.507 295.448 285.82 293.828 285.82H196.661C195.04 285.82 193.728 284.507 193.728 282.887C193.728 281.267 195.04 279.954 196.661 279.954H293.828C295.448 279.954 296.76 281.267 296.76 282.887Z" fill="#707070"/> <path d="M361.478 231.318C361.478 234.429 358.956 236.953 355.843 236.953H134.644C131.532 236.953 129.01 234.429 129.01 231.318V87.0078C129.01 83.8971 131.532 81.3745 134.644 81.3745H355.843C358.956 81.3745 361.478 83.8971 361.478 87.0078V231.318Z" fill="#3C3C3A"/> <path d="M245.245 89.2109C248.273 89.2109 248.273 84.5163 245.245 84.5163C242.217 84.5163 242.217 89.2109 245.245 89.2109Z" fill="white"/> <path d="M345.205 222.248C345.205 224.924 343.036 227.094 340.363 227.094H150.127C147.453 227.094 145.281 224.924 145.281 222.248V98.1457C145.281 95.4697 147.453 93.3004 150.127 93.3004H340.363C343.036 93.3004 345.205 95.4697 345.205 98.1457V222.248Z" fill="white"/> <path d="M216.142 143.603L199.547 160.195" stroke="#325975" stroke-width="4.4" stroke-miterlimit="10" stroke-linecap="round" stroke-linejoin="round"/> <path d="M216.141 160.195L199.548 143.602" stroke="#325975" stroke-width="4.4" stroke-miterlimit="10" stroke-linecap="round" stroke-linejoin="round"/> <path d="M290.941 143.603L274.347 160.195" stroke="#325975" stroke-width="4.4" stroke-miterlimit="10" stroke-linecap="round" stroke-linejoin="round"/> <path d="M290.941 160.195L274.349 143.602" stroke="#325975" stroke-width="4.4" stroke-miterlimit="10" stroke-linecap="round" stroke-linejoin="round"/> <path d="M283.493 180.22V196.597C283.493 199.838 280.865 202.465 277.627 202.465H274.463C271.223 202.465 268.595 199.838 268.595 196.597V180.22" fill="#F29BB4"/> <path d="M278.617 181.074L276.044 200.141L273.472 181.074H278.617Z" fill="#EF82A2"/> <path d="M195.52 180.199H294.969" stroke="#325975" stroke-width="3.66667" stroke-miterlimit="10" stroke-linecap="round" stroke-linejoin="round"/> <path d="M179.244 177.773C188.703 177.773 188.703 163.107 179.244 163.107C169.786 163.107 169.786 177.773 179.244 177.773Z" fill="#F7C3D2"/> <path d="M311.244 177.773C320.703 177.773 320.703 163.107 311.244 163.107C301.786 163.107 301.786 177.773 311.244 177.773Z" fill="#F7C3D2"/> <path d="M323.711 62.1546V110.555C323.711 115.284 331.044 115.284 331.044 110.555V62.1546C331.044 57.4252 323.711 57.4252 323.711 62.1546Z" fill="#F29101"/> <path d="M327.378 129.254C334.471 129.254 334.471 118.254 327.378 118.254C320.284 118.254 320.284 129.254 327.378 129.254Z" fill="#F29101"/> <path d="M343.27 350.884C343.27 357.363 338.018 362.617 331.535 362.617H159.937C153.455 362.617 148.202 357.363 148.202 350.884V327.417C148.202 320.937 153.455 315.684 159.937 315.684H331.535C338.018 315.684 343.27 320.937 343.27 327.417V350.884Z" fill="#4CB5EF"/> <path d="M177.978 349.022C177.333 349.022 177.01 348.785 177.01 348.312V343.568H167.201C167.029 343.568 166.857 343.375 166.685 342.988C166.513 342.6 166.427 342.246 166.427 341.923C166.427 341.729 166.448 341.611 166.491 341.568L177.107 326.758C177.343 326.456 177.709 326.306 178.204 326.306H178.72C179.365 326.306 179.688 326.542 179.688 327.016V341.245H181.85C182.087 341.245 182.248 341.321 182.334 341.471C182.442 341.622 182.495 341.869 182.495 342.213V342.6C182.495 342.945 182.442 343.192 182.334 343.343C182.248 343.493 182.087 343.568 181.85 343.568H179.688V348.312C179.688 348.785 179.365 349.022 178.72 349.022H177.978ZM177.01 341.245V333.243C177.01 332.146 177.064 331.318 177.171 330.759L177.042 330.694L169.621 341.245H177.01ZM191.729 349.151C190.373 349.151 189.147 348.742 188.05 347.924C186.953 347.086 186.071 345.806 185.404 344.085C184.737 342.364 184.404 340.224 184.404 337.664C184.404 335.104 184.737 332.964 185.404 331.243C186.071 329.522 186.953 328.253 188.05 327.435C189.147 326.596 190.373 326.177 191.729 326.177C193.084 326.177 194.321 326.596 195.439 327.435C196.558 328.253 197.451 329.522 198.117 331.243C198.784 332.964 199.118 335.104 199.118 337.664C199.118 340.224 198.784 342.364 198.117 344.085C197.451 345.806 196.558 347.086 195.439 347.924C194.321 348.742 193.084 349.151 191.729 349.151ZM191.729 346.827C192.568 346.827 193.331 346.516 194.02 345.892C194.729 345.268 195.299 344.278 195.73 342.923C196.16 341.546 196.375 339.793 196.375 337.664C196.375 335.534 196.16 333.792 195.73 332.436C195.299 331.06 194.729 330.06 194.02 329.436C193.331 328.812 192.568 328.5 191.729 328.5C190.911 328.5 190.148 328.812 189.438 329.436C188.749 330.038 188.19 331.028 187.76 332.404C187.351 333.781 187.147 335.534 187.147 337.664C187.147 339.793 187.351 341.546 187.76 342.923C188.19 344.3 188.749 345.3 189.438 345.924C190.148 346.526 190.911 346.827 191.729 346.827ZM212.513 349.022C211.868 349.022 211.545 348.785 211.545 348.312V343.568H201.736C201.564 343.568 201.392 343.375 201.22 342.988C201.048 342.6 200.962 342.246 200.962 341.923C200.962 341.729 200.983 341.611 201.026 341.568L211.642 326.758C211.879 326.456 212.244 326.306 212.739 326.306H213.256C213.901 326.306 214.224 326.542 214.224 327.016V341.245H216.385C216.622 341.245 216.783 341.321 216.869 341.471C216.977 341.622 217.031 341.869 217.031 342.213V342.6C217.031 342.945 216.977 343.192 216.869 343.343C216.783 343.493 216.622 343.568 216.385 343.568H214.224V348.312C214.224 348.785 213.901 349.022 213.256 349.022H212.513ZM211.545 341.245V333.243C211.545 332.146 211.599 331.318 211.707 330.759L211.578 330.694L204.156 341.245H211.545ZM229.531 348.957C229.186 348.957 228.939 348.882 228.788 348.731C228.638 348.581 228.563 348.333 228.563 347.989V327.338C228.563 326.994 228.638 326.747 228.788 326.596C228.939 326.446 229.186 326.37 229.531 326.37H240.792C241.028 326.37 241.19 326.446 241.276 326.596C241.383 326.747 241.437 326.994 241.437 327.338V327.855C241.437 328.199 241.383 328.446 241.276 328.597C241.19 328.747 241.028 328.823 240.792 328.823H231.402V336.179H239.824C240.06 336.179 240.222 336.255 240.308 336.405C240.415 336.556 240.469 336.803 240.469 337.147V337.664C240.469 338.008 240.415 338.255 240.308 338.406C240.222 338.556 240.06 338.632 239.824 338.632H231.402V346.505H240.824C241.06 346.505 241.222 346.58 241.308 346.731C241.415 346.881 241.469 347.129 241.469 347.473V347.989C241.469 348.333 241.415 348.581 241.308 348.731C241.222 348.882 241.06 348.957 240.824 348.957H229.531ZM247.435 349.022C246.575 349.022 246.145 348.785 246.145 348.312V327.338C246.145 326.994 246.22 326.747 246.37 326.596C246.521 326.446 246.768 326.37 247.113 326.37H252.533C255.115 326.37 257.051 326.833 258.341 327.758C259.654 328.661 260.31 330.103 260.31 332.082C260.31 333.415 259.987 334.545 259.342 335.47C258.696 336.373 257.782 337.061 256.599 337.535V337.664C257.223 337.879 257.739 338.298 258.148 338.922C258.578 339.546 259.03 340.471 259.503 341.697L262.02 348.054C262.084 348.247 262.117 348.398 262.117 348.505C262.117 348.849 261.665 349.022 260.761 349.022H260.439C260.116 349.022 259.836 348.979 259.6 348.892C259.363 348.785 259.213 348.656 259.148 348.505L256.696 342.181C256.223 340.955 255.631 340.127 254.921 339.696C254.211 339.245 253.2 339.019 251.888 339.019H248.984V348.312C248.984 348.785 248.554 349.022 247.693 349.022H247.435ZM253.243 336.567C253.996 336.567 254.684 336.384 255.308 336.018C255.954 335.652 256.459 335.168 256.825 334.566C257.191 333.964 257.373 333.308 257.373 332.598C257.373 331.329 256.986 330.382 256.212 329.758C255.437 329.135 254.373 328.823 253.017 328.823H248.984V336.567H253.243ZM267.129 349.022C266.269 349.022 265.839 348.785 265.839 348.312V327.338C265.839 326.994 265.914 326.747 266.064 326.596C266.215 326.446 266.462 326.37 266.807 326.37H272.227C274.809 326.37 276.745 326.833 278.035 327.758C279.348 328.661 280.004 330.103 280.004 332.082C280.004 333.415 279.681 334.545 279.036 335.47C278.39 336.373 277.476 337.061 276.293 337.535V337.664C276.917 337.879 277.433 338.298 277.842 338.922C278.272 339.546 278.724 340.471 279.197 341.697L281.714 348.054C281.778 348.247 281.811 348.398 281.811 348.505C281.811 348.849 281.359 349.022 280.455 349.022H280.133C279.81 349.022 279.53 348.979 279.294 348.892C279.057 348.785 278.907 348.656 278.842 348.505L276.39 342.181C275.917 340.955 275.325 340.127 274.615 339.696C273.905 339.245 272.894 339.019 271.582 339.019H268.678V348.312C268.678 348.785 268.248 349.022 267.387 349.022H267.129ZM272.937 336.567C273.69 336.567 274.379 336.384 275.002 336.018C275.648 335.652 276.153 335.168 276.519 334.566C276.885 333.964 277.067 333.308 277.067 332.598C277.067 331.329 276.68 330.382 275.906 329.758C275.131 329.135 274.067 328.823 272.711 328.823H268.678V336.567H272.937ZM293.865 349.151C290.638 349.151 288.175 348.172 286.476 346.214C284.777 344.235 283.927 341.364 283.927 337.599C283.927 333.835 284.766 330.995 286.444 329.081C288.143 327.145 290.617 326.177 293.865 326.177C297.113 326.177 299.587 327.145 301.286 329.081C302.986 330.995 303.835 333.835 303.835 337.599C303.835 341.364 302.986 344.235 301.286 346.214C299.587 348.172 297.113 349.151 293.865 349.151ZM293.865 346.698C296.145 346.698 297.888 345.924 299.092 344.375C300.297 342.826 300.899 340.568 300.899 337.599C300.899 334.652 300.297 332.426 299.092 330.92C297.888 329.393 296.145 328.629 293.865 328.629C291.585 328.629 289.842 329.393 288.638 330.92C287.455 332.426 286.863 334.652 286.863 337.599C286.863 340.568 287.455 342.826 288.638 344.375C289.842 345.924 291.585 346.698 293.865 346.698ZM310.109 349.022C309.249 349.022 308.819 348.785 308.819 348.312V327.338C308.819 326.994 308.894 326.747 309.045 326.596C309.195 326.446 309.443 326.37 309.787 326.37H315.208C317.789 326.37 319.725 326.833 321.016 327.758C322.328 328.661 322.984 330.103 322.984 332.082C322.984 333.415 322.661 334.545 322.016 335.47C321.371 336.373 320.456 337.061 319.273 337.535V337.664C319.897 337.879 320.413 338.298 320.822 338.922C321.252 339.546 321.704 340.471 322.177 341.697L324.694 348.054C324.759 348.247 324.791 348.398 324.791 348.505C324.791 348.849 324.339 349.022 323.436 349.022H323.113C322.79 349.022 322.511 348.979 322.274 348.892C322.037 348.785 321.887 348.656 321.822 348.505L319.37 342.181C318.897 340.955 318.305 340.127 317.595 339.696C316.885 339.245 315.874 339.019 314.562 339.019H311.658V348.312C311.658 348.785 311.228 349.022 310.368 349.022H310.109ZM315.917 336.567C316.67 336.567 317.359 336.384 317.983 336.018C318.628 335.652 319.133 335.168 319.499 334.566C319.865 333.964 320.048 333.308 320.048 332.598C320.048 331.329 319.66 330.382 318.886 329.758C318.112 329.135 317.047 328.823 315.692 328.823H311.658V336.567H315.917Z" fill="white"/> <path d="M88.6211 400.146C88.6211 399.556 88.4128 399.104 87.9961 398.792C87.5794 398.472 86.8294 398.139 85.7461 397.792C84.6628 397.438 83.8051 397.09 83.1732 396.75C81.451 395.819 80.5898 394.566 80.5898 392.99C80.5898 392.17 80.819 391.441 81.2773 390.802C81.7426 390.156 82.4058 389.653 83.2669 389.292C84.135 388.931 85.1072 388.75 86.1836 388.75C87.2669 388.75 88.2322 388.948 89.0794 389.344C89.9266 389.733 90.5829 390.285 91.0482 391C91.5204 391.715 91.7565 392.528 91.7565 393.438H88.6315C88.6315 392.743 88.4128 392.205 87.9753 391.823C87.5378 391.434 86.9232 391.24 86.1315 391.24C85.3676 391.24 84.7739 391.403 84.3503 391.729C83.9266 392.049 83.7148 392.472 83.7148 393C83.7148 393.493 83.9614 393.906 84.4544 394.24C84.9544 394.573 85.6871 394.885 86.6523 395.177C88.4301 395.712 89.7253 396.375 90.5378 397.167C91.3503 397.958 91.7565 398.944 91.7565 400.125C91.7565 401.438 91.26 402.469 90.2669 403.219C89.2739 403.962 87.9371 404.333 86.2565 404.333C85.0898 404.333 84.0273 404.122 83.069 403.698C82.1107 403.267 81.378 402.681 80.8711 401.938C80.3711 401.194 80.1211 400.333 80.1211 399.354H83.2565C83.2565 401.028 84.2565 401.865 86.2565 401.865C86.9996 401.865 87.5794 401.715 87.9961 401.417C88.4128 401.111 88.6211 400.688 88.6211 400.146ZM106.34 396.885C106.34 398.378 106.076 399.688 105.548 400.813C105.02 401.938 104.263 402.806 103.277 403.417C102.298 404.028 101.173 404.333 99.9023 404.333C98.6454 404.333 97.5239 404.031 96.5378 403.427C95.5516 402.823 94.7878 401.962 94.2461 400.844C93.7044 399.719 93.4301 398.427 93.4232 396.969V396.219C93.4232 394.726 93.6905 393.413 94.2253 392.281C94.7669 391.142 95.5273 390.271 96.5065 389.667C97.4926 389.056 98.6176 388.75 99.8815 388.75C101.145 388.75 102.267 389.056 103.246 389.667C104.232 390.271 104.993 391.142 105.527 392.281C106.069 393.413 106.34 394.722 106.34 396.208V396.885ZM103.173 396.198C103.173 394.608 102.888 393.399 102.319 392.573C101.75 391.747 100.937 391.333 99.8815 391.333C98.8329 391.333 98.0239 391.743 97.4544 392.563C96.885 393.375 96.5968 394.569 96.5898 396.146V396.885C96.5898 398.434 96.8746 399.635 97.444 400.49C98.0135 401.344 98.8329 401.771 99.9023 401.771C100.951 401.771 101.757 401.361 102.319 400.542C102.882 399.715 103.166 398.514 103.173 396.938V396.198ZM114.225 398.573H111.736V404.125H108.611V388.958H114.246C116.038 388.958 117.42 389.358 118.392 390.156C119.364 390.955 119.85 392.083 119.85 393.542C119.85 394.576 119.625 395.441 119.173 396.135C118.729 396.823 118.052 397.372 117.142 397.781L120.423 403.979V404.125H117.069L114.225 398.573ZM111.736 396.042H114.257C115.041 396.042 115.649 395.844 116.079 395.448C116.51 395.045 116.725 394.493 116.725 393.792C116.725 393.076 116.52 392.514 116.111 392.104C115.708 391.694 115.086 391.49 114.246 391.49H111.736V396.042ZM127.85 398.573H125.361V404.125H122.236V388.958H127.871C129.663 388.958 131.045 389.358 132.017 390.156C132.989 390.955 133.475 392.083 133.475 393.542C133.475 394.576 133.25 395.441 132.798 396.135C132.354 396.823 131.677 397.372 130.767 397.781L134.048 403.979V404.125H130.694L127.85 398.573ZM125.361 396.042H127.882C128.666 396.042 129.274 395.844 129.704 395.448C130.135 395.045 130.35 394.493 130.35 393.792C130.35 393.076 130.145 392.514 129.736 392.104C129.333 391.694 128.711 391.49 127.871 391.49H125.361V396.042ZM140.59 395.792L143.746 388.958H147.163L142.184 398.625V404.125H139.007V398.625L134.027 388.958H137.454L140.59 395.792ZM146.715 407.927L145.142 407.104L145.517 406.427C145.982 405.58 146.222 404.736 146.236 403.896V401.563H148.777L148.767 403.646C148.76 404.417 148.566 405.194 148.184 405.979C147.802 406.764 147.312 407.413 146.715 407.927ZM167.444 391.49H162.798V404.125H159.673V391.49H155.09V388.958H167.444V391.49ZM181.579 404.125H178.454V397.625H172.361V404.125H169.236V388.958H172.361V395.104H178.454V388.958H181.579V404.125ZM193.444 397.552H187.444V401.615H194.486V404.125H184.319V388.958H194.465V391.49H187.444V395.104H193.444V397.552ZM204.757 398.781V404.125H201.632V388.958H207.548C208.687 388.958 209.687 389.167 210.548 389.583C211.416 390 212.083 390.594 212.548 391.365C213.013 392.128 213.246 393 213.246 393.979C213.246 395.465 212.736 396.639 211.715 397.5C210.701 398.354 209.295 398.781 207.496 398.781H204.757ZM204.757 396.25H207.548C208.375 396.25 209.003 396.056 209.434 395.667C209.871 395.278 210.09 394.722 210.09 394C210.09 393.257 209.871 392.656 209.434 392.198C208.996 391.74 208.392 391.503 207.621 391.49H204.757V396.25ZM222.111 401H216.631L215.59 404.125H212.267L217.913 388.958H220.809L226.486 404.125H223.163L222.111 401ZM217.475 398.469H221.267L219.361 392.792L217.475 398.469ZM239.673 402.208C239.111 402.882 238.316 403.406 237.288 403.781C236.26 404.149 235.121 404.333 233.871 404.333C232.559 404.333 231.406 404.049 230.413 403.479C229.427 402.903 228.663 402.069 228.121 400.979C227.586 399.889 227.312 398.608 227.298 397.135V396.104C227.298 394.59 227.552 393.281 228.059 392.177C228.572 391.066 229.309 390.219 230.267 389.635C231.232 389.045 232.361 388.75 233.652 388.75C235.451 388.75 236.857 389.181 237.871 390.042C238.885 390.896 239.486 392.142 239.673 393.781H236.631C236.493 392.913 236.184 392.278 235.704 391.875C235.232 391.472 234.579 391.271 233.746 391.271C232.684 391.271 231.875 391.67 231.319 392.469C230.763 393.267 230.482 394.455 230.475 396.031V397C230.475 398.59 230.777 399.792 231.381 400.604C231.986 401.417 232.871 401.823 234.038 401.823C235.211 401.823 236.048 401.573 236.548 401.073V398.458H233.704V396.156H239.673V402.208ZM251.34 397.552H245.34V401.615H252.382V404.125H242.215V388.958H252.361V391.49H245.34V395.104H251.34V397.552ZM262.85 404.125H259.725V388.958H262.85V404.125ZM273.621 400.146C273.621 399.556 273.413 399.104 272.996 398.792C272.579 398.472 271.829 398.139 270.746 397.792C269.663 397.438 268.805 397.09 268.173 396.75C266.451 395.819 265.59 394.566 265.59 392.99C265.59 392.17 265.819 391.441 266.277 390.802C266.743 390.156 267.406 389.653 268.267 389.292C269.135 388.931 270.107 388.75 271.184 388.75C272.267 388.75 273.232 388.948 274.079 389.344C274.927 389.733 275.583 390.285 276.048 391C276.52 391.715 276.756 392.528 276.756 393.438H273.631C273.631 392.743 273.413 392.205 272.975 391.823C272.538 391.434 271.923 391.24 271.131 391.24C270.368 391.24 269.774 391.403 269.35 391.729C268.927 392.049 268.715 392.472 268.715 393C268.715 393.493 268.961 393.906 269.454 394.24C269.954 394.573 270.687 394.885 271.652 395.177C273.43 395.712 274.725 396.375 275.538 397.167C276.35 397.958 276.756 398.944 276.756 400.125C276.756 401.438 276.26 402.469 275.267 403.219C274.274 403.962 272.937 404.333 271.256 404.333C270.09 404.333 269.027 404.122 268.069 403.698C267.111 403.267 266.378 402.681 265.871 401.938C265.371 401.194 265.121 400.333 265.121 399.354H268.256C268.256 401.028 269.256 401.865 271.256 401.865C272 401.865 272.579 401.715 272.996 401.417C273.413 401.111 273.621 400.688 273.621 400.146ZM296.527 404.125H293.402L287.319 394.146V404.125H284.194V388.958H287.319L293.413 398.958V388.958H296.527V404.125ZM311.715 396.885C311.715 398.378 311.451 399.688 310.923 400.813C310.395 401.938 309.638 402.806 308.652 403.417C307.673 404.028 306.548 404.333 305.277 404.333C304.02 404.333 302.899 404.031 301.913 403.427C300.927 402.823 300.163 401.962 299.621 400.844C299.079 399.719 298.805 398.427 298.798 396.969V396.219C298.798 394.726 299.066 393.413 299.6 392.281C300.142 391.142 300.902 390.271 301.881 389.667C302.868 389.056 303.993 388.75 305.256 388.75C306.52 388.75 307.642 389.056 308.621 389.667C309.607 390.271 310.368 391.142 310.902 392.281C311.444 393.413 311.715 394.722 311.715 396.208V396.885ZM308.548 396.198C308.548 394.608 308.263 393.399 307.694 392.573C307.125 391.747 306.312 391.333 305.256 391.333C304.208 391.333 303.399 391.743 302.829 392.563C302.26 393.375 301.972 394.569 301.965 396.146V396.885C301.965 398.434 302.25 399.635 302.819 400.49C303.388 401.344 304.208 401.771 305.277 401.771C306.326 401.771 307.131 401.361 307.694 400.542C308.256 399.715 308.541 398.514 308.548 396.938V396.198ZM324.506 391.49H319.861V404.125H316.736V391.49H312.152V388.958H324.506V391.49ZM340.111 397.927H334.111V404.125H330.986V388.958H340.861V391.49H334.111V395.406H340.111V397.927ZM355.131 396.885C355.131 398.378 354.868 399.688 354.34 400.813C353.812 401.938 353.055 402.806 352.069 403.417C351.09 404.028 349.965 404.333 348.694 404.333C347.437 404.333 346.316 404.031 345.329 403.427C344.343 402.823 343.579 401.962 343.038 400.844C342.496 399.719 342.222 398.427 342.215 396.969V396.219C342.215 394.726 342.482 393.413 343.017 392.281C343.559 391.142 344.319 390.271 345.298 389.667C346.284 389.056 347.409 388.75 348.673 388.75C349.937 388.75 351.059 389.056 352.038 389.667C353.024 390.271 353.784 391.142 354.319 392.281C354.861 393.413 355.131 394.722 355.131 396.208V396.885ZM351.965 396.198C351.965 394.608 351.68 393.399 351.111 392.573C350.541 391.747 349.729 391.333 348.673 391.333C347.625 391.333 346.816 391.743 346.246 392.563C345.677 393.375 345.388 394.569 345.382 396.146V396.885C345.382 398.434 345.666 399.635 346.236 400.49C346.805 401.344 347.625 401.771 348.694 401.771C349.743 401.771 350.548 401.361 351.111 400.542C351.673 399.715 351.958 398.514 351.965 396.938V396.198ZM368.881 388.958V398.948C368.881 400.608 368.361 401.92 367.319 402.885C366.284 403.851 364.868 404.333 363.069 404.333C361.298 404.333 359.892 403.865 358.85 402.927C357.809 401.99 357.277 400.701 357.256 399.063V388.958H360.381V398.969C360.381 399.962 360.618 400.688 361.09 401.146C361.569 401.597 362.229 401.823 363.069 401.823C364.826 401.823 365.718 400.899 365.746 399.052V388.958H368.881ZM383.777 404.125H380.652L374.569 394.146V404.125H371.444V388.958H374.569L380.663 398.958V388.958H383.777V404.125ZM386.506 404.125V388.958H391.173C392.506 388.958 393.697 389.26 394.746 389.865C395.802 390.462 396.625 391.316 397.215 392.427C397.805 393.531 398.1 394.788 398.1 396.198V396.896C398.1 398.306 397.809 399.559 397.225 400.656C396.649 401.753 395.833 402.604 394.777 403.208C393.722 403.813 392.531 404.118 391.204 404.125H386.506ZM389.631 391.49V401.615H391.142C392.364 401.615 393.298 401.215 393.944 400.417C394.59 399.618 394.92 398.476 394.934 396.99V396.188C394.934 394.646 394.614 393.479 393.975 392.688C393.336 391.889 392.402 391.49 391.173 391.49H389.631Z" fill="#0288D1"/> </svg>