<svg width="105" height="117" viewBox="0 0 105 117" fill="none" xmlns="http://www.w3.org/2000/svg">
<path d="M30.7527 15.6973H74.2448C84.2034 15.6973 92.2765 23.7704 92.2765 33.729V57.6001C92.2765 58.5818 91.4806 59.3777 90.4989 59.3777H48.7846L25.9629 32.8857L30.7527 15.6973Z" fill="#9DC6FB"/>
<path d="M74.2444 15.6973H68.9562C78.9148 15.6973 86.9879 23.7704 86.9879 33.729V57.6001C86.9879 58.5818 86.192 59.3777 85.2103 59.3777H90.4985C91.4802 59.3777 92.2761 58.5818 92.2761 57.6001V33.729C92.2761 23.7704 84.203 15.6973 74.2444 15.6973Z" fill="#80B4FB"/>
<path d="M48.7867 59.3777H14.5007C13.519 59.3777 12.7231 58.5818 12.7231 57.6001V33.729C12.7231 23.7704 20.7962 15.6973 30.7548 15.6973C40.7134 15.6973 48.7865 23.7704 48.7865 33.729V59.3777H48.7867Z" fill="#26457D"/>
<path d="M30.7533 15.6973C30.0849 15.6973 29.4252 15.7348 28.7757 15.8055C37.8039 16.7905 44.8301 24.4387 44.8301 33.729V59.3781H48.7852V33.7292C48.7852 23.7704 40.7121 15.6973 30.7533 15.6973Z" fill="#21386B"/>
<path d="M66.1827 67.8995H49.8449C47.8992 67.8995 46.3219 66.3222 46.3219 64.3765V59.3789H69.7057V64.3765C69.7059 66.3222 68.1285 67.8995 66.1827 67.8995Z" fill="#F9F6F6"/>
<path d="M64.9106 59.3789V64.3765C64.9106 66.3222 63.3333 67.8995 61.3875 67.8995H66.1853C68.1311 67.8995 69.7084 66.3222 69.7084 64.3765V59.3789H64.9106Z" fill="#DDDAEC"/>
<path d="M52.8058 67.8984H63.2217V103.461H52.8058V67.8984Z" fill="#DDDAEC"/>
<path d="M52.8058 67.8984V71.863C56.3373 71.863 59.2002 74.7259 59.2002 78.2573V103.461H63.2217V67.8984H52.8058Z" fill="#D0CEE7"/>
<path d="M74.6815 10.3469H63.222V1.53711H74.6815C75.193 1.53711 75.6079 1.95178 75.6079 2.46345V9.42072C75.6079 9.93219 75.1932 10.3469 74.6815 10.3469Z" fill="#E7A561"/>
<path d="M74.6822 1.53711H70.797C71.3084 1.53711 71.7233 1.95178 71.7233 2.46345V9.42072C71.7233 9.93239 71.3086 10.3471 70.797 10.3471H74.6822C75.1936 10.3471 75.6085 9.93239 75.6085 9.42072V2.46345C75.6085 1.95178 75.1939 1.53711 74.6822 1.53711Z" fill="#E49542"/>
<path d="M48.7868 59.3784H26.8V37.8651C26.8 37.1262 27.399 36.5273 28.1377 36.5273H48.7868V59.3784Z" fill="#FFE07D"/>
<path d="M44.8322 36.5273H48.7873V59.3784H44.8322V36.5273Z" fill="#FFD064"/>
<path d="M28.1362 36.5273C27.7894 36.5273 27.4744 36.6604 27.2368 36.8768L43.918 47.5948C44.6266 48.0501 45.5521 47.9748 46.1778 47.4112L48.7851 45.0631V36.5273H28.1362Z" fill="#E7A561"/>
<path d="M44.8322 36.5273V47.8874C45.3149 47.9125 45.802 47.7517 46.1798 47.4115L48.7871 45.0633V36.5275H44.8322V36.5273Z" fill="#E49542"/>
<path d="M80.1579 50.5725H63.024C62.1203 50.5725 61.3875 49.8397 61.3875 48.936V43.8455C61.3875 42.9417 62.1203 42.209 63.024 42.209H80.1579C81.0617 42.209 81.7944 42.9417 81.7944 43.8455V48.936C81.7946 49.8397 81.0619 50.5725 80.1579 50.5725Z" fill="#F9F6F6"/>
<path d="M80.1578 42.209H75.5706C76.4744 42.209 77.2071 42.9417 77.2071 43.8455V48.936C77.2071 49.8397 76.4744 50.5725 75.5706 50.5725H80.1578C81.0616 50.5725 81.7943 49.8397 81.7943 48.936V43.8457C81.7945 42.9419 81.0618 42.209 80.1578 42.209Z" fill="#DDDAEC"/>
<path d="M91.8065 25.0852C91.431 24.3233 90.5089 24.0097 89.7467 24.386C88.9848 24.7617 88.6719 25.6838 89.0476 26.4459C90.1706 28.723 90.7399 31.1735 90.7399 33.7294V57.6005C90.7399 57.7328 90.6324 57.8402 90.5003 57.8402C89.088 57.8402 51.7069 57.84 50.3241 57.84V33.7294C50.3241 26.809 46.7131 20.7164 41.2767 17.2358H61.6854V22.8986C61.6854 23.7483 62.3739 24.4367 63.2235 24.4367C64.0731 24.4367 64.7616 23.7483 64.7616 22.8986V17.2358H74.2462C78.5564 17.2358 82.6339 18.8887 85.7282 21.89C86.027 22.1798 86.4131 22.324 86.7989 22.324C87.2004 22.324 87.6015 22.1677 87.9032 21.8568C88.4947 21.2471 88.4799 20.2734 87.87 19.682C84.1989 16.121 79.3605 14.1596 74.2462 14.1596H64.7616V11.8859H74.6831C76.0419 11.8859 77.1475 10.7803 77.1475 9.42149V2.46442C77.1471 1.10558 76.0415 0 74.6827 0H63.2231C62.3735 0 61.685 0.688447 61.685 1.53809V14.1596H30.7539C19.9631 14.1596 11.1839 22.9386 11.1839 33.7294V41.3466C11.1839 42.1963 11.8723 42.8847 12.722 42.8847C13.5716 42.8847 14.2601 42.1963 14.2601 41.3466V33.7294C14.2601 24.6348 21.6591 17.2358 30.7539 17.2358C39.8487 17.2358 47.2477 24.6348 47.2477 33.7294V34.9892H28.1367C26.5586 34.9892 25.2609 36.2783 25.2609 37.865V57.8402H14.5C14.3677 57.8402 14.2603 57.7328 14.2603 57.6005V47.4961C14.2603 46.6465 13.5718 45.958 12.7222 45.958C11.8726 45.958 11.1841 46.6465 11.1841 47.4961V57.6005C11.1841 59.429 12.6715 60.9164 14.5 60.9164H44.7853V64.3759C44.7853 67.1664 47.0558 69.437 49.8465 69.437H51.2693V103.462C51.2693 104.312 51.9577 105 52.8074 105C53.657 105 54.3455 104.312 54.3455 103.462V69.437H61.6852V83.6311C61.6852 84.4807 62.3737 85.1692 63.2233 85.1692C64.0729 85.1692 64.7614 84.4807 64.7614 83.6311V69.437H66.1842C68.9749 69.437 71.2455 67.1666 71.2455 64.3759V60.9164H90.5005C92.3288 60.9164 93.8162 59.429 93.8162 57.6005V33.7294C93.8158 30.6977 93.1397 27.7893 91.8065 25.0852ZM74.0709 8.80975H64.7612V3.07617H74.0709V8.80975ZM28.3368 57.84V39.4113L43.0871 48.8886C43.6494 49.2499 44.2888 49.4273 44.926 49.4273C45.7484 49.4273 46.5664 49.1316 47.2075 48.5541L47.2477 48.5178V57.84H28.3368ZM47.2477 38.0652V44.3781L45.1491 46.2681C45.0392 46.3669 44.875 46.3807 44.7501 46.3005L31.9327 38.0652H47.2477ZM68.1692 64.3759C68.1692 65.4704 67.2785 66.3608 66.184 66.3608H49.8463C48.7518 66.3608 47.8613 65.4704 47.8613 64.3759V60.9164H68.169L68.1692 64.3759Z" fill="black"/>
<path d="M63.2234 88.2424C62.3737 88.2424 61.6853 88.9309 61.6853 89.7805V103.462C61.6853 104.312 62.3737 105 63.2234 105C64.073 105 64.7614 104.312 64.7614 103.462V89.7805C64.7614 88.9311 64.0728 88.2424 63.2234 88.2424Z" fill="black"/>
<path d="M63.0234 40.6709C61.2729 40.6709 59.8488 42.0949 59.8488 43.8455V48.9359C59.8488 50.6865 61.2729 52.1105 63.0234 52.1105H80.1573C81.9078 52.1105 83.3319 50.6865 83.3319 48.9359V43.8457C83.3319 42.0951 81.9078 40.6711 80.1573 40.6711L63.0234 40.6709ZM80.2557 43.8457V48.9361C80.2557 48.9905 80.2114 49.0346 80.1573 49.0346H63.0234C62.9691 49.0346 62.925 48.9903 62.925 48.9361V43.8457C62.925 43.7913 62.9693 43.7473 63.0234 43.7473H80.1573C80.2116 43.747 80.2557 43.7913 80.2557 43.8457Z" fill="black"/>
<rect x="15.1792" y="60.9082" width="76.9043" height="55.7813" fill="white"/>
</svg>