<svg width="34" height="34" viewBox="0 0 34 34" fill="none" xmlns="http://www.w3.org/2000/svg">
<path d="M30.7417 3.06934H6.94954C5.15509 3.07721 3.69907 4.53322 3.69907 6.33554V6.37489H3.25833C1.46389 6.37489 0.00787037 7.82304 0 9.61748V27.6642C0.00787037 29.4587 1.45602 30.9226 3.25833 30.9304H27.0505C28.8449 30.9226 30.3009 29.4666 30.3009 27.6642V27.6249H30.7417C32.5361 27.6249 33.9921 26.1767 34 24.3823V6.33554C33.9921 4.53322 32.544 3.07721 30.7417 3.06934ZM27.0505 29.3564H3.25833C2.32963 29.3485 1.58194 28.5929 1.57407 27.6642V9.61748C1.58194 8.69665 2.32963 7.94897 3.25833 7.94897H27.0505C27.9713 7.94897 28.7269 8.68878 28.7269 9.61748V14.1193C28.5852 14.1508 28.4435 14.1666 28.3097 14.1666H23.7685C21.2972 14.1666 19.2903 16.1735 19.2903 18.6448C19.2903 21.1161 21.2972 23.123 23.7685 23.1309H28.3019C28.4435 23.123 28.5852 23.1073 28.719 23.0916L28.7269 27.6642C28.7269 28.5929 27.9792 29.3485 27.0505 29.3564ZM32.4259 24.3823C32.4181 25.3031 31.6704 26.0508 30.7417 26.0508H30.3009V22.5249C30.6394 22.2966 30.9463 22.0133 31.206 21.6985L32.4259 20.1244V24.3823ZM29.9625 20.7462C29.569 21.2578 28.9551 21.5568 28.3097 21.5647H23.7685C22.163 21.5568 20.8644 20.2582 20.8644 18.6527C20.8644 17.0471 22.163 15.7485 23.7685 15.7406H28.3019C28.8449 15.7406 29.3801 15.6226 29.8681 15.3865C30.3875 15.1425 30.844 14.7726 31.1981 14.3161L32.4181 12.742L32.4259 17.5508L29.9625 20.7462ZM32.4259 10.1684L30.3009 12.9073V9.61748C30.3009 7.82304 28.8449 6.37489 27.0505 6.37489H5.27315V6.33554C5.27315 5.40684 6.02083 4.65128 6.94954 4.64341H30.7417C31.6704 4.65128 32.4181 5.40684 32.4259 6.33554V10.1684Z" fill="#A5A5A5"/>
<path d="M25.5314 17.8652H23.6425C23.2096 17.8652 22.8555 18.2194 22.8555 18.6523C22.8555 19.0851 23.2096 19.4393 23.6425 19.4393H25.5314C25.9643 19.4393 26.3184 19.0851 26.3184 18.6523C26.3184 18.2194 25.9643 17.8652 25.5314 17.8652Z" fill="#4CB5EF"/>
</svg>
