<svg width="73" height="61" viewBox="0 0 73 61" fill="none" xmlns="http://www.w3.org/2000/svg">
<path d="M66.0042 0.589844H14.9211C11.0683 0.606742 7.94213 3.7329 7.94213 7.60257V7.68706H6.99583C3.14306 7.68706 0.0168981 10.7963 0 14.6491V53.3965C0.0168981 57.2493 3.12616 60.3924 6.99583 60.4093H58.0789C61.9317 60.3924 65.0579 57.2662 65.0579 53.3965V53.3121H66.0042C69.8569 53.3121 72.9831 50.2028 73 46.35V7.60257C72.9831 3.7329 69.8738 0.606742 66.0042 0.589844ZM58.0789 57.0296H6.99583C5.00185 57.0127 3.39653 55.3905 3.37963 53.3965V14.6491C3.39653 12.672 5.00185 11.0667 6.99583 11.0667H58.0789C60.056 11.0667 61.6782 12.6551 61.6782 14.6491V24.3148C61.3741 24.3824 61.0699 24.4162 60.7826 24.4162H51.0324C45.7264 24.4162 41.4174 28.7253 41.4174 34.0313C41.4174 39.3373 45.7264 43.6463 51.0324 43.6632H60.7657C61.0699 43.6463 61.3741 43.6125 61.6613 43.5787L61.6782 53.3965C61.6782 55.3905 60.0729 57.0127 58.0789 57.0296ZM69.6204 46.35C69.6035 48.3271 67.9981 49.9324 66.0042 49.9324H65.0579V42.3621C65.7845 41.872 66.4435 41.2637 67.0012 40.5878L69.6204 37.2081V46.35ZM64.3313 38.5431C63.4863 39.6415 62.1683 40.2836 60.7826 40.3005H51.0324C47.5852 40.2836 44.797 37.4954 44.797 34.0482C44.797 30.6009 47.5852 27.8128 51.0324 27.7959H60.7657C61.9317 27.7959 63.0808 27.5424 64.1285 27.0354C65.2438 26.5116 66.2238 25.7174 66.9843 24.7373L69.6035 21.3577L69.6204 31.6824L64.3313 38.5431ZM69.6204 15.832L65.0579 21.7125V14.6491C65.0579 10.7963 61.9317 7.68706 58.0789 7.68706H11.3218V7.60257C11.3218 5.60859 12.9271 3.98637 14.9211 3.96947H66.0042C67.9981 3.98637 69.6035 5.60859 69.6204 7.60257V15.832Z" fill="#A5A5A5"/>
</svg>