<svg width="13" height="13" viewBox="0 0 13 13" fill="none" xmlns="http://www.w3.org/2000/svg">
<g clip-path="url(#clip0)">
<path d="M6.5 1.52344C6.92069 1.52344 7.26172 1.1824 7.26172 0.761719C7.26172 0.341033 6.92069 0 6.5 0C6.07931 0 5.73828 0.341033 5.73828 0.761719C5.73828 1.1824 6.07931 1.52344 6.5 1.52344Z" fill="black"/>
<path d="M6.47458 6.9831C6.75504 6.9831 6.98239 6.75575 6.98239 6.47529C6.98239 6.33505 6.92557 6.2081 6.83368 6.11621L2.32684 1.60938L1.60864 2.32752L6.11548 6.83436C6.20739 6.92625 6.33435 6.9831 6.47458 6.9831Z" fill="black"/>
<path d="M11.5107 2.35999C10.6511 1.32093 9.48492 0.573223 8.19396 0.224609C8.24799 0.394346 8.27734 0.574975 8.27734 0.762383C8.27734 0.944078 8.24982 1.11945 8.19891 1.28467C10.4255 2.00947 11.9844 4.11153 11.9844 6.50066C11.9844 9.52476 9.5241 11.985 6.5 11.985C3.4759 11.985 1.01562 9.52476 1.01562 6.50066C1.01562 5.55849 1.25188 4.65294 1.69576 3.8509L0.953088 3.10822C0.332236 4.1191 0 5.28417 0 6.50066C0 8.23688 0.676127 9.86916 1.90379 11.0969C3.1315 12.3245 4.76379 13.0007 6.5 13.0007C8.23621 13.0007 9.8685 12.3245 11.0962 11.0969C12.3239 9.86916 13 8.23688 13 6.50066C13 4.9915 12.4711 3.52097 11.5107 2.35999Z" fill="black"/>
</g>
<defs>
<clipPath id="clip0">
<rect width="13" height="13" fill="white"/>
</clipPath>
</defs>
</svg>
