<svg width="40" height="46" viewBox="0 0 40 46" fill="none" xmlns="http://www.w3.org/2000/svg">
<path d="M35.7851 0H4.21504C2.41974 0 0.958984 1.24425 0.958984 2.77368V43.2263C0.958984 44.7557 2.41963 46 4.21504 46H30.0139C30.3146 46 30.6028 45.8982 30.8155 45.7172L38.7092 38.9928C38.9218 38.8118 39.0412 38.5661 39.0412 38.3101V2.77368C39.0412 1.24425 37.5806 0 35.7851 0ZM31.1476 42.7031V40.1181C31.1476 39.6536 31.5912 39.2756 32.1366 39.2756H35.1711L31.1476 42.7031ZM4.21504 1.93121H35.7851C36.3305 1.93121 36.7741 2.30909 36.7741 2.77368V5.75805H3.22606V2.77368C3.22606 2.30909 3.66976 1.93121 4.21504 1.93121ZM3.22606 43.2263V7.68926H36.7741V37.3444H32.1366C30.3411 37.3444 28.8805 38.5886 28.8805 40.1181V44.0688H4.21504C3.66976 44.0688 3.22606 43.6908 3.22606 43.2263Z" fill="#0288D1"/>
<path d="M7.8933 14.8394H22.7372C23.3633 14.8394 23.8708 14.4071 23.8708 13.8738C23.8708 13.3405 23.3633 12.9082 22.7372 12.9082H7.8933C7.26727 12.9082 6.75977 13.3405 6.75977 13.8738C6.75977 14.4071 7.26727 14.8394 7.8933 14.8394Z" fill="#0288D1"/>
<path d="M27.2712 14.8394H31.1037C31.7297 14.8394 32.2372 14.4071 32.2372 13.8738C32.2372 13.3405 31.7297 12.9082 31.1037 12.9082H27.2712C26.6452 12.9082 26.1377 13.3405 26.1377 13.8738C26.1377 14.4071 26.6452 14.8394 27.2712 14.8394Z" fill="#0288D1"/>
<path d="M7.8933 22.5054H22.7372C23.3633 22.5054 23.8708 22.0731 23.8708 21.5398C23.8708 21.0065 23.3633 20.5742 22.7372 20.5742H7.8933C7.26727 20.5742 6.75977 21.0065 6.75977 21.5398C6.75977 22.0731 7.26727 22.5054 7.8933 22.5054Z" fill="#0288D1"/>
<path d="M27.2712 22.5054H31.1037C31.7297 22.5054 32.2372 22.0731 32.2372 21.5398C32.2372 21.0065 31.7297 20.5742 31.1037 20.5742H27.2712C26.6452 20.5742 26.1377 21.0065 26.1377 21.5398C26.1377 22.0731 26.6452 22.5054 27.2712 22.5054Z" fill="#0288D1"/>
<path d="M23.8708 29.2078C23.8708 28.6745 23.3633 28.2422 22.7372 28.2422H7.8933C7.26727 28.2422 6.75977 28.6745 6.75977 29.2078C6.75977 29.7411 7.26727 30.1734 7.8933 30.1734H22.7372C23.3633 30.1734 23.8708 29.7411 23.8708 29.2078Z" fill="#0288D1"/>
<path d="M27.2712 30.1734H31.1037C31.7297 30.1734 32.2372 29.7411 32.2372 29.2078C32.2372 28.6745 31.7297 28.2422 31.1037 28.2422H27.2712C26.6452 28.2422 26.1377 28.6745 26.1377 29.2078C26.1377 29.7411 26.6452 30.1734 27.2712 30.1734Z" fill="#0288D1"/>
<path d="M31.103 35.691C31.729 35.691 32.2365 35.2587 32.2365 34.7254C32.2365 34.1921 31.729 33.7598 31.103 33.7598H20.3074C19.6813 33.7598 19.1738 34.1921 19.1738 34.7254C19.1738 35.2587 19.6813 35.691 20.3074 35.691H31.103Z" fill="#0288D1"/>
</svg>
