<svg width="914" height="337" viewBox="0 0 914 337" fill="none" xmlns="http://www.w3.org/2000/svg">
<path d="M25.7526 321.539H22.4518V311.031L19.2096 311.979V309.479L25.4499 307.32H25.7526V321.539ZM32.1295 318.346C32.6504 318.346 33.0833 318.502 33.4284 318.814C33.7734 319.12 33.9459 319.514 33.9459 319.996C33.9459 320.478 33.7734 320.875 33.4284 321.188C33.0833 321.493 32.6504 321.646 32.1295 321.646C31.6022 321.646 31.166 321.49 30.8209 321.178C30.4824 320.865 30.3131 320.471 30.3131 319.996C30.3131 319.521 30.4824 319.127 30.8209 318.814C31.166 318.502 31.6022 318.346 32.1295 318.346ZM44.9323 321.539H41.5143V307.32H44.9323V321.539ZM52.6959 318.57C52.6959 318.29 52.5495 318.066 52.2565 317.896C51.9635 317.727 51.4069 317.551 50.5866 317.369C49.7663 317.187 49.0892 316.949 48.5553 316.656C48.0215 316.357 47.6146 315.995 47.3346 315.572C47.0547 315.149 46.9147 314.664 46.9147 314.117C46.9147 313.147 47.3151 312.35 48.1159 311.725C48.9166 311.093 49.9648 310.777 51.2604 310.777C52.6536 310.777 53.7734 311.093 54.6198 311.725C55.4661 312.356 55.8893 313.186 55.8893 314.215H52.5885C52.5885 313.368 52.1426 312.945 51.2506 312.945C50.9056 312.945 50.6159 313.043 50.3815 313.238C50.1471 313.427 50.0299 313.665 50.0299 313.951C50.0299 314.244 50.1732 314.482 50.4596 314.664C50.7461 314.846 51.2018 314.996 51.8268 315.113C52.4583 315.23 53.0117 315.37 53.487 315.533C55.0755 316.08 55.8698 317.06 55.8698 318.473C55.8698 319.436 55.4401 320.221 54.5807 320.826C53.7278 321.432 52.6211 321.734 51.2604 321.734C50.3555 321.734 49.5482 321.572 48.8385 321.246C48.1289 320.921 47.5755 320.478 47.1784 319.918C46.7812 319.358 46.5827 318.769 46.5827 318.15H49.6588C49.6719 318.639 49.8346 318.997 50.1471 319.225C50.4596 319.446 50.86 319.557 51.3483 319.557C51.7975 319.557 52.1328 319.465 52.3541 319.283C52.582 319.101 52.6959 318.863 52.6959 318.57ZM60.8893 321.539H57.5885V310.973H60.8893V321.539ZM57.3932 308.248C57.3932 307.779 57.5625 307.395 57.901 307.096C58.2396 306.796 58.679 306.646 59.2194 306.646C59.7597 306.646 60.1992 306.796 60.5377 307.096C60.8763 307.395 61.0456 307.779 61.0456 308.248C61.0456 308.717 60.8763 309.101 60.5377 309.4C60.1992 309.7 59.7597 309.85 59.2194 309.85C58.679 309.85 58.2396 309.7 57.901 309.4C57.5625 309.101 57.3932 308.717 57.3932 308.248ZM77.0124 315.875H71.485V321.539H68.0573V307.32H77.569V309.967H71.485V313.238H77.0124V315.875ZM78.2135 316.158C78.2135 315.104 78.4186 314.166 78.8288 313.346C79.2389 312.519 79.8281 311.884 80.5963 311.441C81.3646 310.999 82.2663 310.777 83.3014 310.777C84.8834 310.777 86.1302 311.269 87.0416 312.252C87.9531 313.229 88.4088 314.56 88.4088 316.246V316.363C88.4088 318.01 87.9499 319.319 87.0319 320.289C86.1204 321.253 84.8834 321.734 83.3209 321.734C81.817 321.734 80.6094 321.285 79.6979 320.387C78.7864 319.482 78.2949 318.258 78.2233 316.715L78.2135 316.158ZM81.5045 316.363C81.5045 317.34 81.6575 318.056 81.9635 318.512C82.2695 318.967 82.722 319.195 83.3209 319.195C84.4928 319.195 85.0918 318.294 85.1178 316.49V316.158C85.1178 314.264 84.5124 313.316 83.3014 313.316C82.2012 313.316 81.6055 314.133 81.5143 315.768L81.5045 316.363ZM96.2506 313.951L95.1666 313.873C94.1315 313.873 93.4674 314.199 93.1745 314.85V321.539H89.8834V310.973H92.9694L93.0768 312.33C93.6302 311.295 94.4017 310.777 95.3913 310.777C95.7428 310.777 96.0488 310.816 96.3092 310.895L96.2506 313.951ZM100.548 310.973L100.655 312.213C101.404 311.256 102.409 310.777 103.673 310.777C105.007 310.777 105.909 311.308 106.378 312.369C107.094 311.308 108.129 310.777 109.483 310.777C111.625 310.777 112.725 312.073 112.784 314.664V321.539H109.483V314.869C109.483 314.329 109.392 313.935 109.21 313.688C109.027 313.44 108.695 313.316 108.214 313.316C107.562 313.316 107.077 313.606 106.758 314.186L106.768 314.322V321.539H103.467V314.889C103.467 314.335 103.38 313.935 103.204 313.688C103.028 313.44 102.693 313.316 102.198 313.316C101.566 313.316 101.085 313.606 100.753 314.186V321.539H97.4616V310.973H100.548ZM120.958 320.396C120.261 321.288 119.32 321.734 118.135 321.734C116.977 321.734 116.098 321.399 115.499 320.729C114.906 320.051 114.61 319.081 114.61 317.818V310.973H117.901V317.838C117.901 318.743 118.34 319.195 119.219 319.195C119.975 319.195 120.512 318.925 120.831 318.385V310.973H124.141V321.539H121.055L120.958 320.396ZM129.424 321.539H126.124V306.539H129.424V321.539ZM134.932 321.539H131.632V310.973H134.932V321.539ZM131.436 308.248C131.436 307.779 131.605 307.395 131.944 307.096C132.283 306.796 132.722 306.646 133.262 306.646C133.803 306.646 134.242 306.796 134.581 307.096C134.919 307.395 135.089 307.779 135.089 308.248C135.089 308.717 134.919 309.101 134.581 309.4C134.242 309.7 133.803 309.85 133.262 309.85C132.722 309.85 132.283 309.7 131.944 309.4C131.605 309.101 131.436 308.717 131.436 308.248ZM143.36 313.951L142.276 313.873C141.241 313.873 140.577 314.199 140.284 314.85V321.539H136.993V310.973H140.079L140.186 312.33C140.74 311.295 141.511 310.777 142.501 310.777C142.852 310.777 143.158 310.816 143.419 310.895L143.36 313.951Z" fill="#333333"/>
<path d="M524.285 313.053H525.838C527.068 313.053 527.683 312.451 527.683 311.246C527.683 310.777 527.537 310.396 527.244 310.104C526.951 309.804 526.537 309.654 526.004 309.654C525.567 309.654 525.187 309.781 524.861 310.035C524.542 310.289 524.382 310.605 524.382 310.982H521.091C521.091 310.234 521.3 309.566 521.716 308.98C522.133 308.395 522.709 307.939 523.445 307.613C524.187 307.281 525.001 307.115 525.886 307.115C527.468 307.115 528.712 307.477 529.617 308.199C530.522 308.922 530.974 309.915 530.974 311.178C530.974 311.79 530.785 312.369 530.408 312.916C530.037 313.456 529.493 313.896 528.777 314.234C529.532 314.508 530.125 314.924 530.554 315.484C530.984 316.038 531.199 316.725 531.199 317.545C531.199 318.814 530.711 319.83 529.734 320.592C528.757 321.354 527.475 321.734 525.886 321.734C524.955 321.734 524.09 321.559 523.289 321.207C522.494 320.849 521.892 320.357 521.482 319.732C521.072 319.101 520.867 318.385 520.867 317.584H524.177C524.177 318.02 524.353 318.398 524.705 318.717C525.056 319.036 525.489 319.195 526.004 319.195C526.583 319.195 527.045 319.036 527.39 318.717C527.735 318.391 527.908 317.978 527.908 317.477C527.908 316.76 527.729 316.253 527.371 315.953C527.013 315.654 526.518 315.504 525.886 315.504H524.285V313.053ZM534.949 318.346C535.47 318.346 535.903 318.502 536.248 318.814C536.593 319.12 536.765 319.514 536.765 319.996C536.765 320.478 536.593 320.875 536.248 321.188C535.903 321.493 535.47 321.646 534.949 321.646C534.422 321.646 533.985 321.49 533.64 321.178C533.302 320.865 533.132 320.471 533.132 319.996C533.132 319.521 533.302 319.127 533.64 318.814C533.985 318.502 534.422 318.346 534.949 318.346ZM547.527 316.715V321.539H544.099V307.32H549.773C550.86 307.32 551.821 307.522 552.654 307.926C553.494 308.323 554.142 308.893 554.597 309.635C555.06 310.37 555.291 311.207 555.291 312.145C555.291 313.531 554.793 314.641 553.797 315.475C552.807 316.301 551.446 316.715 549.715 316.715H547.527ZM547.527 314.068H549.773C550.437 314.068 550.942 313.902 551.287 313.57C551.638 313.238 551.814 312.77 551.814 312.164C551.814 311.5 551.635 310.969 551.277 310.572C550.919 310.175 550.431 309.973 549.812 309.967H547.527V314.068ZM563.367 313.951L562.283 313.873C561.248 313.873 560.584 314.199 560.291 314.85V321.539H557V310.973H560.086L560.193 312.33C560.746 311.295 561.518 310.777 562.507 310.777C562.859 310.777 563.165 310.816 563.425 310.895L563.367 313.951ZM570.213 321.539C570.095 321.324 569.991 321.008 569.9 320.592C569.295 321.354 568.448 321.734 567.361 321.734C566.365 321.734 565.519 321.435 564.822 320.836C564.125 320.23 563.777 319.472 563.777 318.561C563.777 317.415 564.2 316.549 565.047 315.963C565.893 315.377 567.123 315.084 568.738 315.084H569.754V314.527C569.754 313.557 569.334 313.072 568.494 313.072C567.713 313.072 567.322 313.456 567.322 314.225H564.031C564.031 313.202 564.464 312.372 565.33 311.734C566.202 311.096 567.312 310.777 568.66 310.777C570.007 310.777 571.072 311.106 571.853 311.764C572.634 312.421 573.035 313.323 573.054 314.469V319.146C573.067 320.117 573.217 320.859 573.504 321.373V321.539H570.213ZM568.152 319.391C568.562 319.391 568.901 319.303 569.168 319.127C569.441 318.951 569.636 318.753 569.754 318.531V316.842H568.797C567.651 316.842 567.078 317.356 567.078 318.385C567.078 318.684 567.179 318.928 567.381 319.117C567.582 319.299 567.84 319.391 568.152 319.391ZM583.445 318.902H589.412V321.539H580.017V307.32H583.445V318.902ZM594.177 321.539H590.877V310.973H594.177V321.539ZM590.681 308.248C590.681 307.779 590.851 307.395 591.189 307.096C591.528 306.796 591.967 306.646 592.507 306.646C593.048 306.646 593.487 306.796 593.826 307.096C594.164 307.395 594.334 307.779 594.334 308.248C594.334 308.717 594.164 309.101 593.826 309.4C593.487 309.7 593.048 309.85 592.507 309.85C591.967 309.85 591.528 309.7 591.189 309.4C590.851 309.101 590.681 308.717 590.681 308.248ZM601.746 318.57C601.746 318.29 601.599 318.066 601.306 317.896C601.013 317.727 600.457 317.551 599.636 317.369C598.816 317.187 598.139 316.949 597.605 316.656C597.071 316.357 596.664 315.995 596.384 315.572C596.104 315.149 595.965 314.664 595.965 314.117C595.965 313.147 596.365 312.35 597.166 311.725C597.966 311.093 599.015 310.777 600.31 310.777C601.703 310.777 602.823 311.093 603.67 311.725C604.516 312.356 604.939 313.186 604.939 314.215H601.638C601.638 313.368 601.192 312.945 600.3 312.945C599.955 312.945 599.666 313.043 599.431 313.238C599.197 313.427 599.08 313.665 599.08 313.951C599.08 314.244 599.223 314.482 599.509 314.664C599.796 314.846 600.252 314.996 600.877 315.113C601.508 315.23 602.062 315.37 602.537 315.533C604.125 316.08 604.92 317.06 604.92 318.473C604.92 319.436 604.49 320.221 603.631 320.826C602.778 321.432 601.671 321.734 600.31 321.734C599.405 321.734 598.598 321.572 597.888 321.246C597.179 320.921 596.625 320.478 596.228 319.918C595.831 319.358 595.632 318.769 595.632 318.15H598.709C598.722 318.639 598.884 318.997 599.197 319.225C599.509 319.446 599.91 319.557 600.398 319.557C600.847 319.557 601.183 319.465 601.404 319.283C601.632 319.101 601.746 318.863 601.746 318.57ZM610.3 308.346V310.973H612.039V313.258H610.3V318.092C610.3 318.489 610.372 318.766 610.515 318.922C610.659 319.078 610.942 319.156 611.365 319.156C611.69 319.156 611.964 319.137 612.185 319.098V321.451C611.593 321.64 610.974 321.734 610.33 321.734C609.197 321.734 608.36 321.467 607.82 320.934C607.28 320.4 607.009 319.589 607.009 318.502V313.258H605.662V310.973H607.009V308.346H610.3ZM616.814 321.539H613.513V310.973H616.814V321.539ZM613.318 308.248C613.318 307.779 613.487 307.395 613.826 307.096C614.164 306.796 614.604 306.646 615.144 306.646C615.685 306.646 616.124 306.796 616.463 307.096C616.801 307.395 616.97 307.779 616.97 308.248C616.97 308.717 616.801 309.101 616.463 309.4C616.124 309.7 615.685 309.85 615.144 309.85C614.604 309.85 614.164 309.7 613.826 309.4C613.487 309.101 613.318 308.717 613.318 308.248ZM621.873 310.973L621.98 312.213C622.709 311.256 623.715 310.777 624.998 310.777C626.098 310.777 626.918 311.106 627.459 311.764C628.006 312.421 628.289 313.411 628.308 314.732V321.539H625.007V314.869C625.007 314.335 624.9 313.945 624.685 313.697C624.47 313.443 624.08 313.316 623.513 313.316C622.869 313.316 622.39 313.57 622.078 314.078V321.539H618.787V310.973H621.873ZM629.754 316.178C629.754 315.11 629.929 314.166 630.281 313.346C630.632 312.525 631.137 311.894 631.795 311.451C632.452 311.002 633.217 310.777 634.09 310.777C635.19 310.777 636.049 311.148 636.668 311.891L636.785 310.973H639.773V321.139C639.773 322.07 639.555 322.877 639.119 323.561C638.689 324.251 638.064 324.778 637.244 325.143C636.423 325.514 635.473 325.699 634.392 325.699C633.618 325.699 632.866 325.553 632.136 325.26C631.414 324.967 630.86 324.586 630.476 324.117L631.853 322.184C632.465 322.906 633.272 323.268 634.275 323.268C635.733 323.268 636.463 322.519 636.463 321.021V320.689C635.831 321.386 635.034 321.734 634.07 321.734C632.781 321.734 631.739 321.243 630.945 320.26C630.151 319.27 629.754 317.949 629.754 316.295V316.178ZM633.054 316.383C633.054 317.249 633.217 317.936 633.543 318.443C633.868 318.945 634.324 319.195 634.91 319.195C635.619 319.195 636.137 318.958 636.463 318.482V314.039C636.144 313.557 635.632 313.316 634.929 313.316C634.343 313.316 633.884 313.58 633.552 314.107C633.22 314.628 633.054 315.387 633.054 316.383Z" fill="#333333"/>
<path d="M800.352 187.717H801.798V190.256H800.352V193.273H797.061V190.256H791.563L791.368 188.244L797.061 179.084V179.055H800.352V187.717ZM794.503 187.717H797.061V183.342L796.856 183.674L794.503 187.717ZM805.333 190.08C805.853 190.08 806.286 190.236 806.631 190.549C806.977 190.855 807.149 191.249 807.149 191.73C807.149 192.212 806.977 192.609 806.631 192.922C806.286 193.228 805.853 193.381 805.333 193.381C804.805 193.381 804.369 193.225 804.024 192.912C803.686 192.6 803.516 192.206 803.516 191.73C803.516 191.255 803.686 190.861 804.024 190.549C804.369 190.236 804.805 190.08 805.333 190.08ZM817.911 190.637H823.878V193.273H814.483V179.055H817.911V190.637ZM828.643 193.273H825.342V182.707H828.643V193.273ZM825.147 179.982C825.147 179.514 825.316 179.13 825.655 178.83C825.993 178.531 826.433 178.381 826.973 178.381C827.514 178.381 827.953 178.531 828.292 178.83C828.63 179.13 828.799 179.514 828.799 179.982C828.799 180.451 828.63 180.835 828.292 181.135C827.953 181.434 827.514 181.584 826.973 181.584C826.433 181.584 825.993 181.434 825.655 181.135C825.316 180.835 825.147 180.451 825.147 179.982ZM836.212 190.305C836.212 190.025 836.065 189.8 835.772 189.631C835.479 189.462 834.923 189.286 834.102 189.104C833.282 188.921 832.605 188.684 832.071 188.391C831.537 188.091 831.13 187.73 830.85 187.307C830.57 186.883 830.43 186.398 830.43 185.852C830.43 184.882 830.831 184.084 831.631 183.459C832.432 182.827 833.48 182.512 834.776 182.512C836.169 182.512 837.289 182.827 838.135 183.459C838.982 184.09 839.405 184.921 839.405 185.949H836.104C836.104 185.103 835.658 184.68 834.766 184.68C834.421 184.68 834.131 184.777 833.897 184.973C833.663 185.161 833.546 185.399 833.546 185.686C833.546 185.979 833.689 186.216 833.975 186.398C834.262 186.581 834.717 186.73 835.342 186.848C835.974 186.965 836.527 187.105 837.003 187.268C838.591 187.814 839.385 188.794 839.385 190.207C839.385 191.171 838.956 191.955 838.096 192.561C837.243 193.166 836.137 193.469 834.776 193.469C833.871 193.469 833.064 193.306 832.354 192.98C831.645 192.655 831.091 192.212 830.694 191.652C830.297 191.092 830.098 190.503 830.098 189.885H833.174C833.187 190.373 833.35 190.731 833.663 190.959C833.975 191.18 834.376 191.291 834.864 191.291C835.313 191.291 835.648 191.2 835.87 191.018C836.098 190.835 836.212 190.598 836.212 190.305ZM844.766 180.08V182.707H846.505V184.992H844.766V189.826C844.766 190.223 844.838 190.5 844.981 190.656C845.124 190.812 845.408 190.891 845.831 190.891C846.156 190.891 846.43 190.871 846.651 190.832V193.186C846.059 193.374 845.44 193.469 844.796 193.469C843.663 193.469 842.826 193.202 842.286 192.668C841.745 192.134 841.475 191.324 841.475 190.236V184.992H840.128V182.707H841.475V180.08H844.766ZM851.28 193.273H847.979V182.707H851.28V193.273ZM847.784 179.982C847.784 179.514 847.953 179.13 848.292 178.83C848.63 178.531 849.07 178.381 849.61 178.381C850.15 178.381 850.59 178.531 850.928 178.83C851.267 179.13 851.436 179.514 851.436 179.982C851.436 180.451 851.267 180.835 850.928 181.135C850.59 181.434 850.15 181.584 849.61 181.584C849.07 181.584 848.63 181.434 848.292 181.135C847.953 180.835 847.784 180.451 847.784 179.982ZM856.339 182.707L856.446 183.947C857.175 182.99 858.181 182.512 859.464 182.512C860.564 182.512 861.384 182.84 861.924 183.498C862.471 184.156 862.755 185.145 862.774 186.467V193.273H859.473V186.604C859.473 186.07 859.366 185.679 859.151 185.432C858.936 185.178 858.546 185.051 857.979 185.051C857.335 185.051 856.856 185.305 856.544 185.812V193.273H853.253V182.707H856.339ZM864.219 187.912C864.219 186.844 864.395 185.9 864.747 185.08C865.098 184.26 865.603 183.628 866.26 183.186C866.918 182.736 867.683 182.512 868.555 182.512C869.656 182.512 870.515 182.883 871.133 183.625L871.251 182.707H874.239V192.873C874.239 193.804 874.021 194.611 873.585 195.295C873.155 195.985 872.53 196.512 871.71 196.877C870.889 197.248 869.939 197.434 868.858 197.434C868.083 197.434 867.331 197.287 866.602 196.994C865.88 196.701 865.326 196.32 864.942 195.852L866.319 193.918C866.931 194.641 867.738 195.002 868.741 195.002C870.199 195.002 870.928 194.253 870.928 192.756V192.424C870.297 193.12 869.499 193.469 868.536 193.469C867.247 193.469 866.205 192.977 865.411 191.994C864.617 191.005 864.219 189.683 864.219 188.029V187.912ZM867.52 188.117C867.52 188.983 867.683 189.67 868.008 190.178C868.334 190.679 868.79 190.93 869.376 190.93C870.085 190.93 870.603 190.692 870.928 190.217V185.773C870.609 185.292 870.098 185.051 869.395 185.051C868.809 185.051 868.35 185.314 868.018 185.842C867.686 186.363 867.52 187.121 867.52 188.117Z" fill="#333333"/>
<path d="M266.523 192.332H256.601V190.184L261.172 185.379C262.298 184.096 262.861 183.077 262.861 182.322C262.861 181.71 262.727 181.245 262.461 180.926C262.194 180.607 261.806 180.447 261.298 180.447C260.797 180.447 260.39 180.662 260.078 181.092C259.765 181.515 259.609 182.046 259.609 182.684H256.308C256.308 181.811 256.526 181.007 256.963 180.271C257.399 179.529 258.004 178.95 258.779 178.533C259.554 178.117 260.42 177.908 261.377 177.908C262.913 177.908 264.095 178.263 264.922 178.973C265.755 179.682 266.172 180.701 266.172 182.029C266.172 182.589 266.067 183.136 265.859 183.67C265.651 184.197 265.325 184.754 264.882 185.34C264.446 185.919 263.74 186.697 262.763 187.674L260.927 189.793H266.523V192.332ZM270.273 189.139C270.794 189.139 271.227 189.295 271.572 189.607C271.917 189.913 272.089 190.307 272.089 190.789C272.089 191.271 271.917 191.668 271.572 191.98C271.227 192.286 270.794 192.439 270.273 192.439C269.746 192.439 269.31 192.283 268.964 191.971C268.626 191.658 268.457 191.264 268.457 190.789C268.457 190.314 268.626 189.92 268.964 189.607C269.31 189.295 269.746 189.139 270.273 189.139ZM290 180.76H285.732V192.332H282.304V180.76H278.115V178.113H290V180.76ZM295.615 192.332C295.498 192.117 295.394 191.801 295.302 191.385C294.697 192.146 293.851 192.527 292.763 192.527C291.767 192.527 290.921 192.228 290.224 191.629C289.528 191.023 289.179 190.265 289.179 189.354C289.179 188.208 289.602 187.342 290.449 186.756C291.295 186.17 292.526 185.877 294.14 185.877H295.156V185.32C295.156 184.35 294.736 183.865 293.896 183.865C293.115 183.865 292.724 184.249 292.724 185.018H289.433C289.433 183.995 289.866 183.165 290.732 182.527C291.604 181.889 292.714 181.57 294.062 181.57C295.41 181.57 296.474 181.899 297.255 182.557C298.037 183.214 298.437 184.116 298.457 185.262V189.939C298.47 190.91 298.619 191.652 298.906 192.166V192.332H295.615ZM293.554 190.184C293.964 190.184 294.303 190.096 294.57 189.92C294.843 189.744 295.039 189.546 295.156 189.324V187.635H294.199C293.053 187.635 292.48 188.149 292.48 189.178C292.48 189.477 292.581 189.721 292.783 189.91C292.985 190.092 293.242 190.184 293.554 190.184ZM303.505 182.898C304.209 182.013 305.107 181.57 306.201 181.57C307.366 181.57 308.245 181.915 308.838 182.605C309.43 183.296 309.733 184.314 309.746 185.662V192.332H306.445V185.74C306.445 185.18 306.331 184.77 306.103 184.51C305.875 184.243 305.488 184.109 304.941 184.109C304.264 184.109 303.785 184.324 303.505 184.754V192.332H300.214V177.332H303.505V182.898ZM317.529 192.332C317.412 192.117 317.308 191.801 317.216 191.385C316.611 192.146 315.765 192.527 314.677 192.527C313.681 192.527 312.835 192.228 312.138 191.629C311.442 191.023 311.093 190.265 311.093 189.354C311.093 188.208 311.517 187.342 312.363 186.756C313.209 186.17 314.44 185.877 316.054 185.877H317.07V185.32C317.07 184.35 316.65 183.865 315.81 183.865C315.029 183.865 314.638 184.249 314.638 185.018H311.347C311.347 183.995 311.78 183.165 312.646 182.527C313.519 181.889 314.629 181.57 315.976 181.57C317.324 181.57 318.388 181.899 319.17 182.557C319.951 183.214 320.351 184.116 320.371 185.262V189.939C320.384 190.91 320.533 191.652 320.82 192.166V192.332H317.529ZM315.468 190.184C315.879 190.184 316.217 190.096 316.484 189.92C316.757 189.744 316.953 189.546 317.07 189.324V187.635H316.113C314.967 187.635 314.394 188.149 314.394 189.178C314.394 189.477 314.495 189.721 314.697 189.91C314.899 190.092 315.156 190.184 315.468 190.184ZM332.011 187.127C332.011 188.768 331.64 190.079 330.898 191.062C330.162 192.039 329.166 192.527 327.91 192.527C326.94 192.527 326.142 192.173 325.517 191.463V196.395H322.226V181.766H325.302L325.4 182.742C326.032 181.961 326.862 181.57 327.89 181.57C329.192 181.57 330.205 182.052 330.927 183.016C331.65 183.973 332.011 185.291 332.011 186.971V187.127ZM328.72 186.922C328.72 185.047 328.173 184.109 327.08 184.109C326.298 184.109 325.778 184.389 325.517 184.949V189.109C325.804 189.695 326.331 189.988 327.099 189.988C328.147 189.988 328.688 189.083 328.72 187.273V186.922ZM345.937 188.553C345.937 188.051 345.758 187.661 345.4 187.381C345.048 187.101 344.427 186.811 343.535 186.512C342.643 186.212 341.914 185.923 341.347 185.643C339.505 184.738 338.584 183.494 338.584 181.912C338.584 181.124 338.811 180.431 339.267 179.832C339.729 179.227 340.38 178.758 341.22 178.426C342.06 178.087 343.004 177.918 344.052 177.918C345.075 177.918 345.989 178.1 346.797 178.465C347.61 178.829 348.242 179.35 348.691 180.027C349.14 180.698 349.365 181.466 349.365 182.332H345.947C345.947 181.753 345.768 181.303 345.41 180.984C345.058 180.665 344.58 180.506 343.974 180.506C343.362 180.506 342.877 180.643 342.519 180.916C342.168 181.183 341.992 181.525 341.992 181.941C341.992 182.306 342.187 182.638 342.578 182.938C342.968 183.23 343.655 183.536 344.638 183.855C345.621 184.168 346.429 184.507 347.06 184.871C348.597 185.757 349.365 186.977 349.365 188.533C349.365 189.777 348.896 190.753 347.959 191.463C347.021 192.173 345.735 192.527 344.101 192.527C342.949 192.527 341.904 192.322 340.966 191.912C340.035 191.495 339.332 190.929 338.857 190.213C338.388 189.49 338.154 188.66 338.154 187.723H341.591C341.591 188.484 341.787 189.048 342.177 189.412C342.575 189.77 343.216 189.949 344.101 189.949C344.668 189.949 345.114 189.829 345.439 189.588C345.771 189.34 345.937 188.995 345.937 188.553ZM356.084 192.527C354.463 192.527 353.151 192.046 352.148 191.082C351.145 190.112 350.644 188.852 350.644 187.303V187.029C350.644 185.949 350.843 184.995 351.24 184.168C351.644 183.341 352.229 182.703 352.998 182.254C353.766 181.798 354.677 181.57 355.732 181.57C357.216 181.57 358.388 182.033 359.248 182.957C360.107 183.875 360.537 185.158 360.537 186.805V188.084H353.994C354.111 188.676 354.368 189.142 354.765 189.48C355.162 189.819 355.677 189.988 356.308 189.988C357.35 189.988 358.164 189.624 358.75 188.895L360.254 190.672C359.843 191.238 359.261 191.691 358.505 192.029C357.757 192.361 356.95 192.527 356.084 192.527ZM355.713 184.109C354.749 184.109 354.176 184.747 353.994 186.023H357.314V185.77C357.327 185.242 357.194 184.835 356.914 184.549C356.634 184.256 356.233 184.109 355.713 184.109ZM365.341 192.332H362.041V177.332H365.341V192.332ZM372.49 192.527C370.869 192.527 369.557 192.046 368.554 191.082C367.552 190.112 367.05 188.852 367.05 187.303V187.029C367.05 185.949 367.249 184.995 367.646 184.168C368.05 183.341 368.636 182.703 369.404 182.254C370.172 181.798 371.084 181.57 372.138 181.57C373.623 181.57 374.795 182.033 375.654 182.957C376.513 183.875 376.943 185.158 376.943 186.805V188.084H370.4C370.517 188.676 370.774 189.142 371.172 189.48C371.569 189.819 372.083 189.988 372.714 189.988C373.756 189.988 374.57 189.624 375.156 188.895L376.66 190.672C376.25 191.238 375.667 191.691 374.912 192.029C374.163 192.361 373.356 192.527 372.49 192.527ZM372.119 184.109C371.155 184.109 370.582 184.747 370.4 186.023H373.72V185.77C373.733 185.242 373.6 184.835 373.32 184.549C373.04 184.256 372.64 184.109 372.119 184.109ZM382.519 188.396L381.591 189.324V192.332H378.3V177.322H381.591V185.291L381.923 184.852L384.404 181.766H388.349L384.648 186.111L388.593 192.332H384.824L382.519 188.396ZM394.746 189.363C394.746 189.083 394.599 188.859 394.306 188.689C394.013 188.52 393.457 188.344 392.636 188.162C391.816 187.98 391.139 187.742 390.605 187.449C390.071 187.15 389.664 186.788 389.384 186.365C389.104 185.942 388.964 185.457 388.964 184.91C388.964 183.94 389.365 183.143 390.166 182.518C390.966 181.886 392.015 181.57 393.31 181.57C394.703 181.57 395.823 181.886 396.67 182.518C397.516 183.149 397.939 183.979 397.939 185.008H394.638C394.638 184.161 394.192 183.738 393.3 183.738C392.955 183.738 392.666 183.836 392.431 184.031C392.197 184.22 392.08 184.458 392.08 184.744C392.08 185.037 392.223 185.275 392.509 185.457C392.796 185.639 393.252 185.789 393.877 185.906C394.508 186.023 395.061 186.163 395.537 186.326C397.125 186.873 397.92 187.853 397.92 189.266C397.92 190.229 397.49 191.014 396.63 191.619C395.778 192.225 394.671 192.527 393.31 192.527C392.405 192.527 391.598 192.365 390.888 192.039C390.179 191.714 389.625 191.271 389.228 190.711C388.831 190.151 388.632 189.562 388.632 188.943H391.709C391.722 189.432 391.884 189.79 392.197 190.018C392.509 190.239 392.91 190.35 393.398 190.35C393.847 190.35 394.183 190.258 394.404 190.076C394.632 189.894 394.746 189.656 394.746 189.363ZM402.939 192.332H399.638V181.766H402.939V192.332ZM399.443 179.041C399.443 178.572 399.612 178.188 399.951 177.889C400.289 177.589 400.729 177.439 401.269 177.439C401.81 177.439 402.249 177.589 402.588 177.889C402.926 178.188 403.095 178.572 403.095 179.041C403.095 179.51 402.926 179.894 402.588 180.193C402.249 180.493 401.81 180.643 401.269 180.643C400.729 180.643 400.289 180.493 399.951 180.193C399.612 179.894 399.443 179.51 399.443 179.041Z" fill="#333333"/>
<path d="M364.207 83.8625L598.454 207.812" stroke="#4CB5EF" stroke-width="7" stroke-dasharray="15 15"/>
<path d="M347.284 83.8625L97.8945 207.813" stroke="#4CB5EF" stroke-width="7" stroke-dasharray="15 15"/>
<path d="M847.843 83.8625L598.454 207.813" stroke="#4CB5EF" stroke-width="7" stroke-dasharray="15 15"/>
<g filter="url(#filter0_d)">
<ellipse cx="79.8191" cy="208.218" rx="65.7136" ry="67.2668" fill="white"/>
</g>
<path d="M112.828 214.263C112.828 225.595 106.668 235.541 97.3977 241.158C94.8619 242.696 87.3788 243.463 79.8956 243.463C72.4124 243.464 64.9293 242.696 62.3935 241.159C53.1229 235.543 46.9629 225.596 46.9629 214.263C46.9629 196.73 61.7064 182.518 79.8956 182.518C98.0831 182.518 112.828 196.73 112.828 214.263Z" fill="#48588B"/>
<path d="M112.827 214.263C112.827 225.595 106.667 235.541 97.3966 241.158C94.8609 242.696 87.3777 243.463 79.8945 243.463V182.518C98.082 182.518 112.827 196.73 112.827 214.263Z" fill="#3C4A83"/>
<path d="M89.1441 212.149C90.3519 207.224 87.1888 202.287 82.0791 201.123C76.9694 199.958 71.848 203.008 70.6401 207.933C69.4323 212.859 72.5954 217.795 77.7051 218.96C82.8148 220.124 87.9362 217.075 89.1441 212.149Z" fill="#F9C4B9"/>
<path d="M89.4032 210.021C89.4032 215.084 85.1464 219.187 79.8945 219.187V200.855C85.1464 200.855 89.4032 204.961 89.4032 210.021Z" fill="#FFB19E"/>
<path d="M97.3977 232.411V241.159C92.3279 244.233 86.3278 246.01 79.8956 246.01C73.4635 246.01 67.4634 244.233 62.3936 241.161V232.411C62.3936 225.107 68.5348 219.188 76.1098 219.188H83.6814C91.2564 219.188 97.3977 225.107 97.3977 232.411Z" fill="#60E2F4"/>
<path d="M97.3966 232.411V241.159C92.3268 244.233 86.3266 246.01 79.8945 246.01V219.188H83.6803C91.2553 219.188 97.3966 225.107 97.3966 232.411Z" fill="#29C5EC"/>
<path d="M120.402 172.389V177.928H115.3V172.389C115.3 169.412 112.786 166.989 109.697 166.989C106.607 166.989 104.095 169.412 104.095 172.389V177.928H98.9932V172.389C98.9932 166.7 103.794 162.07 109.697 162.07C115.601 162.07 120.402 166.7 120.402 172.389Z" fill="#CDDBF9"/>
<path d="M120.403 172.389V177.928H115.3V172.389C115.3 169.412 112.787 166.989 109.698 166.989V162.07C115.601 162.07 120.403 166.7 120.403 172.389Z" fill="#AFC2E8"/>
<path d="M94.2305 175.471V202.921H107.146L109.697 201.159L112.248 202.921H125.161V175.471H94.2305Z" fill="#FEA000"/>
<path d="M125.162 175.471V202.921H112.248L109.697 201.159V175.471H125.162Z" fill="#F78002"/>
<path d="M107.146 186.734H112.249V202.919H107.146V186.734Z" fill="#FBE200"/>
<path d="M109.698 186.734H112.249V202.919H109.698V186.734Z" fill="#FEBF01"/>
<g filter="url(#filter1_d)">
<ellipse cx="580.254" cy="208.218" rx="65.2541" ry="67.2668" fill="white"/>
</g>
<g clip-path="url(#clip0)">
<path d="M602.852 199.633L605.445 197.133L612.782 204.205L610.188 206.705L602.852 199.633Z" fill="#FABE2C"/>
<path d="M580.842 178.414L583.435 175.914L590.772 182.986L588.179 185.486L580.842 178.414Z" fill="#FFE14D"/>
<path d="M594.983 175.273H598.652V182.465H594.983V175.273Z" fill="#FABE2C"/>
<path d="M605.991 189.539H613.451V193.076H605.991V189.539Z" fill="#FABE2C"/>
<path d="M611.494 177.16L610.197 175.91L602.859 182.984L604.156 184.234L605.453 185.484L612.791 178.411L611.494 177.16Z" fill="#FFE14D"/>
<path d="M604.149 184.238L611.486 177.166L612.783 178.416L605.446 185.488L604.149 184.238Z" fill="#FABE2C"/>
<path d="M553.891 207.93L569.235 212.895L550.834 230.633L553.428 233.133L556.022 235.634L574.423 217.896L579.573 232.687L598.284 189.895L553.891 207.93Z" fill="#404A80"/>
<path d="M574.423 217.896L579.573 232.687L598.283 189.895L553.428 233.133L556.022 235.634L574.423 217.896Z" fill="#283366"/>
</g>
<g filter="url(#filter2_d)">
<ellipse cx="328.887" cy="81.7406" rx="65.7136" ry="67.7406" fill="white"/>
</g>
<g clip-path="url(#clip1)">
<path d="M355.155 49.8379H302.322C297.467 49.8379 293.517 53.6462 293.517 58.326V103.596C293.517 108.276 297.467 112.084 302.322 112.084H355.155C360.01 112.084 363.961 108.276 363.961 103.596V58.326C363.961 53.6462 360.01 49.8379 355.155 49.8379Z" fill="#607D8B"/>
<path d="M355.155 106.425H302.322C300.705 106.425 299.387 105.157 299.387 103.596V63.9844H358.09V103.596C358.09 105.157 356.772 106.425 355.155 106.425Z" fill="#FAFAFA"/>
<path d="M344.856 83.2987L329.446 78.2454C328.988 78.0927 328.489 78.0927 328.032 78.2454L312.622 83.2987C311.727 83.5901 311.128 84.3965 311.128 85.3076V96.676C311.128 110.551 327.195 117.296 327.879 117.576C328.155 117.687 328.445 117.743 328.739 117.743C329.032 117.743 329.323 117.687 329.599 117.574C330.283 117.294 346.35 110.551 346.35 96.676V85.3076C346.35 84.3965 345.751 83.5901 344.856 83.2987Z" fill="#4CAF50"/>
<path d="M338.384 94.0279L330.312 103.931C329.819 104.536 329.088 104.924 328.292 104.997L328.005 105.012C327.309 105.012 326.628 104.774 326.097 104.33L320.96 100.086C319.728 99.0699 319.584 97.2817 320.643 96.0962C321.697 94.9107 323.552 94.7749 324.779 95.7906L327.591 98.1135L333.77 90.5337C334.77 89.3057 336.614 89.0878 337.89 90.0583C339.164 91.0203 339.387 92.8 338.384 94.0279Z" fill="white"/>
<path d="M328.739 49.8379H302.322C297.467 49.8379 293.517 53.6462 293.517 58.326V103.596C293.517 108.276 297.467 112.084 302.322 112.084H319.082C317.265 110.534 315.478 108.649 314.057 106.425H302.322C300.705 106.425 299.387 105.158 299.387 103.596V63.9847H328.739V49.8379Z" fill="#546D79"/>
<path d="M328.738 63.9844H299.387V103.596C299.387 105.157 300.705 106.425 302.322 106.425H314.06C312.316 103.692 311.127 100.446 311.127 96.6749V85.3065C311.127 84.3983 311.726 83.5919 312.621 83.2977L328.031 78.2444C328.26 78.168 328.498 78.1312 328.738 78.1312V63.9844Z" fill="#DADADA"/>
<path d="M328.739 78.1309C328.498 78.1309 328.261 78.1676 328.032 78.244L312.622 83.2973C311.727 83.5887 311.128 84.3951 311.128 85.3061V96.6745C311.128 100.446 312.317 103.691 314.06 106.425C315.481 108.648 317.268 110.533 319.085 112.083C323.238 115.631 327.533 117.431 327.882 117.572C328.155 117.685 328.445 117.742 328.739 117.742V104.919C328.592 104.956 328.443 104.982 328.293 104.996L328.005 105.01C327.31 105.01 326.629 104.772 326.097 104.328L320.961 100.084C319.728 99.0682 319.584 97.28 320.644 96.0945C321.222 95.4438 322.044 95.1071 322.872 95.1071C323.547 95.1071 324.225 95.3306 324.776 95.7861L327.588 98.109L328.739 96.7V78.1309Z" fill="#429846"/>
<path d="M322.871 95.1074C322.043 95.1074 321.221 95.4413 320.64 96.0949C319.584 97.2804 319.724 99.0685 320.957 100.084L326.094 104.328C326.628 104.77 327.306 105.01 328.002 105.01L328.289 104.996C328.442 104.982 328.592 104.956 328.735 104.92V96.7004L327.585 98.1094L324.773 95.7865C324.224 95.3309 323.546 95.1074 322.871 95.1074Z" fill="#DEDEDE"/>
</g>
<g filter="url(#filter3_d)">
<ellipse cx="829.781" cy="81.7406" rx="65.7136" ry="67.7406" fill="white"/>
</g>
<g clip-path="url(#clip2)">
<path d="M833.59 45.123C855.744 45.123 873.704 62.4354 873.704 83.7912C873.704 105.147 855.744 122.459 833.59 122.459C811.435 122.459 793.476 105.147 793.476 83.7912C793.476 62.4354 811.435 45.123 833.59 45.123Z" fill="#F4B844"/>
<path d="M833.59 112.932C850.285 112.932 863.819 99.8855 863.819 83.7921C863.819 67.6987 850.285 54.6523 833.59 54.6523C816.895 54.6523 803.36 67.6987 803.36 83.7921C803.36 99.8855 816.895 112.932 833.59 112.932Z" fill="#FEDB41"/>
<path d="M833.589 80.9234C830.727 80.9234 828.407 78.6869 828.407 75.928C828.407 73.1692 830.727 70.9327 833.589 70.9327C836.451 70.9327 838.771 73.1692 838.771 75.928C838.771 76.9499 839.631 77.7782 840.691 77.7782C841.751 77.7782 842.61 76.9499 842.61 75.928C842.572 71.8679 839.624 68.3735 835.509 67.5098V65.2896C835.509 64.2678 834.649 63.4395 833.589 63.4395C832.529 63.4395 831.67 64.2678 831.67 65.2896V67.5098C826.844 68.7016 823.934 73.4394 825.17 78.0916C826.163 81.8278 829.591 84.487 833.589 84.6237C836.451 84.6237 838.771 86.8602 838.771 89.619C838.771 92.3779 836.451 94.6144 833.589 94.6144C830.727 94.6144 828.407 92.3779 828.407 89.619C828.407 88.5972 827.548 87.7689 826.488 87.7689C825.428 87.7689 824.568 88.5972 824.568 89.619C824.57 93.6917 827.534 97.2052 831.67 98.0372V101.367C831.67 102.389 832.529 103.218 833.589 103.218C834.649 103.218 835.509 102.389 835.509 101.367V98.0372C840.335 96.8454 843.245 92.1077 842.008 87.4555C841.015 83.7192 837.588 81.0599 833.589 80.9234Z" fill="#F4B844"/>
</g>
<defs>
<filter id="filter0_d" x="0.105469" y="126.951" width="159.427" height="162.534" filterUnits="userSpaceOnUse" color-interpolation-filters="sRGB">
<feFlood flood-opacity="0" result="BackgroundImageFix"/>
<feColorMatrix in="SourceAlpha" type="matrix" values="0 0 0 0 0 0 0 0 0 0 0 0 0 0 0 0 0 0 127 0"/>
<feOffset/>
<feGaussianBlur stdDeviation="7"/>
<feColorMatrix type="matrix" values="0 0 0 0 0 0 0 0 0 0 0 0 0 0 0 0 0 0 0.25 0"/>
<feBlend mode="normal" in2="BackgroundImageFix" result="effect1_dropShadow"/>
<feBlend mode="normal" in="SourceGraphic" in2="effect1_dropShadow" result="shape"/>
</filter>
<filter id="filter1_d" x="501" y="126.951" width="158.508" height="162.534" filterUnits="userSpaceOnUse" color-interpolation-filters="sRGB">
<feFlood flood-opacity="0" result="BackgroundImageFix"/>
<feColorMatrix in="SourceAlpha" type="matrix" values="0 0 0 0 0 0 0 0 0 0 0 0 0 0 0 0 0 0 127 0"/>
<feOffset/>
<feGaussianBlur stdDeviation="7"/>
<feColorMatrix type="matrix" values="0 0 0 0 0 0 0 0 0 0 0 0 0 0 0 0 0 0 0.25 0"/>
<feBlend mode="normal" in2="BackgroundImageFix" result="effect1_dropShadow"/>
<feBlend mode="normal" in="SourceGraphic" in2="effect1_dropShadow" result="shape"/>
</filter>
<filter id="filter2_d" x="249.174" y="0" width="159.427" height="163.481" filterUnits="userSpaceOnUse" color-interpolation-filters="sRGB">
<feFlood flood-opacity="0" result="BackgroundImageFix"/>
<feColorMatrix in="SourceAlpha" type="matrix" values="0 0 0 0 0 0 0 0 0 0 0 0 0 0 0 0 0 0 127 0"/>
<feOffset/>
<feGaussianBlur stdDeviation="7"/>
<feColorMatrix type="matrix" values="0 0 0 0 0 0 0 0 0 0 0 0 0 0 0 0 0 0 0.25 0"/>
<feBlend mode="normal" in2="BackgroundImageFix" result="effect1_dropShadow"/>
<feBlend mode="normal" in="SourceGraphic" in2="effect1_dropShadow" result="shape"/>
</filter>
<filter id="filter3_d" x="750.067" y="0" width="159.427" height="163.481" filterUnits="userSpaceOnUse" color-interpolation-filters="sRGB">
<feFlood flood-opacity="0" result="BackgroundImageFix"/>
<feColorMatrix in="SourceAlpha" type="matrix" values="0 0 0 0 0 0 0 0 0 0 0 0 0 0 0 0 0 0 127 0"/>
<feOffset/>
<feGaussianBlur stdDeviation="7"/>
<feColorMatrix type="matrix" values="0 0 0 0 0 0 0 0 0 0 0 0 0 0 0 0 0 0 0.25 0"/>
<feBlend mode="normal" in2="BackgroundImageFix" result="effect1_dropShadow"/>
<feBlend mode="normal" in="SourceGraphic" in2="effect1_dropShadow" result="shape"/>
</filter>
<clipPath id="clip0">
<rect width="62.617" height="60.3599" fill="white" transform="translate(550.834 175.273)"/>
</clipPath>
<clipPath id="clip1">
<rect width="70.4441" height="67.9049" fill="white" transform="translate(293.517 49.8379)"/>
</clipPath>
<clipPath id="clip2">
<rect width="80.228" height="77.3361" fill="white" transform="translate(793.476 45.123)"/>
</clipPath>
</defs>
</svg>
